<?xml version="1.0" encoding="utf-8"?>
<!-- Generator: Adobe Illustrator 27.5.0, SVG Export Plug-In . SVG Version: 6.00 Build 0)  -->
<svg version="1.1" id="PRINT_1" xmlns="http://www.w3.org/2000/svg" xmlns:xlink="http://www.w3.org/1999/xlink" x="0px" y="0px"
	 viewBox="0 0 595.276 841.89" style="enable-background:new 0 0 595.276 841.89;" xml:space="preserve">
<g>
	<rect x="-14.173" y="-14.173" style="fill:#FFFFFF;" width="623.622" height="870.236"/>
	<g>
		<defs>
			<rect id="SVGID_1_" x="-14.173" y="-14.173" width="623.622" height="870.236"/>
		</defs>
		<clipPath id="SVGID_00000116917409648039989840000015787743559294729149_">
			<use xlink:href="#SVGID_1_"  style="overflow:visible;"/>
		</clipPath>
		
			<rect x="-67.736" y="-33.975" style="clip-path:url(#SVGID_00000116917409648039989840000015787743559294729149_);fill:#FFD000;" width="397.559" height="220.11"/>
		
			<rect x="98.858" y="829.231" style="clip-path:url(#SVGID_00000116917409648039989840000015787743559294729149_);fill:#FFD000;" width="397.559" height="65.804"/>
	</g>
	<g>
		
			<text id="XMLID_60_" transform="matrix(1 0 0 1 28.7549 83.5384)" style="fill:#0A0E11; font-family:'Montserrat-Regular'; font-size:57.8106px; letter-spacing:-1;">EDWIN</text>
		
			<text transform="matrix(1 0 0 1 88.96 139.7875)" style="fill:#0A0E11; font-family:'MontserratAlternates-ExtraLight'; font-size:57.8106px; letter-spacing:-1;">SMITH</text>
		<g>
			<g>
				<g>
					<g>
						<g>
							<path style="fill:#0A0E11;" d="M206.737,176.802h-5.37c-1.61,0-2.919-1.447-2.919-3.227v-5.936
								c0-1.779,1.31-3.227,2.919-3.227h5.37c1.609,0,2.919,1.448,2.919,3.227v5.936
								C209.657,175.354,208.347,176.802,206.737,176.802z M201.368,165.627c-1.004,0-1.82,0.903-1.82,2.012v5.936
								c0,1.109,0.816,2.012,1.82,2.012h5.37c1.003,0,1.82-0.903,1.82-2.012v-5.936c0-1.109-0.817-2.012-1.82-2.012H201.368z"/>
						</g>
						<g>
							<path style="fill:#0A0E11;" d="M204.053,173.807c-1.597,0-2.895-1.436-2.895-3.201c0-1.765,1.299-3.201,2.895-3.201
								c1.596,0,2.896,1.436,2.896,3.201C206.948,172.372,205.649,173.807,204.053,173.807z M204.053,168.621
								c-0.99,0-1.796,0.891-1.796,1.986c0,1.095,0.806,1.986,1.796,1.986c0.991,0,1.796-0.891,1.796-1.986
								C205.849,169.512,205.043,168.621,204.053,168.621z"/>
						</g>
						<g>
							<path style="fill:#0A0E11;" d="M207.6,167.137c0,0.307-0.225,0.556-0.502,0.556c-0.278,0-0.503-0.249-0.503-0.556
								c0-0.307,0.225-0.556,0.503-0.556C207.375,166.581,207.6,166.83,207.6,167.137z"/>
						</g>
					</g>
					<g>
						
							<text transform="matrix(1 0 0 1 212.8052 173.4642)" style="fill:#202020; font-family:'MontserratAlternates-Light'; font-size:11.0115px;">Ed_Smith</text>
					</g>
				</g>
			</g>
			<g>
				<g>
					<g>
						<path style="fill:#0A0E11;" d="M29.887,176.802v-5.432h-1.133v-2.45h1.133v-1.46c0-0.965,0.245-1.715,0.736-2.248
							c0.491-0.533,1.177-0.8,2.059-0.8c0.282,0,0.627,0.053,1.035,0.159l-0.021,1.782c-0.169-0.048-0.376-0.072-0.619-0.072
							c-0.765,0-1.148,0.406-1.148,1.217v1.42h1.514v2.45h-1.514v5.432H29.887z"/>
					</g>
					<g>
						
							<text transform="matrix(1 0 0 1 39.9864 173.4642)" style="fill:#202020; font-family:'MontserratAlternates-Light'; font-size:11.0115px;">Ed_Smith</text>
					</g>
				</g>
			</g>
			<g>
				<g>
					<path style="fill:#0A0E11;" d="M123.33,165.761c0,0,1.331-0.271,1.735-0.717c0,0-0.331,1.142-1.179,1.698
						c0,0,1.033-0.161,1.51-0.454c0,0-0.464,0.922-1.325,1.523c0,0,0.165,1.937-0.795,4.173c-1.722,4.012-6.781,6.296-10.914,3.294
						c0,0,2.026,0.498,3.947-1.23c0,0-1.748,0.059-2.49-2.05c0,0,0.543,0.234,1.166-0.015c0,0-2.106-0.542-2.106-3.002
						c0,0,0.331,0.395,1.205,0.395c0,0-1.868-1.435-0.861-3.924c0,0,1.682,2.855,5.576,3.06c0,0-0.609-2.533,1.722-3.47
						C120.522,165.044,121.895,164.336,123.33,165.761z"/>
					<g>
						
							<text transform="matrix(1 0 0 1 127.6348 173.6146)" style="fill:#202020; font-family:'MontserratAlternates-Light'; font-size:11.0115px;">Ed_Smith</text>
					</g>
				</g>
			</g>
		</g>
	</g>
	<g>
		
			<text transform="matrix(1 0 0 1 379.5161 93.9203)" style="fill:#0A0E11; font-family:'MontserratAlternates-ExtraLight'; font-size:28.5781px;">DIGITAL</text>
		<g>
			
				<text transform="matrix(1 0 0 1 385.438 112.7591)" style="fill:#0A0E11; font-family:'Montserrat-Regular'; font-size:22.243px;">MARKETER</text>
		</g>
		<g>
			
				<text transform="matrix(1 0 0 1 349.2603 105.6947)" style="fill:#020203; font-family:'MontserratAlternates-Light'; font-size:73.9009px; letter-spacing:-1;">“</text>
			
				<text transform="matrix(1 0 0 1 524.0084 164.1996)" style="fill:#020203; font-family:'MontserratAlternates-Light'; font-size:73.9009px; letter-spacing:-1;">”</text>
		</g>
	</g>
	<g>
		<rect x="301.142" y="372.161" style="fill:#FFD000;" width="44.371" height="5.875"/>
		<rect x="301.26" y="437.328" style="fill:#FFD000;" width="44.371" height="5.875"/>
		<rect x="301.142" y="502.43" style="fill:#FFD000;" width="44.371" height="5.875"/>
		<g>
			<g>
				<g>
					<path style="fill:#FFD000;" d="M315.679,211.044L315.679,211.044c-4.931,0-8.928-3.997-8.928-8.928l0,0
						c0-4.931,3.997-8.928,8.928-8.928l0,0c4.931,0,8.928,3.997,8.928,8.928l0,0C324.608,207.047,320.61,211.044,315.679,211.044z"
						/>
					<g>
						<g>
							<path style="fill:#0A0E11;" d="M318.749,208.01c0.163,0,0.296-0.133,0.296-0.296v-2.14v-9.056
								c0-0.163-0.132-0.296-0.296-0.296h-6.139c-0.163,0-0.296,0.132-0.296,0.296v9.056v2.14c0,0.163,0.133,0.296,0.296,0.296
								H318.749z M318.453,205.278h-5.546v-8.464h5.546V205.278z M315.495,206.643c0-0.101,0.083-0.184,0.184-0.184
								c0.102,0,0.185,0.083,0.185,0.184c0,0.102-0.083,0.184-0.185,0.184C315.578,206.828,315.495,206.745,315.495,206.643z
								 M312.906,205.87h2.752c-0.418,0.011-0.755,0.353-0.755,0.774c0,0.419,0.334,0.76,0.75,0.774h-2.747V205.87z
								 M316.456,206.643c0-0.421-0.337-0.762-0.755-0.774h2.752v1.548h-2.747C316.121,207.404,316.456,207.063,316.456,206.643z"/>
							<path style="fill:#0A0E11;" d="M314.837,197.606h1.685c0.163,0,0.296-0.133,0.296-0.296c0-0.163-0.133-0.296-0.296-0.296
								h-1.685c-0.163,0-0.296,0.133-0.296,0.296C314.541,197.473,314.674,197.606,314.837,197.606z"/>
						</g>
					</g>
				</g>
				<g id="XMLID_59_">
					
						<text transform="matrix(1 0 0 1 331.2115 205.3578)" style="fill:#202020; font-family:'MontserratAlternates-Light'; font-size:11.0115px;">1234-567-890</text>
				</g>
			</g>
			<g>
				<g>
					<path style="fill:#FFD000;" d="M315.679,236.068L315.679,236.068c-4.931,0-8.928-3.997-8.928-8.928l0,0
						c0-4.931,3.997-8.928,8.928-8.928l0,0c4.931,0,8.928,3.997,8.928,8.928l0,0C324.608,232.07,320.61,236.068,315.679,236.068z"/>
					<path style="fill:#0A0E11;" d="M321.841,223.115c0-0.033-0.009-0.063-0.019-0.092c-0.001-0.005,0.001-0.009-0.001-0.013
						c0-0.001-0.002-0.002-0.002-0.003c-0.02-0.049-0.054-0.089-0.096-0.121c-0.009-0.007-0.017-0.012-0.027-0.018
						c-0.045-0.027-0.094-0.047-0.15-0.047h-11.732c-0.056,0-0.106,0.02-0.15,0.047c-0.01,0.006-0.019,0.012-0.028,0.019
						c-0.042,0.032-0.076,0.072-0.096,0.122c0,0.001-0.002,0.001-0.002,0.002c-0.001,0.003,0,0.007-0.001,0.01
						c-0.011,0.03-0.019,0.062-0.019,0.096v8.049c0,0.035,0.009,0.067,0.02,0.098c0.001,0.004-0.001,0.008,0.001,0.012
						c0,0.001,0.002,0.001,0.002,0.002c0.02,0.049,0.056,0.088,0.097,0.12c0.009,0.007,0.017,0.012,0.027,0.018
						c0.044,0.027,0.094,0.046,0.149,0.046h11.732c0.056,0,0.105-0.02,0.149-0.047c0.01-0.006,0.019-0.012,0.028-0.019
						c0.041-0.032,0.076-0.071,0.096-0.12c0-0.001,0.001-0.001,0.002-0.002c0.001-0.004,0-0.007,0.001-0.01
						c0.011-0.031,0.02-0.063,0.02-0.098V223.115z M310.11,223.779l3.665,3.296l-3.665,3.408V223.779z M316.95,226.85
						c0,0-0.001,0.001-0.001,0.001l-0.527,0.474c-0.423,0.38-1.061,0.38-1.483,0l-0.527-0.475c0-0.001-0.001-0.001-0.002-0.001
						l-3.823-3.439h10.188L316.95,226.85z M314.216,227.473l0.326,0.292c0.08,0.072,0.165,0.135,0.255,0.19
						c0.025,0.016,0.053,0.025,0.079,0.039c0.066,0.036,0.132,0.072,0.201,0.098c0.026,0.01,0.054,0.014,0.081,0.023
						c0.072,0.023,0.143,0.047,0.217,0.06c0.003,0.001,0.007,0,0.01,0.001c0.096,0.017,0.194,0.027,0.293,0.027
						c0.182,0,0.36-0.035,0.531-0.091c0.023-0.008,0.048-0.011,0.071-0.02c0.074-0.028,0.143-0.065,0.213-0.104
						c0.022-0.012,0.046-0.02,0.067-0.033c0.09-0.055,0.176-0.118,0.256-0.19l0.326-0.292l3.649,3.395h-10.225L314.216,227.473z
						 M317.585,227.076l3.665-3.296v6.705L317.585,227.076z"/>
				</g>
				<g id="XMLID_58_">
					
						<text transform="matrix(1 0 0 1 331.2115 230.3822)" style="fill:#202020; font-family:'MontserratAlternates-Light'; font-size:11.0115px;">yoursurname@mail.com</text>
				</g>
			</g>
			<g>
				<g>
					<path style="fill:#FFD000;" d="M315.679,261.092L315.679,261.092c-4.931,0-8.928-3.997-8.928-8.928l0,0
						c0-4.931,3.997-8.928,8.928-8.928l0,0c4.931,0,8.928,3.997,8.928,8.928l0,0C324.608,257.094,320.61,261.092,315.679,261.092z"
						/>
					<g>
						<g>
							<path style="fill:#0A0E11;" d="M315.679,246.269c-1.226,0-2.354,0.616-3.017,1.649c-0.662,1.033-0.753,2.315-0.242,3.429
								l2.996,6.537c0.048,0.105,0.154,0.173,0.269,0.173c0.116,0,0.222-0.068,0.269-0.173l2.986-6.542
								c0.509-1.115,0.417-2.396-0.246-3.427C318.032,246.884,316.905,246.269,315.679,246.269z M318.402,251.096l-2.717,5.953
								l-2.726-5.948c-0.427-0.931-0.351-2.001,0.202-2.863c0.553-0.861,1.495-1.376,2.518-1.376c1.023,0,1.964,0.513,2.517,1.374
								C318.749,249.096,318.826,250.165,318.402,251.096z"/>
							<path style="fill:#0A0E11;" d="M315.679,247.833c-1.037,0-1.88,0.843-1.88,1.879c0,1.037,0.843,1.88,1.88,1.88
								c1.037,0,1.88-0.843,1.88-1.88C317.559,248.676,316.716,247.833,315.679,247.833z M316.966,249.712
								c0,0.71-0.578,1.287-1.287,1.287c-0.71,0-1.287-0.578-1.287-1.287c0-0.71,0.578-1.287,1.287-1.287
								C316.389,248.425,316.966,249.002,316.966,249.712z"/>
						</g>
					</g>
				</g>
				<g id="XMLID_57_">
					
						<text transform="matrix(1 0 0 1 331.2115 255.4056)" style="fill:#202020; font-family:'MontserratAlternates-Light'; font-size:11.0115px;">1234 Main Street, New York</text>
				</g>
			</g>
		</g>
		<g>
			<path style="fill:#202020;" d="M567.21,286.048H285.801V150.643H567.21V286.048z M287.178,284.672h278.656V152.02H287.178
				V284.672z"/>
		</g>
		<g id="XMLID_56_">
			
				<text transform="matrix(1 0 0 1 28.7549 246.2689)" style="fill:#0A0E11; font-family:'MontserratAlternates-Italic'; font-size:24.776px; letter-spacing:-1;">About</text>
		</g>
		<g>
			<rect x="28.754" y="267.583" style="fill:none;" width="208.938" height="128.372"/>
			<text transform="matrix(1 0 0 1 28.7539 277.9467)"><tspan x="0" y="0" style="fill:#0A0E11; font-family:'Lato-Regular'; font-size:14.0626px;">“Lorem ipsum dolor sit amet, </tspan><tspan x="0" y="16.875" style="fill:#0A0E11; font-family:'Lato-Regular'; font-size:14.0626px;">consectetuer adipiscing elit, sed </tspan><tspan x="0" y="33.75" style="fill:#0A0E11; font-family:'Lato-Regular'; font-size:14.0626px;">diam nonummy nibh euismod </tspan><tspan x="0" y="50.625" style="fill:#0A0E11; font-family:'Lato-Regular'; font-size:14.0626px;">tincidunt ut laoreet dolore magna </tspan><tspan x="0" y="67.5" style="fill:#0A0E11; font-family:'Lato-Regular'; font-size:14.0626px;">aliquam erat volutpat.”</tspan></text>
		</g>
		<rect x="112.363" y="239.309" style="fill:#FFD000;" width="111.423" height="5.875"/>
		<g>
			<g>
				
					<text id="XMLID_266_" transform="matrix(1 0 0 1 33.3496 492.681)" style="fill:#0A0E11; font-family:'Montserrat-LightItalic'; font-size:16.5173px; letter-spacing:-1;">Adaptable</text>
				<g>
					<g>
						<g>
							<path style="fill:#0A0E11;" d="M68.122,507.636c-0.875,0-1.698-0.341-2.316-0.962c-0.667-0.664-1.008-1.487-1.008-2.36
								c0-0.876,0.34-1.699,0.96-2.32c1.333-1.328,3.444-1.282,4.681-0.046c0.667,0.667,1.007,1.489,1.007,2.363
								c0,0.876-0.34,1.699-0.958,2.317l-0.048,0.048C69.819,507.295,68.997,507.636,68.122,507.636z M68.122,501.679
								c-0.691,0-1.341,0.269-1.829,0.755c-0.538,0.538-0.807,1.188-0.807,1.879s0.27,1.339,0.758,1.825
								c1.073,1.075,2.729,1.027,3.707,0.048L70,506.139c0.488-0.487,0.757-1.135,0.757-1.828c0-0.691-0.269-1.342-0.757-1.831
								C69.462,501.948,68.813,501.679,68.122,501.679z"/>
						</g>
						<g>
							<path style="fill:#0A0E11;" d="M78.315,507.636c-0.875,0-1.698-0.341-2.316-0.962c-0.667-0.664-1.008-1.487-1.008-2.36
								c0-0.876,0.34-1.699,0.96-2.32c0.667-0.664,1.489-1.003,2.364-1.003c0.875,0,1.698,0.339,2.316,0.957
								c0.667,0.667,1.007,1.489,1.007,2.366c0,0.874-0.341,1.696-0.958,2.312l-0.044,0.046
								C80.012,507.295,79.19,507.636,78.315,507.636z M78.315,501.679c-0.691,0-1.341,0.269-1.829,0.755
								c-0.538,0.538-0.807,1.188-0.807,1.879s0.27,1.339,0.758,1.825c1.073,1.075,2.729,1.027,3.707,0.048l0.047-0.048
								c0.488-0.487,0.758-1.135,0.758-1.825s-0.269-1.341-0.758-1.831C79.655,501.948,79.006,501.679,78.315,501.679z"/>
						</g>
						<g>
							<path style="fill:#0A0E11;" d="M37.543,507.636c-0.875,0-1.698-0.341-2.316-0.962c-0.667-0.664-1.008-1.487-1.008-2.36
								c0-0.876,0.34-1.699,0.96-2.32c0.667-0.664,1.489-1.003,2.364-1.003c0.875,0,1.698,0.339,2.316,0.957
								c0.667,0.667,1.007,1.489,1.007,2.363c0,0.876-0.34,1.699-0.958,2.317l-0.048,0.048
								C39.241,507.295,38.418,507.636,37.543,507.636z M37.543,501.679c-0.691,0-1.341,0.269-1.829,0.755
								c-0.538,0.538-0.806,1.188-0.806,1.879s0.27,1.339,0.758,1.825c1.073,1.075,2.729,1.027,3.707,0.048l0.048-0.048
								c0.488-0.487,0.757-1.135,0.757-1.828c0-0.691-0.269-1.342-0.757-1.831C38.883,501.948,38.234,501.679,37.543,501.679z"/>
						</g>
						<g>
							<path style="fill:#0A0E11;" d="M47.736,507.634c-0.839,0-1.678-0.32-2.316-0.957c-0.667-0.667-1.008-1.489-1.008-2.363
								c0-0.876,0.34-1.699,0.96-2.32c1.324-1.323,3.403-1.32,4.68-0.046c0.667,0.667,1.007,1.489,1.007,2.363
								c0,0.876-0.34,1.699-0.958,2.317l-0.048,0.048C49.413,507.314,48.575,507.634,47.736,507.634z M47.72,501.684
								c-0.661,0-1.315,0.253-1.813,0.753c-0.538,0.535-0.806,1.186-0.806,1.876s0.27,1.339,0.758,1.825
								c1.059,1.059,2.701,1.062,3.707,0.048l0.048-0.048c0.488-0.487,0.757-1.135,0.757-1.828c0-0.691-0.269-1.342-0.757-1.831
								C49.079,501.948,48.396,501.684,47.72,501.684z"/>
						</g>
						<g>
							<path style="fill:#0A0E11;" d="M57.929,507.636c-0.875,0-1.698-0.341-2.316-0.962c-0.667-0.664-1.008-1.487-1.008-2.36
								c0-0.876,0.34-1.699,0.96-2.32c0.667-0.664,1.489-1.003,2.364-1.003c0.875,0,1.698,0.339,2.316,0.957
								c0.667,0.667,1.007,1.489,1.007,2.363c0,0.876-0.34,1.699-0.958,2.317l-0.048,0.048
								C59.627,507.295,58.804,507.636,57.929,507.636z M57.929,501.679c-0.691,0-1.342,0.269-1.829,0.755
								c-0.538,0.538-0.806,1.188-0.806,1.879s0.27,1.339,0.758,1.825c1.073,1.075,2.729,1.027,3.707,0.048l0.048-0.048
								c0.488-0.487,0.757-1.135,0.757-1.828c0-0.691-0.269-1.342-0.757-1.831C59.269,501.948,58.62,501.679,57.929,501.679z"/>
						</g>
						<g>
							<path style="fill:#0A0E11;" d="M108.894,507.636c-0.875,0-1.698-0.341-2.316-0.962c-0.632-0.629-0.98-1.468-0.98-2.36
								c0-0.895,0.348-1.734,0.98-2.366c1.235-1.234,3.393-1.242,4.631,0.003c0.668,0.664,1.008,1.487,1.008,2.363
								c0,0.874-0.341,1.696-0.96,2.315l-0.048,0.048C110.59,507.295,109.767,507.636,108.894,507.636z M108.894,501.679
								c-0.692,0-1.341,0.269-1.829,0.755c-0.501,0.503-0.778,1.17-0.778,1.879c0,0.707,0.277,1.374,0.778,1.874
								c0.976,0.979,2.682,0.976,3.658,0.003l0.048-0.051c0.488-0.487,0.758-1.135,0.758-1.825s-0.269-1.341-0.758-1.831
								C110.234,501.948,109.584,501.679,108.894,501.679z"/>
						</g>
						<g>
							<path style="fill:#0A0E11;" d="M119.086,507.636c-0.875,0-1.698-0.341-2.316-0.962c-0.667-0.664-1.008-1.487-1.008-2.36
								c0-0.876,0.34-1.699,0.96-2.32c0.667-0.664,1.489-1.003,2.364-1.003s1.698,0.339,2.316,0.957
								c0.667,0.667,1.007,1.489,1.007,2.366c0,0.874-0.341,1.696-0.958,2.312l-0.044,0.046
								C120.784,507.295,119.962,507.636,119.086,507.636z M119.086,501.679c-0.691,0-1.341,0.269-1.829,0.755
								c-0.538,0.538-0.807,1.188-0.807,1.879s0.27,1.339,0.758,1.825c1.073,1.075,2.729,1.027,3.707,0.048l0.047-0.048
								c0.488-0.487,0.758-1.135,0.758-1.825s-0.269-1.341-0.758-1.831C120.427,501.948,119.777,501.679,119.086,501.679z"/>
						</g>
						<g>
							<path style="fill:#0A0E11;" d="M129.278,507.636c-0.874,0-1.696-0.341-2.315-0.962c-0.667-0.664-1.008-1.487-1.008-2.36
								c0-0.876,0.34-1.699,0.96-2.32c1.333-1.331,3.441-1.285,4.679-0.043c0.668,0.664,1.008,1.487,1.008,2.363
								c0,0.874-0.341,1.696-0.96,2.315l-0.048,0.048C130.976,507.295,130.153,507.636,129.278,507.636z M129.278,501.679
								c-0.691,0-1.34,0.269-1.828,0.755c-0.538,0.538-0.807,1.188-0.807,1.879s0.27,1.339,0.758,1.825
								c1.074,1.075,2.731,1.024,3.706,0.051l0.048-0.051c0.488-0.487,0.758-1.135,0.758-1.825s-0.269-1.341-0.758-1.831
								C130.62,501.948,129.97,501.679,129.278,501.679z"/>
						</g>
						<g>
							<path style="fill:#0A0E11;" d="M88.508,507.636c-0.875,0-1.698-0.341-2.316-0.962c-0.667-0.664-1.008-1.487-1.008-2.36
								c0-0.876,0.34-1.699,0.96-2.32c1.333-1.328,3.444-1.282,4.68-0.046c0.667,0.667,1.007,1.489,1.007,2.366
								c0,0.874-0.341,1.696-0.958,2.312l-0.044,0.046C90.205,507.295,89.383,507.636,88.508,507.636z M88.508,501.679
								c-0.691,0-1.341,0.269-1.829,0.755c-0.538,0.538-0.807,1.188-0.807,1.879s0.27,1.339,0.758,1.825
								c1.073,1.075,2.729,1.027,3.707,0.048l0.047-0.048c0.488-0.487,0.758-1.135,0.758-1.825s-0.269-1.341-0.758-1.831
								C89.848,501.948,89.199,501.679,88.508,501.679z"/>
						</g>
						<g>
							<path style="fill:#0A0E11;" d="M98.701,507.636c-0.875,0-1.698-0.341-2.316-0.962c-0.667-0.664-1.008-1.487-1.008-2.36
								c0-0.876,0.34-1.699,0.96-2.32c0.667-0.664,1.489-1.003,2.364-1.003c0.875,0,1.698,0.339,2.316,0.957
								c0.667,0.667,1.007,1.489,1.007,2.366c0,0.874-0.341,1.696-0.958,2.312l-0.044,0.046
								C100.398,507.295,99.576,507.636,98.701,507.636z M98.701,501.679c-0.691,0-1.341,0.269-1.829,0.755
								c-0.538,0.538-0.806,1.188-0.806,1.879s0.27,1.339,0.758,1.825c1.073,1.075,2.729,1.027,3.707,0.048l0.047-0.048
								c0.488-0.487,0.758-1.135,0.758-1.825s-0.269-1.341-0.758-1.831C100.041,501.948,99.391,501.679,98.701,501.679z"/>
						</g>
					</g>
					<g>
						<g>
							<path style="fill:#0A0E11;" d="M70.242,506.385l-0.048,0.048c-1.145,1.145-3.001,1.145-4.145,0l-0.048-0.048
								c-1.145-1.145-1.145-3.001,0-4.146l0.048-0.048c1.145-1.145,3.001-1.145,4.145,0l0.048,0.048
								C71.387,503.384,71.387,505.24,70.242,506.385z"/>
						</g>
						<g>
							<path style="fill:#0A0E11;" d="M80.435,506.385l-0.048,0.048c-1.145,1.145-3.001,1.145-4.145,0l-0.048-0.048
								c-1.145-1.145-1.145-3.001,0-4.146l0.048-0.048c1.145-1.145,3.001-1.145,4.145,0l0.048,0.048
								C81.58,503.384,81.58,505.24,80.435,506.385z"/>
						</g>
						<g>
							<path style="fill:#0A0E11;" d="M39.664,506.385l-0.048,0.048c-1.145,1.145-3.001,1.145-4.145,0l-0.048-0.048
								c-1.145-1.145-1.145-3.001,0-4.145l0.048-0.048c1.145-1.145,3.001-1.145,4.145,0l0.048,0.048
								C40.808,503.384,40.808,505.24,39.664,506.385z"/>
						</g>
						<g>
							<path style="fill:#0A0E11;" d="M49.857,506.385l-0.048,0.048c-1.145,1.145-3.001,1.145-4.145,0l-0.048-0.048
								c-1.145-1.145-1.145-3.001,0-4.146l0.048-0.048c1.145-1.145,3.001-1.145,4.145,0l0.048,0.048
								C51.001,503.384,51.001,505.24,49.857,506.385z"/>
						</g>
						<g>
							<path style="fill:#0A0E11;" d="M60.049,506.385l-0.048,0.048c-1.145,1.145-3.001,1.145-4.145,0l-0.048-0.048
								c-1.145-1.145-1.145-3.001,0-4.146l0.048-0.048c1.145-1.145,3.001-1.145,4.145,0l0.048,0.048
								C61.194,503.384,61.194,505.24,60.049,506.385z"/>
						</g>
						<g>
							<path style="fill:#0A0E11;" d="M111.014,506.385l-0.048,0.048c-1.145,1.145-3.001,1.145-4.145,0l-0.048-0.048
								c-1.145-1.145-1.145-3.001,0-4.145l0.048-0.048c1.145-1.145,3.001-1.145,4.145,0l0.048,0.048
								C112.158,503.384,112.158,505.24,111.014,506.385z"/>
						</g>
						<g>
							<path style="fill:#0A0E11;" d="M90.628,506.385l-0.048,0.048c-1.145,1.145-3.001,1.145-4.145,0l-0.048-0.048
								c-1.145-1.145-1.145-3.001,0-4.145l0.048-0.048c1.145-1.145,3.001-1.145,4.145,0l0.048,0.048
								C91.773,503.384,91.773,505.24,90.628,506.385z"/>
						</g>
						<g>
							<path style="fill:#0A0E11;" d="M100.821,506.385l-0.048,0.048c-1.145,1.145-3.001,1.145-4.145,0l-0.048-0.048
								c-1.145-1.145-1.145-3.001,0-4.145l0.048-0.048c1.145-1.145,3.001-1.145,4.145,0l0.048,0.048
								C101.966,503.384,101.966,505.24,100.821,506.385z"/>
						</g>
					</g>
				</g>
			</g>
			<g>
				
					<text id="XMLID_270_" transform="matrix(1 0 0 1 32.7119 539.3373)" style="fill:#0A0E11; font-family:'Montserrat-LightItalic'; font-size:16.5173px; letter-spacing:-1;">Multitasking</text>
				<g>
					<g>
						<g>
							<path style="fill:#0A0E11;" d="M67.268,554.277c-0.848,0-1.695-0.323-2.34-0.968c-0.625-0.626-0.969-1.457-0.969-2.341
								c0-0.885,0.344-1.715,0.969-2.339c1.293-1.29,3.393-1.285,4.68-0.003c1.289,1.293,1.289,3.39,0,4.68v0.003
								C68.963,553.954,68.116,554.277,67.268,554.277z M67.268,548.349c-0.671,0-1.343,0.255-1.854,0.766
								c-0.495,0.495-0.768,1.153-0.768,1.852c0,0.702,0.273,1.36,0.768,1.852c1.022,1.027,2.686,1.027,3.707,0l0,0
								c1.02-1.022,1.02-2.683,0-3.707C68.611,548.604,67.939,548.349,67.268,548.349z"/>
						</g>
						<g>
							<path style="fill:#0A0E11;" d="M77.461,554.277c-0.848,0-1.695-0.323-2.34-0.968c-1.289-1.293-1.289-3.39,0-4.68
								c1.293-1.29,3.393-1.285,4.68-0.003c0.625,0.626,0.969,1.457,0.969,2.342c0,0.884-0.344,1.715-0.969,2.341l0,0l0,0
								C79.156,553.954,78.308,554.277,77.461,554.277z M77.461,548.349c-0.671,0-1.343,0.255-1.854,0.766
								c-1.02,1.022-1.02,2.683,0,3.707c1.022,1.022,2.686,1.024,3.707-0.003l0,0c0.495-0.492,0.768-1.151,0.768-1.852
								c0-0.699-0.273-1.358-0.768-1.855C78.804,548.604,78.132,548.349,77.461,548.349z"/>
						</g>
						<g>
							<path style="fill:#0A0E11;" d="M36.689,554.277c-0.883,0-1.715-0.344-2.34-0.968c-0.625-0.626-0.969-1.457-0.969-2.341
								c0-0.885,0.344-1.715,0.969-2.339c1.293-1.29,3.393-1.285,4.68-0.003c1.29,1.29,1.29,3.39,0,4.68l0,0l0,0
								c0,0.003,0,0.003,0,0.003C38.405,553.933,37.574,554.277,36.689,554.277z M36.689,548.349c-0.671,0-1.343,0.255-1.854,0.766
								c-0.495,0.495-0.768,1.153-0.768,1.852c0,0.702,0.273,1.36,0.768,1.852c0.992,0.995,2.718,0.992,3.707,0.003v-0.003
								c1.022-1.022,1.022-2.683,0-3.705C38.032,548.604,37.362,548.349,36.689,548.349z"/>
						</g>
						<g>
							<path style="fill:#0A0E11;" d="M46.882,554.277c-0.883,0-1.715-0.344-2.34-0.968c-0.625-0.626-0.969-1.457-0.969-2.341
								c0-0.885,0.344-1.715,0.969-2.339c1.29-1.288,3.39-1.288,4.68-0.003c1.29,1.29,1.29,3.39,0,4.68l0,0l0,0
								c0,0.003,0,0.003,0,0.003C48.598,553.933,47.767,554.277,46.882,554.277z M46.882,548.349c-0.671,0-1.343,0.255-1.854,0.766
								c-0.495,0.495-0.767,1.153-0.767,1.852c0,0.702,0.273,1.36,0.767,1.852c0.992,0.995,2.718,0.992,3.707,0.003v-0.003
								c1.022-1.022,1.022-2.683,0-3.705C48.225,548.604,47.554,548.349,46.882,548.349z"/>
						</g>
						<g>
							<path style="fill:#0A0E11;" d="M57.075,554.277c-0.848,0-1.695-0.323-2.34-0.968c-0.625-0.626-0.969-1.457-0.969-2.341
								c0-0.885,0.344-1.715,0.969-2.339c1.293-1.29,3.393-1.285,4.681-0.003c1.289,1.29,1.29,3.39,0,4.68v0.003
								C58.77,553.954,57.923,554.277,57.075,554.277z M57.075,548.349c-0.671,0-1.343,0.255-1.854,0.766
								c-0.495,0.495-0.767,1.153-0.767,1.852c0,0.702,0.273,1.36,0.767,1.852c1.022,1.027,2.686,1.027,3.707,0l0,0
								c1.021-1.022,1.021-2.686,0-3.705C58.418,548.604,57.747,548.349,57.075,548.349z"/>
						</g>
						<g>
							<path style="fill:#0A0E11;" d="M108.04,554.277c-0.848,0-1.695-0.323-2.34-0.968c-0.625-0.624-0.969-1.454-0.969-2.339
								c-0.001-0.885,0.343-1.718,0.969-2.344c1.293-1.285,3.393-1.282,4.68,0c1.289,1.293,1.289,3.39,0,4.68v0.003
								C109.735,553.954,108.888,554.277,108.04,554.277z M108.04,548.349c-0.671,0-1.343,0.255-1.854,0.766
								c-0.496,0.495-0.769,1.153-0.768,1.855c0,0.699,0.273,1.358,0.768,1.85c1.022,1.027,2.686,1.027,3.707,0l0,0
								c1.02-1.022,1.02-2.683,0-3.707C109.383,548.604,108.711,548.349,108.04,548.349z"/>
						</g>
						<g>
							<path style="fill:#0A0E11;" d="M118.233,554.277c-0.884,0-1.715-0.344-2.34-0.971c-0.625-0.621-0.969-1.452-0.969-2.336
								c-0.001-0.885,0.343-1.718,0.969-2.344c1.29-1.282,3.39-1.285,4.681,0c1.289,1.293,1.289,3.39,0,4.68v0.003
								C119.948,553.933,119.116,554.277,118.233,554.277z M118.233,548.349c-0.672,0-1.343,0.255-1.854,0.766
								c-0.496,0.495-0.769,1.153-0.768,1.855c0,0.699,0.273,1.358,0.768,1.85c0.989,0.995,2.715,0.995,3.707,0l0,0
								c1.02-1.022,1.02-2.683,0-3.707C119.576,548.604,118.904,548.349,118.233,548.349z"/>
						</g>
						<g>
							<path style="fill:#0A0E11;" d="M128.426,554.277c-0.884,0-1.715-0.344-2.34-0.971c-0.625-0.621-0.969-1.452-0.969-2.336
								c-0.001-0.885,0.343-1.718,0.969-2.344c1.29-1.282,3.39-1.285,4.68,0c1.289,1.293,1.289,3.39,0,4.68v0.003
								C130.141,553.933,129.309,554.277,128.426,554.277z M128.426,548.349c-0.672,0-1.343,0.255-1.854,0.766
								c-0.496,0.495-0.769,1.153-0.768,1.855c0,0.699,0.273,1.358,0.768,1.85c0.989,0.995,2.715,0.995,3.707,0l0,0
								c1.02-1.022,1.02-2.683,0-3.707C129.769,548.604,129.097,548.349,128.426,548.349z"/>
						</g>
						<g>
							<path style="fill:#0A0E11;" d="M87.654,554.277c-0.848,0-1.695-0.323-2.34-0.968c-1.289-1.293-1.289-3.39,0-4.68
								c1.29-1.288,3.39-1.288,4.68-0.003c0.625,0.626,0.969,1.457,0.969,2.342c0,0.884-0.344,1.715-0.969,2.341l0,0l0,0
								C89.349,553.954,88.501,554.277,87.654,554.277z M87.654,548.349c-0.672,0-1.343,0.255-1.854,0.766
								c-1.02,1.022-1.02,2.683,0,3.707c1.022,1.022,2.686,1.024,3.707-0.003l0,0c0.495-0.492,0.768-1.151,0.768-1.852
								c0-0.699-0.273-1.358-0.768-1.855C88.997,548.604,88.325,548.349,87.654,548.349z"/>
						</g>
						<g>
							<path style="fill:#0A0E11;" d="M97.847,554.277c-0.884,0-1.715-0.344-2.34-0.971c-1.291-1.288-1.291-3.39,0-4.68
								c1.29-1.282,3.39-1.285,4.68,0c0.625,0.626,0.969,1.457,0.969,2.342c0,0.884-0.344,1.715-0.969,2.341l0,0
								C99.562,553.933,98.73,554.277,97.847,554.277z M97.847,548.349c-0.672,0-1.343,0.255-1.854,0.766
								c-1.021,1.022-1.021,2.683,0,3.705c0.989,0.995,2.715,0.995,3.707,0l0,0c0.495-0.492,0.767-1.151,0.767-1.852
								c0-0.699-0.273-1.358-0.767-1.855C99.19,548.604,98.518,548.349,97.847,548.349z"/>
						</g>
					</g>
					<g>
						<g>
							<path style="fill:#0A0E11;" d="M69.365,553.065L69.365,553.065c-1.158,1.158-3.035,1.158-4.194,0l0,0
								c-1.158-1.158-1.158-3.036,0-4.194l0,0c1.158-1.158,3.036-1.158,4.194,0l0,0C70.523,550.029,70.523,551.907,69.365,553.065z"
								/>
						</g>
						<g>
							<path style="fill:#0A0E11;" d="M79.558,553.065L79.558,553.065c-1.158,1.158-3.036,1.158-4.194,0l0,0
								c-1.158-1.158-1.158-3.036,0-4.193l0,0c1.158-1.158,3.036-1.158,4.194,0l0,0C80.716,550.029,80.716,551.907,79.558,553.065z"
								/>
						</g>
						<g>
							<path style="fill:#0A0E11;" d="M38.787,553.065L38.787,553.065c-1.158,1.158-3.035,1.158-4.194,0h0
								c-1.158-1.158-1.158-3.036,0-4.194l0,0c1.158-1.158,3.036-1.158,4.194,0l0,0C39.945,550.029,39.945,551.907,38.787,553.065z"
								/>
						</g>
						<g>
							<path style="fill:#0A0E11;" d="M48.979,553.065L48.979,553.065c-1.158,1.158-3.035,1.158-4.194,0l0,0
								c-1.158-1.158-1.158-3.036,0-4.194l0,0c1.158-1.158,3.036-1.158,4.194,0l0,0C50.137,550.029,50.137,551.907,48.979,553.065z"
								/>
						</g>
						<g>
							<path style="fill:#0A0E11;" d="M59.172,553.065L59.172,553.065c-1.158,1.158-3.035,1.158-4.194,0l0,0
								c-1.158-1.158-1.158-3.036,0-4.194l0,0c1.158-1.158,3.036-1.158,4.194,0l0,0C60.33,550.029,60.33,551.907,59.172,553.065z"/>
						</g>
						<g>
							<path style="fill:#0A0E11;" d="M89.751,553.065L89.751,553.065c-1.158,1.158-3.035,1.158-4.193,0l0,0
								c-1.158-1.158-1.158-3.036,0-4.193l0,0c1.158-1.158,3.036-1.158,4.194,0l0,0C90.909,550.029,90.909,551.907,89.751,553.065z"
								/>
						</g>
					</g>
				</g>
			</g>
			<g>
				
					<text id="XMLID_267_" transform="matrix(1 0 0 1 32.7139 585.9935)" style="fill:#0A0E11; font-family:'Montserrat-LightItalic'; font-size:16.5173px; letter-spacing:-1;">Unique</text>
				<g>
					<g>
						<g>
							<path style="fill:#0A0E11;" d="M67.268,600.933c-0.848,0-1.695-0.323-2.34-0.968c-1.289-1.293-1.289-3.39,0-4.68
								c1.293-1.288,3.393-1.291,4.68-0.003c1.29,1.29,1.29,3.393,0,4.683C68.963,600.611,68.116,600.933,67.268,600.933z
								 M67.268,595.003c-0.671,0-1.343,0.255-1.854,0.769c-1.02,1.021-1.02,2.683,0,3.707c1.022,1.022,2.686,1.024,3.707-0.003
								c1.022-1.022,1.022-2.683,0-3.705C68.611,595.258,67.939,595.003,67.268,595.003z"/>
						</g>
						<g>
							<path style="fill:#0A0E11;" d="M77.461,600.933c-0.848,0-1.695-0.323-2.34-0.968c-1.289-1.293-1.289-3.39,0-4.68
								c1.293-1.288,3.393-1.291,4.68-0.003c1.289,1.293,1.289,3.39,0,4.68v0.003C79.156,600.611,78.309,600.933,77.461,600.933z
								 M77.461,595.003c-0.671,0-1.343,0.255-1.854,0.769c-1.02,1.021-1.02,2.683,0,3.707c1.022,1.022,2.686,1.024,3.707-0.003
								c1.02-1.022,1.02-2.683,0-3.707C78.804,595.258,78.132,595.003,77.461,595.003z"/>
						</g>
						<g>
							<path style="fill:#0A0E11;" d="M36.689,600.933c-0.883,0-1.715-0.344-2.34-0.968c-1.289-1.293-1.289-3.39,0-4.68
								c1.251-1.253,3.43-1.253,4.68,0c1.29,1.288,1.29,3.387,0,4.678l0,0c0,0,0,0,0,0.003l0,0
								C38.405,600.589,37.574,600.933,36.689,600.933z M36.689,595.003c-0.7,0-1.358,0.271-1.854,0.769
								c-1.02,1.021-1.02,2.683,0,3.707c0.992,0.989,2.718,0.989,3.707,0v-0.003c1.022-1.022,1.022-2.683,0-3.705
								C38.048,595.274,37.39,595.003,36.689,595.003z"/>
						</g>
						<g>
							<path style="fill:#0A0E11;" d="M46.882,600.933c-0.883,0-1.715-0.344-2.34-0.968c-1.289-1.293-1.289-3.39,0-4.68
								c1.25-1.253,3.43-1.253,4.68,0c1.29,1.288,1.29,3.387,0,4.678l0,0c0,0,0,0,0,0.003l0,0
								C48.598,600.589,47.767,600.933,46.882,600.933z M46.882,595.003c-0.7,0-1.358,0.271-1.854,0.769
								c-1.02,1.021-1.02,2.683,0,3.707c0.992,0.989,2.718,0.989,3.707,0v-0.003c1.022-1.022,1.022-2.683,0-3.705
								C48.241,595.274,47.583,595.003,46.882,595.003z"/>
						</g>
						<g>
							<path style="fill:#0A0E11;" d="M57.075,600.933c-0.883,0-1.715-0.344-2.34-0.968c-1.289-1.293-1.289-3.39,0-4.68
								c1.251-1.253,3.432-1.253,4.681,0c1.29,1.288,1.29,3.387,0,4.678l0,0c0,0,0,0,0,0.003l0,0
								C58.79,600.589,57.96,600.933,57.075,600.933z M57.075,595.003c-0.7,0-1.358,0.271-1.854,0.769
								c-1.02,1.021-1.02,2.683,0,3.707c0.992,0.989,2.718,0.989,3.707,0v-0.003c1.021-1.022,1.021-2.683,0-3.705
								C58.434,595.274,57.776,595.003,57.075,595.003z"/>
						</g>
						<g>
							<path style="fill:#0A0E11;" d="M108.04,600.933c-0.848,0-1.695-0.323-2.34-0.968c-1.29-1.29-1.29-3.393,0-4.683
								c1.29-1.29,3.39-1.29,4.68,0c1.289,1.293,1.289,3.39,0,4.68v0.003C109.735,600.611,108.888,600.933,108.04,600.933z
								 M108.04,595.003c-0.671,0-1.343,0.255-1.854,0.769c-1.022,1.021-1.022,2.683,0,3.705c1.022,1.027,2.686,1.027,3.707,0
								c1.02-1.022,1.02-2.683,0-3.707C109.383,595.258,108.711,595.003,108.04,595.003z"/>
						</g>
						<g>
							<path style="fill:#0A0E11;" d="M118.233,600.933c-0.884,0-1.715-0.344-2.34-0.971c-1.289-1.288-1.29-3.387,0-4.678
								c1.293-1.288,3.393-1.291,4.681-0.003c1.289,1.293,1.289,3.39,0,4.68v0.003C119.948,600.589,119.116,600.933,118.233,600.933
								z M118.233,595.003c-0.671,0-1.343,0.255-1.854,0.769c-1.022,1.021-1.022,2.686,0,3.705c0.989,0.995,2.715,0.992,3.707,0.003
								c1.02-1.024,1.02-2.686,0-3.71C119.576,595.258,118.904,595.003,118.233,595.003z"/>
						</g>
						<g>
							<path style="fill:#0A0E11;" d="M128.426,600.933c-0.884,0-1.715-0.344-2.34-0.971c-1.29-1.288-1.29-3.39,0-4.68
								c1.25-1.247,3.43-1.247,4.68,0c1.289,1.293,1.289,3.39,0,4.68v0.003C130.141,600.589,129.309,600.933,128.426,600.933z
								 M128.426,595.003c-0.7,0-1.359,0.271-1.854,0.766c-1.021,1.024-1.021,2.686,0,3.707c0.989,0.995,2.715,0.992,3.707,0.003
								c1.02-1.024,1.02-2.686,0-3.71C129.783,595.274,129.126,595.003,128.426,595.003z"/>
						</g>
						<g>
							<path style="fill:#0A0E11;" d="M87.654,600.933c-0.883,0-1.715-0.344-2.34-0.968c-1.289-1.293-1.289-3.39,0-4.68
								c1.293-1.288,3.393-1.291,4.68-0.003c1.289,1.293,1.289,3.39,0,4.68C89.369,600.589,88.539,600.933,87.654,600.933z
								 M87.654,595.003c-0.671,0-1.343,0.255-1.854,0.769c-1.02,1.021-1.02,2.683,0,3.707c0.992,0.989,2.718,0.989,3.707,0
								c1.02-1.024,1.02-2.686,0-3.71C88.997,595.258,88.325,595.003,87.654,595.003z"/>
						</g>
						<g>
							<path style="fill:#0A0E11;" d="M97.847,600.933c-0.848,0-1.695-0.323-2.34-0.968c-1.289-1.293-1.289-3.39,0-4.68
								c1.293-1.288,3.393-1.291,4.68-0.003c1.289,1.293,1.289,3.39,0,4.68v0.003C99.542,600.611,98.695,600.933,97.847,600.933z
								 M97.847,595.003c-0.671,0-1.343,0.255-1.854,0.769c-1.02,1.021-1.02,2.683,0,3.707c1.022,1.022,2.686,1.024,3.707-0.003
								c1.02-1.022,1.02-2.683,0-3.707C99.19,595.258,98.518,595.003,97.847,595.003z"/>
						</g>
					</g>
					<g>
						<g>
							<path style="fill:#0A0E11;" d="M69.365,599.721L69.365,599.721c-1.158,1.158-3.036,1.158-4.194,0l0,0
								c-1.158-1.158-1.158-3.036,0-4.194l0,0c1.158-1.158,3.035-1.158,4.194,0l0,0C70.523,596.685,70.523,598.563,69.365,599.721z"
								/>
						</g>
						<g>
							<path style="fill:#0A0E11;" d="M79.558,599.721L79.558,599.721c-1.158,1.158-3.036,1.158-4.194,0l0,0
								c-1.158-1.158-1.158-3.036,0-4.194v0c1.158-1.158,3.035-1.158,4.194,0l0,0C80.716,596.685,80.716,598.563,79.558,599.721z"/>
						</g>
						<g>
							<path style="fill:#0A0E11;" d="M38.787,599.721L38.787,599.721c-1.158,1.158-3.036,1.158-4.194,0l0,0
								c-1.158-1.158-1.158-3.036,0-4.194l0,0c1.158-1.158,3.036-1.158,4.194,0l0,0C39.945,596.685,39.945,598.562,38.787,599.721z"
								/>
						</g>
						<g>
							<path style="fill:#0A0E11;" d="M48.98,599.721L48.98,599.721c-1.158,1.158-3.036,1.158-4.194,0l0,0
								c-1.158-1.158-1.158-3.036,0-4.194l0,0c1.158-1.158,3.035-1.158,4.194,0l0,0C50.138,596.685,50.138,598.563,48.98,599.721z"
								/>
						</g>
						<g>
							<path style="fill:#0A0E11;" d="M59.172,599.721L59.172,599.721c-1.158,1.158-3.036,1.158-4.194,0l0,0
								c-1.158-1.158-1.158-3.036,0-4.194l0,0c1.158-1.158,3.036-1.158,4.194,0l0,0C60.33,596.685,60.33,598.563,59.172,599.721z"/>
						</g>
						<g>
							<path style="fill:#0A0E11;" d="M89.751,599.721L89.751,599.721c-1.158,1.158-3.036,1.158-4.194,0l0,0
								c-1.158-1.158-1.158-3.036,0-4.194l0,0c1.158-1.158,3.035-1.158,4.193,0l0,0C90.909,596.685,90.909,598.562,89.751,599.721z"
								/>
						</g>
					</g>
				</g>
			</g>
			<g>
				<g>
					<g>
						<g>
							<path style="fill:#0A0E11;" d="M67.268,460.966c-0.848,0-1.695-0.323-2.34-0.968c-1.289-1.293-1.289-3.39,0-4.68
								c1.293-1.29,3.393-1.29,4.68-0.003c1.289,1.293,1.289,3.39,0,4.68v0.003C68.963,460.644,68.116,460.966,67.268,460.966z
								 M67.268,455.036c-0.671,0-1.343,0.255-1.854,0.769c-1.02,1.021-1.02,2.683,0,3.707c1.022,1.022,2.686,1.024,3.707-0.003
								c1.02-1.022,1.02-2.683,0-3.707C68.611,455.291,67.939,455.036,67.268,455.036z"/>
						</g>
						<g>
							<path style="fill:#0A0E11;" d="M77.461,460.966c-0.848,0-1.695-0.323-2.34-0.968c-1.289-1.29-1.29-3.39,0-4.68
								c1.293-1.29,3.393-1.29,4.68-0.003c1.289,1.293,1.289,3.39,0,4.68v0.003C79.156,460.644,78.309,460.966,77.461,460.966z
								 M77.461,455.036c-0.671,0-1.343,0.255-1.854,0.769c-1.022,1.021-1.022,2.686,0,3.704c1.022,1.027,2.686,1.027,3.707,0
								c1.02-1.022,1.02-2.683,0-3.707C78.804,455.291,78.132,455.036,77.461,455.036z"/>
						</g>
						<g>
							<path style="fill:#0A0E11;" d="M36.689,460.966c-0.848,0-1.695-0.323-2.34-0.968c-1.289-1.293-1.289-3.39,0-4.68
								c1.293-1.29,3.393-1.29,4.68-0.003c1.29,1.29,1.29,3.393,0,4.683C38.384,460.644,37.538,460.966,36.689,460.966z
								 M36.689,455.036c-0.671,0-1.343,0.255-1.854,0.769c-1.02,1.021-1.02,2.683,0,3.707c1.021,1.022,2.686,1.024,3.707-0.003
								c1.022-1.022,1.022-2.683,0-3.704C38.032,455.291,37.36,455.036,36.689,455.036z"/>
						</g>
						<g>
							<path style="fill:#0A0E11;" d="M46.882,460.966c-0.883,0-1.715-0.344-2.34-0.968c-1.289-1.293-1.289-3.39,0-4.68
								c1.25-1.253,3.43-1.253,4.68,0c1.29,1.288,1.29,3.387,0,4.678l0,0c0,0,0,0,0,0.003l0,0
								C48.598,460.622,47.767,460.966,46.882,460.966z M46.882,455.036c-0.7,0-1.358,0.272-1.854,0.769
								c-1.02,1.021-1.02,2.683,0,3.707c0.992,0.989,2.718,0.989,3.707,0v-0.003c1.022-1.022,1.022-2.683,0-3.704
								C48.241,455.307,47.583,455.036,46.882,455.036z"/>
						</g>
						<g>
							<path style="fill:#0A0E11;" d="M57.075,460.966c-0.883,0-1.715-0.344-2.34-0.968c-1.289-1.293-1.289-3.39,0-4.68
								c1.293-1.29,3.393-1.29,4.681-0.003c1.289,1.293,1.289,3.393,0,4.68l0,0c0,0,0,0,0,0.003l0,0
								C58.79,460.622,57.96,460.966,57.075,460.966z M57.075,455.036c-0.671,0-1.343,0.255-1.854,0.769
								c-1.02,1.021-1.02,2.683,0,3.707c0.992,0.989,2.718,0.989,3.707,0v-0.003c1.021-1.019,1.021-2.683,0-3.707
								C58.418,455.291,57.746,455.036,57.075,455.036z"/>
						</g>
						<g>
							<path style="fill:#0A0E11;" d="M108.04,460.966c-0.884,0-1.715-0.344-2.34-0.97c-1.29-1.288-1.29-3.39,0-4.68
								c1.249-1.247,3.429-1.247,4.68,0c1.289,1.293,1.289,3.39,0,4.68v0.003C109.755,460.622,108.923,460.966,108.04,460.966z
								 M108.04,455.036c-0.7,0-1.359,0.272-1.854,0.766c-1.022,1.024-1.022,2.686,0,3.707c0.989,0.995,2.715,0.992,3.707,0.003
								c1.02-1.024,1.02-2.686,0-3.71C109.398,455.307,108.74,455.036,108.04,455.036z"/>
						</g>
						<g>
							<path style="fill:#0A0E11;" d="M118.233,460.966c-0.884,0-1.715-0.344-2.34-0.97c-1.29-1.288-1.29-3.39,0-4.68
								c1.249-1.247,3.429-1.247,4.681,0c1.289,1.293,1.289,3.39,0,4.68v0.003C119.948,460.622,119.116,460.966,118.233,460.966z
								 M118.233,455.036c-0.7,0-1.359,0.272-1.854,0.766c-1.022,1.024-1.022,2.686,0,3.707c0.989,0.995,2.715,0.992,3.707,0.003
								c1.02-1.024,1.02-2.686,0-3.71C119.591,455.307,118.933,455.036,118.233,455.036z"/>
						</g>
						<g>
							<path style="fill:#0A0E11;" d="M128.426,460.966c-0.884,0-1.715-0.344-2.34-0.97c-1.29-1.288-1.29-3.39,0-4.68
								c1.25-1.247,3.43-1.247,4.68,0c1.289,1.293,1.289,3.39,0,4.68v0.003C130.141,460.622,129.309,460.966,128.426,460.966z
								 M128.426,455.036c-0.7,0-1.359,0.272-1.854,0.766c-1.021,1.024-1.021,2.686,0,3.707c0.989,0.995,2.715,0.992,3.707,0.003
								c1.02-1.024,1.02-2.686,0-3.71C129.783,455.307,129.126,455.036,128.426,455.036z"/>
						</g>
						<g>
							<path style="fill:#0A0E11;" d="M87.654,460.966c-0.848,0-1.695-0.323-2.34-0.968c-1.289-1.293-1.289-3.39,0-4.68
								c1.293-1.29,3.393-1.29,4.68-0.003c1.289,1.293,1.289,3.39,0,4.68v0.003C89.349,460.644,88.502,460.966,87.654,460.966z
								 M87.654,455.036c-0.671,0-1.343,0.255-1.854,0.769c-1.02,1.021-1.02,2.683,0,3.707c1.022,1.022,2.686,1.024,3.707-0.003
								c1.02-1.022,1.02-2.683,0-3.707C88.997,455.291,88.325,455.036,87.654,455.036z"/>
						</g>
						<g>
							<path style="fill:#0A0E11;" d="M97.847,460.966c-0.884,0-1.715-0.344-2.34-0.97c-1.291-1.288-1.291-3.39,0-4.68
								c1.249-1.247,3.429-1.247,4.68,0c1.289,1.293,1.289,3.39,0,4.68v0.003C99.562,460.622,98.73,460.966,97.847,460.966z
								 M97.847,455.036c-0.7,0-1.359,0.272-1.854,0.766c-1.021,1.024-1.021,2.686,0,3.707c0.989,0.995,2.715,0.992,3.707,0.003
								c1.02-1.024,1.02-2.686,0-3.71C99.205,455.307,98.547,455.036,97.847,455.036z"/>
						</g>
					</g>
					<g>
						<g>
							<path style="fill:#0A0E11;" d="M69.365,459.753L69.365,459.753c-1.158,1.158-3.036,1.158-4.194,0l0,0
								c-1.158-1.158-1.158-3.036,0-4.194l0,0c1.158-1.158,3.036-1.158,4.194,0l0,0C70.523,456.718,70.523,458.595,69.365,459.753z"
								/>
						</g>
						<g>
							<path style="fill:#0A0E11;" d="M79.558,459.753L79.558,459.753c-1.158,1.158-3.036,1.158-4.194,0l0,0
								c-1.158-1.158-1.158-3.036,0-4.194l0,0c1.158-1.158,3.035-1.158,4.194,0l0,0C80.716,456.718,80.716,458.595,79.558,459.753z"
								/>
						</g>
						<g>
							<path style="fill:#0A0E11;" d="M38.786,459.753L38.786,459.753c-1.158,1.158-3.036,1.158-4.194,0l0,0
								c-1.158-1.158-1.158-3.035,0-4.193l0,0c1.158-1.158,3.036-1.158,4.194,0l0,0C39.944,456.718,39.944,458.595,38.786,459.753z"
								/>
						</g>
						<g>
							<path style="fill:#0A0E11;" d="M48.979,459.753L48.979,459.753c-1.158,1.158-3.036,1.158-4.194,0l0,0
								c-1.158-1.158-1.158-3.036,0-4.194l0,0c1.158-1.158,3.035-1.158,4.194,0l0,0C50.137,456.718,50.137,458.595,48.979,459.753z"
								/>
						</g>
						<g>
							<path style="fill:#0A0E11;" d="M59.172,459.753L59.172,459.753c-1.158,1.158-3.036,1.158-4.194,0l0,0
								c-1.158-1.158-1.158-3.036,0-4.194l0,0c1.158-1.158,3.035-1.158,4.194,0h0C60.33,456.718,60.33,458.595,59.172,459.753z"/>
						</g>
						<g>
							<path style="fill:#0A0E11;" d="M110.136,459.753L110.136,459.753c-1.158,1.158-3.036,1.158-4.194,0l0,0
								c-1.158-1.158-1.158-3.035,0-4.193l0,0c1.158-1.158,3.035-1.158,4.194,0l0,0
								C111.295,456.718,111.295,458.595,110.136,459.753z"/>
						</g>
						<g>
							<path style="fill:#0A0E11;" d="M89.751,459.753L89.751,459.753c-1.158,1.158-3.036,1.158-4.194,0l0,0
								c-1.158-1.158-1.158-3.035,0-4.193l0,0c1.158-1.158,3.035-1.158,4.193,0l0,0C90.909,456.718,90.909,458.595,89.751,459.753z"
								/>
						</g>
						<g>
							<path style="fill:#0A0E11;" d="M99.944,459.753L99.944,459.753c-1.158,1.158-3.036,1.158-4.194,0l0,0
								c-1.158-1.158-1.158-3.035,0-4.193l0,0c1.158-1.158,3.036-1.158,4.194,0h0C101.102,456.718,101.102,458.595,99.944,459.753z"
								/>
						</g>
					</g>
				</g>
				
					<text id="XMLID_246_" transform="matrix(1 0 0 1 32.4961 446.0248)" style="fill:#0A0E11; font-family:'Montserrat-LightItalic'; font-size:16.5173px; letter-spacing:-1;">Creative</text>
			</g>
			<g>
				<g>
					<g>
						<g>
							<path style="fill:#0A0E11;" d="M67.268,647.587c-0.847,0-1.695-0.323-2.34-0.965c-0.625-0.626-0.969-1.457-0.969-2.342
								c0-0.884,0.344-1.715,0.969-2.342c1.293-1.29,3.393-1.288,4.68,0c0.625,0.626,0.969,1.457,0.969,2.342
								c0,0.885-0.344,1.715-0.969,2.339v0.003C68.963,647.265,68.115,647.587,67.268,647.587z M67.268,641.659
								c-0.671,0-1.343,0.255-1.854,0.769c-0.495,0.492-0.768,1.151-0.768,1.852c0,0.699,0.273,1.358,0.768,1.855
								c1.022,1.016,2.686,1.019,3.707-0.003l0,0c0.495-0.495,0.768-1.153,0.768-1.852c0-0.702-0.273-1.36-0.768-1.852
								C68.611,641.915,67.939,641.659,67.268,641.659z"/>
						</g>
						<g>
							<path style="fill:#0A0E11;" d="M77.461,647.587c-0.847,0-1.695-0.323-2.34-0.965c-0.625-0.626-0.969-1.457-0.969-2.342
								c0-0.884,0.344-1.715,0.969-2.342c1.293-1.29,3.393-1.288,4.68,0c0.625,0.626,0.969,1.457,0.969,2.342
								c0,0.885-0.344,1.715-0.969,2.339v0.003C79.156,647.265,78.308,647.587,77.461,647.587z M77.461,641.659
								c-0.671,0-1.343,0.255-1.854,0.769c-0.495,0.492-0.768,1.151-0.768,1.852c0,0.699,0.273,1.358,0.768,1.855
								c1.022,1.016,2.686,1.019,3.707-0.003l0,0c0.495-0.495,0.768-1.153,0.768-1.852c0-0.702-0.273-1.36-0.768-1.852
								C78.804,641.915,78.132,641.659,77.461,641.659z"/>
						</g>
						<g>
							<path style="fill:#0A0E11;" d="M36.689,647.587c-0.847,0-1.695-0.323-2.34-0.965c-0.625-0.626-0.969-1.457-0.969-2.342
								c0-0.884,0.344-1.715,0.969-2.342c1.293-1.29,3.393-1.288,4.68,0c0.625,0.624,0.969,1.454,0.969,2.339
								c0.001,0.885-0.343,1.718-0.969,2.344l0,0C38.384,647.265,37.536,647.587,36.689,647.587z M36.689,641.659
								c-0.671,0-1.343,0.255-1.854,0.769c-0.495,0.492-0.768,1.151-0.768,1.852c0,0.699,0.273,1.358,0.768,1.855
								c1.021,1.016,2.686,1.019,3.707-0.003l0,0c0.496-0.495,0.769-1.153,0.767-1.855c0-0.699-0.273-1.358-0.767-1.85
								C38.032,641.915,37.36,641.659,36.689,641.659z"/>
						</g>
						<g>
							<path style="fill:#0A0E11;" d="M46.882,647.587c-0.847,0-1.695-0.323-2.34-0.965c-0.625-0.626-0.969-1.457-0.969-2.342
								c0-0.884,0.344-1.715,0.969-2.342c1.25-1.247,3.43-1.25,4.68,0.003c0.625,0.621,0.969,1.452,0.969,2.336
								c0.001,0.885-0.343,1.718-0.969,2.344l0,0C48.577,647.265,47.731,647.587,46.882,647.587z M46.882,641.659
								c-0.7,0-1.358,0.272-1.854,0.769c-0.495,0.492-0.767,1.151-0.767,1.852c0,0.699,0.273,1.358,0.767,1.855
								c1.023,1.016,2.687,1.019,3.707-0.003c0.496-0.495,0.769-1.153,0.768-1.855c0-0.699-0.273-1.358-0.768-1.85
								C48.241,641.931,47.583,641.659,46.882,641.659z"/>
						</g>
						<g>
							<path style="fill:#0A0E11;" d="M57.075,647.587c-0.847,0-1.695-0.323-2.34-0.965c-0.625-0.626-0.969-1.457-0.969-2.342
								c0-0.884,0.344-1.715,0.969-2.342c1.251-1.247,3.432-1.25,4.681,0.003c0.625,0.621,0.969,1.452,0.969,2.336
								c0.001,0.885-0.343,1.718-0.969,2.344l0,0C58.77,647.265,57.922,647.587,57.075,647.587z M57.075,641.659
								c-0.7,0-1.358,0.272-1.854,0.769c-0.495,0.492-0.767,1.151-0.767,1.852c0,0.699,0.273,1.358,0.767,1.855
								c1.022,1.016,2.686,1.019,3.707-0.003l0,0c0.496-0.495,0.769-1.153,0.767-1.855c0-0.699-0.273-1.358-0.767-1.85
								C58.434,641.931,57.776,641.659,57.075,641.659z"/>
						</g>
						<g>
							<path style="fill:#0A0E11;" d="M108.04,647.587c-0.848,0-1.695-0.323-2.34-0.965c-0.626-0.626-0.97-1.46-0.969-2.344
								c0-0.885,0.344-1.715,0.969-2.339c1.249-1.247,3.429-1.247,4.68,0c0.625,0.626,0.969,1.457,0.969,2.342
								c0,0.885-0.344,1.715-0.969,2.339v0.003C109.735,647.265,108.887,647.587,108.04,647.587z M108.04,641.659
								c-0.7,0-1.359,0.272-1.854,0.766c-0.495,0.495-0.768,1.153-0.768,1.852c-0.001,0.702,0.271,1.36,0.768,1.855
								c1.02,1.022,2.684,1.022,3.707,0l0,0c0.495-0.495,0.768-1.153,0.768-1.852c0-0.702-0.273-1.36-0.768-1.852
								C109.398,641.931,108.74,641.659,108.04,641.659z"/>
						</g>
						<g>
							<path style="fill:#0A0E11;" d="M118.233,647.587c-0.847,0-1.695-0.323-2.34-0.965c-0.626-0.626-0.97-1.46-0.969-2.344
								c0-0.885,0.344-1.715,0.969-2.339c1.249-1.247,3.429-1.247,4.681,0c0.625,0.626,0.969,1.457,0.969,2.342
								c0,0.885-0.344,1.715-0.969,2.339v0.003C119.928,647.265,119.08,647.587,118.233,647.587z M118.233,641.659
								c-0.7,0-1.359,0.272-1.854,0.766c-0.495,0.495-0.768,1.153-0.768,1.852c-0.001,0.702,0.272,1.36,0.768,1.855
								c1.022,1.022,2.686,1.022,3.707,0l0,0c0.495-0.495,0.768-1.153,0.768-1.852c0-0.702-0.273-1.36-0.768-1.852
								C119.591,641.931,118.933,641.659,118.233,641.659z"/>
						</g>
						<g>
							<path style="fill:#0A0E11;" d="M128.426,647.587c-0.848,0-1.695-0.323-2.34-0.965c-0.626-0.626-0.97-1.46-0.969-2.344
								c0-0.885,0.344-1.715,0.969-2.339c1.25-1.247,3.43-1.247,4.68,0c0.625,0.626,0.969,1.457,0.969,2.342
								c0,0.885-0.344,1.715-0.969,2.339v0.003C130.121,647.265,129.273,647.587,128.426,647.587z M128.426,641.659
								c-0.7,0-1.359,0.272-1.854,0.766c-0.495,0.495-0.768,1.153-0.768,1.852c-0.001,0.702,0.271,1.36,0.768,1.855
								c1.02,1.022,2.684,1.022,3.707,0l0,0c0.495-0.495,0.768-1.153,0.768-1.852c0-0.702-0.273-1.36-0.768-1.852
								C129.783,641.931,129.126,641.659,128.426,641.659z"/>
						</g>
						<g>
							<path style="fill:#0A0E11;" d="M87.654,647.587c-0.847,0-1.695-0.323-2.34-0.965c-0.625-0.626-0.969-1.457-0.969-2.342
								c0-0.884,0.344-1.715,0.969-2.342c1.293-1.29,3.393-1.288,4.68,0c0.625,0.626,0.969,1.457,0.969,2.342
								c0,0.885-0.344,1.715-0.969,2.339v0.003C89.349,647.265,88.501,647.587,87.654,647.587z M87.654,641.659
								c-0.671,0-1.343,0.255-1.854,0.769c-0.495,0.492-0.768,1.151-0.768,1.852c0,0.699,0.273,1.358,0.768,1.855
								c1.022,1.016,2.686,1.019,3.707-0.003l0,0c0.495-0.495,0.768-1.153,0.768-1.852c0-0.702-0.273-1.36-0.768-1.852
								C88.997,641.915,88.325,641.659,87.654,641.659z"/>
						</g>
						<g>
							<path style="fill:#0A0E11;" d="M97.847,647.587c-0.848,0-1.695-0.323-2.34-0.965c-0.626-0.626-0.971-1.46-0.969-2.344
								c0-0.885,0.344-1.715,0.969-2.339c1.249-1.247,3.429-1.247,4.68,0c0.625,0.626,0.969,1.457,0.969,2.342
								c0,0.885-0.344,1.715-0.969,2.339v0.003C99.542,647.265,98.694,647.587,97.847,647.587z M97.847,641.659
								c-0.7,0-1.359,0.272-1.854,0.766c-0.495,0.495-0.767,1.153-0.767,1.852c-0.001,0.702,0.271,1.36,0.767,1.855
								c1.02,1.022,2.684,1.022,3.707,0l0,0c0.495-0.495,0.767-1.153,0.767-1.852c0-0.702-0.273-1.36-0.767-1.852
								C99.205,641.931,98.547,641.659,97.847,641.659z"/>
						</g>
					</g>
					<g>
						<g>
							<path style="fill:#0A0E11;" d="M69.365,646.376L69.365,646.376c-1.158,1.158-3.035,1.158-4.194,0h0
								c-1.158-1.158-1.158-3.036,0-4.194h0c1.158-1.158,3.036-1.158,4.194,0l0,0C70.523,643.341,70.523,645.218,69.365,646.376z"/>
						</g>
						<g>
							<path style="fill:#0A0E11;" d="M79.558,646.376L79.558,646.376c-1.158,1.158-3.036,1.158-4.194,0l0,0
								c-1.158-1.158-1.158-3.035,0-4.193l0,0c1.158-1.158,3.036-1.158,4.194,0l0,0C80.716,643.341,80.716,645.218,79.558,646.376z"
								/>
						</g>
						<g>
							<path style="fill:#0A0E11;" d="M38.786,646.376L38.786,646.376c-1.158,1.158-3.035,1.158-4.194,0l0,0
								c-1.158-1.158-1.158-3.035,0-4.193l0,0c1.158-1.158,3.036-1.158,4.194,0h0C39.944,643.341,39.944,645.218,38.786,646.376z"/>
						</g>
						<g>
							<path style="fill:#0A0E11;" d="M48.979,646.376L48.979,646.376c-1.158,1.158-3.036,1.158-4.194,0h0
								c-1.158-1.158-1.158-3.036,0-4.194l0,0c1.158-1.158,3.036-1.158,4.194,0l0,0C50.137,643.341,50.137,645.218,48.979,646.376z"
								/>
						</g>
						<g>
							<path style="fill:#0A0E11;" d="M59.172,646.376L59.172,646.376c-1.158,1.158-3.036,1.158-4.194,0h0
								c-1.158-1.158-1.158-3.036,0-4.194h0c1.158-1.158,3.036-1.158,4.194,0l0,0C60.33,643.341,60.33,645.218,59.172,646.376z"/>
						</g>
						<g>
							<path style="fill:#0A0E11;" d="M89.751,646.376L89.751,646.376c-1.158,1.158-3.035,1.158-4.193,0l0,0
								c-1.158-1.158-1.158-3.035,0-4.193v0c1.158-1.158,3.036-1.158,4.194,0h0C90.909,643.341,90.909,645.218,89.751,646.376z"/>
						</g>
						<g>
							<path style="fill:#0A0E11;" d="M99.944,646.376L99.944,646.376c-1.158,1.158-3.036,1.158-4.194,0v0
								c-1.158-1.158-1.158-3.035,0-4.193l0,0c1.158-1.158,3.036-1.158,4.194,0l0,0C101.102,643.341,101.102,645.218,99.944,646.376
								z"/>
						</g>
					</g>
				</g>
				
					<text id="XMLID_169_" transform="matrix(1 0 0 1 32.6563 632.6478)" style="fill:#0A0E11; font-family:'Montserrat-LightItalic'; font-size:16.5173px; letter-spacing:-1;">Innovative</text>
			</g>
			<g>
				<g id="XMLID_269_">
					
						<text transform="matrix(1 0 0 1 32.4951 413.3109)" style="fill:#0A0E11; font-family:'MontserratAlternates-Italic'; font-size:24.776px; letter-spacing:-1;">Personal</text>
				</g>
				<rect x="145.128" y="407.438" style="fill:#FFD000;" width="78.659" height="5.875"/>
			</g>
		</g>
		<g>
			<g>
				<g>
					
						<ellipse transform="matrix(0.3779 -0.9258 0.9258 0.3779 -586.8469 652.5098)" style="fill:#FFD000;" cx="192.134" cy="762.95" rx="20.643" ry="20.643"/>
					<g>
						<path style="fill:#0A0E11;" d="M192.133,784.968c-12.141,0-22.018-9.877-22.018-22.018c0-12.143,9.877-22.02,22.018-22.02
							c3.063,0,6.042,0.626,8.853,1.858l-1.105,2.522c-2.46-1.078-5.068-1.626-7.748-1.626c-10.623,0-19.265,8.643-19.265,19.267
							c0,10.622,8.642,19.265,19.265,19.265c10.624,0,19.268-8.643,19.268-19.265h2.753
							C214.154,775.091,204.275,784.968,192.133,784.968z"/>
					</g>
				</g>
				<g id="XMLID_171_">
					
						<text transform="matrix(1 0 0 1 178.1411 766.1849)" style="fill:#0A0E11; font-family:'Montserrat-Italic'; font-size:11.0115px;">Skill 3</text>
				</g>
			</g>
			<g>
				<g>
					<circle style="fill:#FFD000;" cx="50.781" cy="762.95" r="20.643"/>
					<g>
						<path style="fill:#0A0E11;" d="M50.78,784.968c-12.141,0-22.018-9.877-22.018-22.018c0-9.799,6.583-18.509,16.009-21.184
							l0.75,2.651c-8.247,2.339-14.006,9.96-14.006,18.534c0,10.622,8.642,19.265,19.265,19.265
							c10.625,0,19.268-8.643,19.268-19.265h2.753C72.801,775.091,62.922,784.968,50.78,784.968z"/>
					</g>
				</g>
				<g id="XMLID_174_">
					
						<text transform="matrix(1 0 0 1 38.1182 766.1849)" style="fill:#0A0E11; font-family:'Montserrat-Italic'; font-size:11.0115px;">Skill 1</text>
				</g>
			</g>
			<g>
				<g>
					<circle style="fill:#FFD000;" cx="121.724" cy="762.95" r="20.643"/>
					<g>
						<path style="fill:#0A0E11;" d="M121.724,784.968c-12.142,0-22.019-9.877-22.019-22.018c0-6.802,3.222-13.334,8.619-17.472
							l1.675,2.183c-4.722,3.621-7.541,9.337-7.541,15.289c0,10.622,8.643,19.265,19.266,19.265s19.266-8.643,19.266-19.265h2.753
							C143.743,775.091,133.866,784.968,121.724,784.968z"/>
					</g>
				</g>
				<g id="XMLID_173_">
					
						<text transform="matrix(1 0 0 1 107.8643 766.1849)" style="fill:#0A0E11; font-family:'Montserrat-Italic'; font-size:11.0115px;">Skill 2</text>
				</g>
			</g>
			<g>
				<g id="XMLID_55_">
					
						<text transform="matrix(1 0 0 1 28.7549 716.7533)" style="fill:#0A0E11; font-family:'MontserratAlternates-Italic'; font-size:24.776px; letter-spacing:-1;">Skills</text>
				</g>
				<rect x="100.812" y="709.791" style="fill:#FFD000;" width="122.975" height="5.875"/>
			</g>
		</g>
		<g>
			<rect x="285.801" y="336.635" style="fill:#202020;" width="1.376" height="461.875"/>
		</g>
		<g>
			<g id="XMLID_230_">
				
					<text transform="matrix(1 0 0 1 306.7505 346.3461)" style="fill:#0A0E11; font-family:'MontserratAlternates-Italic'; font-size:24.776px; letter-spacing:-1;">Education</text>
			</g>
			<g>
				<g id="XMLID_224_">
					
						<rect id="XMLID_00000090285382155405819670000016235321231899241401_" x="357.329" y="385.805" style="fill:none;" width="209.192" height="40.459"/>
					<text transform="matrix(1 0 0 1 357.3286 393.9198)"><tspan x="0" y="0" style="fill:#202020; font-family:'Lato-Regular'; font-size:11.0115px;">Dolor sit amet, consectetur adipiscing elit, </tspan><tspan x="0" y="13.214" style="fill:#202020; font-family:'Lato-Regular'; font-size:11.0115px;">sed do eiusmod tempor incididunt ut labore</tspan></text>
				</g>
				<g id="XMLID_222_">
					
						<text transform="matrix(1 0 0 1 357.3286 377.3959)" style="fill:#202020; font-family:'MontserratAlternates-MediumItalic'; font-size:13.7644px;">Your Title Here</text>
				</g>
				<g>
					
						<text transform="matrix(1 0 0 1 306.7505 378.0336)" style="fill:#202020; font-family:'MontserratAlternates-MediumItalic'; font-size:13.7644px; letter-spacing:1;">2012</text>
				</g>
			</g>
			<g>
				<g id="XMLID_211_">
					
						<rect id="XMLID_00000000208058687044868900000011469305463705852589_" x="357.327" y="450.939" style="fill:none;" width="209.192" height="40.459"/>
					<text transform="matrix(1 0 0 1 357.3267 459.0541)"><tspan x="0" y="0" style="fill:#202020; font-family:'Lato-Regular'; font-size:11.0115px;">Dolor sit amet, consectetur adipiscing elit, </tspan><tspan x="0" y="13.214" style="fill:#202020; font-family:'Lato-Regular'; font-size:11.0115px;">sed do eiusmod tempor incididunt ut labore</tspan></text>
				</g>
				<g id="XMLID_29_">
					
						<text transform="matrix(1 0 0 1 357.3286 442.5306)" style="fill:#202020; font-family:'MontserratAlternates-MediumItalic'; font-size:13.7644px;">Your Title Here</text>
				</g>
				<g>
					
						<text transform="matrix(1 0 0 1 306.7486 443.1683)" style="fill:#202020; font-family:'MontserratAlternates-MediumItalic'; font-size:13.7644px; letter-spacing:1;">2014</text>
				</g>
			</g>
			<g>
				<g id="XMLID_215_">
					
						<rect id="XMLID_00000097493882279262484110000002457747663278301851_" x="357.33" y="516.074" style="fill:none;" width="209.192" height="40.46"/>
					<text transform="matrix(1 0 0 1 357.3286 524.1888)"><tspan x="0" y="0" style="fill:#202020; font-family:'Lato-Regular'; font-size:11.0115px;">Dolor sit amet, consectetur adipiscing elit, </tspan><tspan x="0" y="13.214" style="fill:#202020; font-family:'Lato-Regular'; font-size:11.0115px;">sed do eiusmod tempor incididunt ut labore</tspan></text>
				</g>
				<g id="XMLID_205_">
					
						<text transform="matrix(1 0 0 1 357.3306 507.6654)" style="fill:#202020; font-family:'MontserratAlternates-MediumItalic'; font-size:13.7644px;">Your Title Here</text>
				</g>
				<g>
					
						<text transform="matrix(1 0 0 1 306.7505 508.3021)" style="fill:#202020; font-family:'MontserratAlternates-MediumItalic'; font-size:13.7644px; letter-spacing:1;">2016</text>
				</g>
			</g>
			<path style="fill:#FFD000;" d="M292.555,336.635c0,3.35-2.716,6.066-6.066,6.066c-3.35,0-6.066-2.716-6.066-6.066
				c0-3.35,2.716-6.066,6.066-6.066C289.84,330.57,292.555,333.285,292.555,336.635z"/>
		</g>
		<g>
			<g id="XMLID_276_">
				
					<text transform="matrix(1 0 0 1 306.1822 604.2338)" style="fill:#0A0E11; font-family:'MontserratAlternates-Italic'; font-size:24.776px; letter-spacing:-1;">Experiences</text>
			</g>
			<rect x="306.184" y="629.41" style="fill:#FFD000;" width="70.13" height="5.875"/>
			<g id="XMLID_268_">
				
					<rect id="XMLID_00000103976758894446577390000000699285389881268112_" x="306.752" y="643.693" style="fill:none;" width="259.767" height="33.654"/>
				<text transform="matrix(1 0 0 1 306.7525 651.808)"><tspan x="0" y="0" style="fill:#202020; font-family:'Lato-Regular'; font-size:11.0115px;">Dolor sit amet, consectetur adipiscing elit, sed do </tspan><tspan x="0" y="13.214" style="fill:#202020; font-family:'Lato-Regular'; font-size:11.0115px;">eiusmod tempor incididunt ut labore</tspan></text>
			</g>
			<g id="XMLID_264_">
				
					<text transform="matrix(1 0 0 1 396.399 635.2845)" style="fill:#202020; font-family:'MontserratAlternates-MediumItalic'; font-size:13.7644px;">Your Title Here</text>
			</g>
			<g id="XMLID_137_">
				
					<text transform="matrix(1 0 0 1 306.7505 635.2845)" style="fill:#202020; font-family:'MontserratAlternates-MediumItalic'; font-size:13.7644px;">2014 - 2016</text>
			</g>
			<g>
				<rect x="306.184" y="691.006" style="fill:#FFD000;" width="69.356" height="5.875"/>
				<g id="XMLID_243_">
					
						<rect id="XMLID_00000100367539609463319290000014978980297426179775_" x="306.752" y="705.289" style="fill:none;" width="259.767" height="33.654"/>
					<text transform="matrix(1 0 0 1 306.7525 713.4056)"><tspan x="0" y="0" style="fill:#202020; font-family:'Lato-Regular'; font-size:11.0115px;">Dolor sit amet, consectetur adipiscing elit, sed do </tspan><tspan x="0" y="13.214" style="fill:#202020; font-family:'Lato-Regular'; font-size:11.0115px;">eiusmod tempor incididunt ut labore</tspan></text>
				</g>
				<g id="XMLID_239_">
					
						<text transform="matrix(1 0 0 1 396.399 696.8783)" style="fill:#202020; font-family:'MontserratAlternates-MediumItalic'; font-size:13.7644px;">Your Title Here</text>
				</g>
				<g id="XMLID_216_">
					
						<text transform="matrix(1 0 0 1 306.7505 696.8783)" style="fill:#202020; font-family:'MontserratAlternates-MediumItalic'; font-size:13.7644px;">2016 - 2017</text>
				</g>
			</g>
			<g>
				<rect x="306.184" y="752.602" style="fill:#FFD000;" width="73.092" height="5.875"/>
				<g id="XMLID_278_">
					
						<rect id="XMLID_00000031890365132872778640000016060186555491732139_" x="306.752" y="766.885" style="fill:none;" width="259.767" height="33.654"/>
					<text transform="matrix(1 0 0 1 306.7525 774.9994)"><tspan x="0" y="0" style="fill:#202020; font-family:'Lato-Regular'; font-size:11.0115px;">Dolor sit amet, consectetur adipiscing elit, sed do </tspan><tspan x="0" y="13.214" style="fill:#202020; font-family:'Lato-Regular'; font-size:11.0115px;">eiusmod tempor incididunt ut labore</tspan></text>
				</g>
				<g id="XMLID_273_">
					
						<text transform="matrix(1 0 0 1 396.399 758.476)" style="fill:#202020; font-family:'MontserratAlternates-MediumItalic'; font-size:13.7644px;">Your Title Here</text>
				</g>
				<g id="XMLID_238_">
					
						<text transform="matrix(1 0 0 1 306.7505 758.476)" style="fill:#202020; font-family:'MontserratAlternates-MediumItalic'; font-size:13.7644px;">2018 - 2020</text>
				</g>
			</g>
			<path style="fill:#FFD000;" d="M292.555,594.524c0,3.35-2.716,6.066-6.066,6.066c-3.35,0-6.066-2.716-6.066-6.066
				c0-3.35,2.716-6.066,6.066-6.066C289.84,588.458,292.555,591.174,292.555,594.524z"/>
		</g>
	</g>
</g>
</svg>
