<?xml version="1.0" encoding="utf-8"?>
<!-- Generator: Adobe Illustrator 27.5.0, SVG Export Plug-In . SVG Version: 6.00 Build 0)  -->
<svg version="1.1" id="PRINT" xmlns="http://www.w3.org/2000/svg" xmlns:xlink="http://www.w3.org/1999/xlink" x="0px" y="0px"
	 viewBox="0 0 419.528 595.276" style="enable-background:new 0 0 419.528 595.276;" xml:space="preserve">
<g>
	<rect x="-14.146" y="-14.234" style="fill:#EFEFEF;" width="447.999" height="623.74"/>
	<rect x="-14.226" y="-14.154" style="fill:#C8CECA;" width="447.91" height="145.702"/>
</g>
<g>
	<g>
		<g>
			<g>
				<g>
					
						<text transform="matrix(1 0 0 1 338.8422 101.2809)" style="fill:#383533; font-family:'Gilroy-Light'; font-size:7px; letter-spacing:1;">@andrews</text>
				</g>
				<g>
					
						<text transform="matrix(1 0 0 1 327.3344 117.2262)" style="fill:#383533; font-family:'Gilroy-Light'; font-size:7px; letter-spacing:1;">andrewsmith</text>
				</g>
				
					<text transform="matrix(1 0 0 1 295.7924 85.3852)" style="fill:#383533; font-family:'Gilroy-Light'; font-size:7px; letter-spacing:1;">andrews@gmail.com</text>
			</g>
		</g>
		<g>
			<g>
				<g>
					<path style="fill:#383533;" d="M394.916,96.702c-1.235,0-2.237,1.002-2.237,2.237c0,1.235,1.001,2.237,2.237,2.237
						c1.235,0,2.237-1.001,2.237-2.237C397.153,97.703,396.151,96.702,394.916,96.702z M394.916,100.391
						c-0.802,0-1.452-0.65-1.452-1.452c0-0.802,0.65-1.452,1.452-1.452c0.802,0,1.452,0.65,1.452,1.452
						C396.368,99.74,395.718,100.391,394.916,100.391z"/>
					<path style="fill:#383533;" d="M397.241,96.091c-0.289,0-0.523,0.234-0.523,0.523c0,0.289,0.234,0.523,0.523,0.523
						s0.523-0.234,0.523-0.523C397.764,96.325,397.53,96.091,397.241,96.091z"/>
					<path style="fill:#383533;" d="M399.245,97.143c-0.021-0.464-0.095-0.78-0.202-1.057c-0.111-0.286-0.26-0.529-0.502-0.772
						c-0.242-0.242-0.485-0.391-0.772-0.502c-0.277-0.108-0.594-0.181-1.057-0.203c-0.465-0.021-0.613-0.026-1.796-0.026
						c-1.183,0-1.331,0.005-1.796,0.026c-0.464,0.021-0.78,0.095-1.057,0.203c-0.286,0.111-0.529,0.26-0.771,0.502
						c-0.242,0.242-0.391,0.485-0.502,0.772c-0.108,0.277-0.182,0.594-0.203,1.057c-0.021,0.465-0.026,0.613-0.026,1.796
						c0,1.183,0.005,1.331,0.026,1.796c0.021,0.464,0.095,0.78,0.203,1.057c0.111,0.286,0.26,0.529,0.502,0.771
						c0.242,0.242,0.485,0.391,0.771,0.503c0.277,0.108,0.594,0.181,1.057,0.203c0.464,0.021,0.613,0.026,1.796,0.026
						c1.183,0,1.331-0.005,1.796-0.026c0.464-0.021,0.78-0.095,1.057-0.203c0.287-0.111,0.53-0.26,0.772-0.503
						c0.242-0.242,0.391-0.485,0.502-0.771c0.108-0.277,0.181-0.594,0.202-1.057c0.021-0.464,0.026-0.613,0.026-1.796
						C399.271,97.756,399.267,97.607,399.245,97.143z M398.461,100.699c-0.019,0.425-0.09,0.656-0.15,0.809
						c-0.079,0.203-0.173,0.348-0.326,0.501c-0.152,0.152-0.298,0.247-0.501,0.326c-0.154,0.06-0.384,0.131-0.809,0.15
						c-0.459,0.021-0.597,0.025-1.76,0.025c-1.163,0-1.301-0.004-1.76-0.025c-0.425-0.019-0.655-0.09-0.809-0.15
						c-0.203-0.079-0.349-0.173-0.501-0.326c-0.153-0.152-0.247-0.297-0.326-0.501c-0.06-0.153-0.13-0.384-0.15-0.809
						c-0.021-0.459-0.025-0.597-0.025-1.76c0-1.163,0.004-1.301,0.025-1.76c0.02-0.425,0.09-0.655,0.15-0.809
						c0.079-0.203,0.173-0.348,0.326-0.501c0.152-0.152,0.297-0.247,0.501-0.326c0.154-0.06,0.384-0.131,0.809-0.15
						c0.459-0.021,0.597-0.025,1.76-0.025c1.163,0,1.301,0.004,1.76,0.025c0.425,0.02,0.655,0.09,0.809,0.15
						c0.203,0.079,0.348,0.173,0.501,0.326c0.152,0.153,0.247,0.297,0.326,0.501c0.06,0.153,0.131,0.384,0.15,0.809
						c0.021,0.459,0.025,0.597,0.025,1.76C398.487,100.102,398.482,100.24,398.461,100.699z"/>
				</g>
				<g id="IFtJ4v.tif_9_">
					<g>
						<path style="fill:#383533;" d="M389.724,111.553c0.079,0,0.147-0.001,0.215,0c1.105,0.011,2.21,0.019,3.314,0.037
							c0.492,0.008,0.958,0.117,1.389,0.375c0.896,0.537,1.032,2.267-0.114,2.816c-0.038,0.018-0.072,0.043-0.126,0.076
							c0.468,0.169,0.835,0.433,1.057,0.862c0.535,1.033,0.099,2.3-0.973,2.743c-0.342,0.141-0.728,0.233-1.097,0.242
							c-1.173,0.03-2.348,0.011-3.522,0.011c-0.043,0-0.087-0.006-0.143-0.011C389.724,116.323,389.724,113.947,389.724,111.553z
							 M391.294,117.388c0.685,0,1.348,0.032,2.006-0.01c0.519-0.033,0.793-0.417,0.78-0.959c-0.01-0.448-0.308-0.785-0.805-0.816
							c-0.647-0.04-1.297-0.026-1.947-0.034c-0.01,0-0.02,0.013-0.034,0.022C391.294,116.192,391.294,116.795,391.294,117.388z
							 M391.295,114.382c0.62,0,1.23,0.011,1.84-0.006c0.207-0.006,0.404-0.098,0.535-0.282c0.408-0.573,0.117-1.276-0.581-1.332
							c-0.583-0.047-1.171-0.025-1.757-0.032c-0.01,0-0.021,0.012-0.037,0.023C391.295,113.295,391.295,113.841,391.295,114.382z"/>
						<path style="fill:#383533;" d="M401.283,116.486c-1.263,0-2.472,0-3.682,0c-0.051,0.527,0.283,1.091,0.746,1.259
							c0.555,0.202,1.116,0.033,1.432-0.452c0.082-0.126,0.17-0.158,0.306-0.155c0.346,0.007,0.693,0.002,1.065,0.002
							c-0.083,0.356-0.242,0.649-0.461,0.909c-0.472,0.562-1.1,0.802-1.811,0.788c-0.424-0.009-0.854-0.08-1.267-0.18
							c-0.457-0.111-0.805-0.406-1.059-0.806c-0.498-0.785-0.692-2.302,0.06-3.358c0.402-0.565,0.934-0.908,1.616-1.021
							c0.448-0.074,0.893-0.056,1.332,0.059c1.035,0.271,1.498,1.022,1.657,2.011C401.266,115.851,401.262,116.168,401.283,116.486z
							 M399.816,115.552c-0.01-0.635-0.463-1.093-1.078-1.109c-0.577-0.015-1.065,0.471-1.104,1.109
							C398.358,115.552,399.082,115.552,399.816,115.552z"/>
						<path style="fill:#383533;" d="M400.23,112.68c-0.997,0-1.974,0-2.966,0c0-0.24,0-0.476,0-0.725c0.987,0,1.973,0,2.966,0
							C400.23,112.198,400.23,112.429,400.23,112.68z"/>
					</g>
				</g>
			</g>
		</g>
	</g>
	<path style="fill:#383533;" d="M400.152,78.733h-8.024c-0.655,0-1.188,0.514-1.188,1.146v4.457c0,0.632,0.533,1.146,1.188,1.146
		h8.024c0.655,0,1.188-0.514,1.188-1.146v-4.457C401.34,79.248,400.807,78.733,400.152,78.733z M397.782,82.108l2.95-2.607
		c0.076,0.108,0.12,0.238,0.12,0.378v4.457c0,0.141-0.045,0.271-0.121,0.379L397.782,82.108z M400.152,79.205
		c0.058,0,0.114,0.009,0.168,0.022l-3.864,3.415c-0.17,0.151-0.461,0.151-0.631,0l-3.864-3.415c0.054-0.013,0.11-0.022,0.168-0.022
		H400.152z M391.55,84.715c-0.076-0.108-0.121-0.238-0.121-0.379v-4.457c0-0.14,0.044-0.27,0.12-0.378l2.95,2.607L391.55,84.715z
		 M392.129,85.011c-0.057,0-0.113-0.008-0.166-0.021l2.898-2.561l0.633,0.56c0.178,0.158,0.412,0.236,0.646,0.236
		c0.233,0,0.467-0.078,0.645-0.236l0.635-0.561l2.898,2.561c-0.054,0.013-0.109,0.021-0.166,0.021H392.129z"/>
</g>
<line style="fill:none;stroke:#383533;stroke-width:0.25;stroke-linecap:round;stroke-linejoin:round;stroke-miterlimit:10;" x1="268.493" y1="146.868" x2="268.493" y2="540.059"/>
<g>
	<g>
		<g>
			<rect x="50.535" y="172.4" style="fill:#E7CDC0;" width="97.532" height="10.723"/>
			
				<text transform="matrix(1 0 0 1 50.2723 180.41)" style="fill:#383533; font-family:'LeagueSpartan-Bold'; font-size:12px; letter-spacing:2;">ABOUT ME</text>
		</g>
		<rect x="49.854" y="192.825" style="fill:none;" width="208.34" height="61.787"/>
		<text transform="matrix(1 0 0 1 49.8544 198.4252)"><tspan x="0" y="0" style="font-family:'Gilroy-Light'; font-size:8px; letter-spacing:1;">Lorem ipsum dolor sit amet, consectetuer </tspan><tspan x="0" y="9.6" style="font-family:'Gilroy-Light'; font-size:8px; letter-spacing:1;">adipiscing elit, sed diam nonummy nibh </tspan><tspan x="0" y="19.2" style="font-family:'Gilroy-Light'; font-size:8px; letter-spacing:1;">euismod tincidunt ut laoreet dolore magna </tspan><tspan x="0" y="28.8" style="font-family:'Gilroy-Light'; font-size:8px; letter-spacing:1;">aliquam erat volutpat. Ut wisi enim ad </tspan><tspan x="0" y="38.4" style="font-family:'Gilroy-Light'; font-size:8px; letter-spacing:1;">minim veniam, quis nostrud exerci tation </tspan><tspan x="0" y="48" style="font-family:'Gilroy-Light'; font-size:8px; letter-spacing:1;">ullamcorper suscipit lobortis nisl ut aliqui. </tspan></text>
		<g>
			<circle style="fill:#E7CDC0;" cx="29.854" cy="178.783" r="11.745"/>
			<g>
				<g>
					<g>
						<path style="fill:#383533;" d="M29.336,170.701c-2.22,0-4.02,1.81-4.02,4.03s1.8,4.02,4.02,4.02s4.03-1.8,4.03-4.02
							S31.556,170.701,29.336,170.701z M29.336,178.151c-1.89,0-3.42-1.53-3.42-3.42s1.53-3.43,3.42-3.43
							c1.89,0,3.43,1.54,3.43,3.43S31.226,178.151,29.336,178.151z"/>
						<path style="fill:#383533;" d="M29.426,179.761v0.6h-3.01c-0.98,0-1.91,0.37-2.57,1.02c-0.55,0.54-0.83,1.1-0.83,1.66v4.53
							c-0.21-0.13-0.41-0.26-0.6-0.4v-4.13c0-0.72,0.34-1.43,1.01-2.09c0.77-0.75,1.86-1.19,2.99-1.19H29.426z"/>
						<path style="fill:#383533;" d="M25.626,184.051v4.73c-0.2-0.06-0.4-0.13-0.6-0.21v-4.52c0-0.17,0.13-0.3,0.3-0.3
							C25.496,183.751,25.626,183.881,25.626,184.051z"/>
						<g>
							<path style="fill:#383533;" d="M33.626,188.411c-0.12,0.06-0.24,0.1-0.36,0.14c0.04-0.05,0.09-0.1,0.16-0.13
								S33.566,188.401,33.626,188.411z"/>
							<path style="fill:#383533;" d="M36.436,183.041v3.68c-0.19,0.16-0.39,0.31-0.6,0.45v-4.13c0-0.56-0.28-1.12-0.83-1.66
								c-0.66-0.65-1.59-1.02-2.57-1.02h-3.01c-0.17,0-0.3-0.13-0.3-0.3c0-0.16,0.13-0.3,0.3-0.3h3.01c1.13,0,2.22,0.44,2.99,1.19
								C36.096,181.611,36.436,182.321,36.436,183.041z"/>
							<path style="fill:#383533;" d="M33.826,184.051v4.6c-0.01-0.03-0.02-0.04-0.02-0.05c-0.03-0.09-0.09-0.15-0.18-0.19
								c-0.12,0.06-0.24,0.1-0.36,0.14c-0.02,0.05-0.04,0.1-0.04,0.15v-4.65c0-0.17,0.14-0.3,0.3-0.3
								C33.696,183.751,33.826,183.881,33.826,184.051z"/>
						</g>
					</g>
				</g>
				<path style="fill:#383533;" d="M29.126,189.61c-1.214,0-2.421-0.186-3.587-0.553c-0.204-0.062-0.412-0.134-0.62-0.217
					c-0.736-0.28-1.429-0.626-2.058-1.024c-0.214-0.133-0.42-0.267-0.617-0.412c-3.109-2.221-4.967-5.826-4.967-9.642
					c0-6.539,5.315-11.859,11.849-11.859c6.539,0,11.858,5.32,11.858,11.859c0,3.574-1.591,6.921-4.366,9.184
					c-0.194,0.164-0.403,0.321-0.623,0.466c-0.599,0.444-1.293,0.843-2.054,1.175c-0.062,0.036-0.149,0.074-0.225,0.099
					c-0.08,0.042-0.186,0.081-0.295,0.118l-0.036,0.036l-0.079,0.01C31.99,189.354,30.583,189.61,29.126,189.61z M29.126,166.48
					c-6.215,0-11.271,5.061-11.271,11.282c0,3.63,1.768,7.06,4.729,9.175c0.188,0.138,0.382,0.264,0.585,0.39
					c0.598,0.38,1.257,0.708,1.96,0.976c0.196,0.078,0.388,0.145,0.581,0.203c2.448,0.771,5.096,0.684,7.388-0.193l0.078-0.035
					c0.107-0.035,0.214-0.07,0.322-0.124c0.083-0.03,0.135-0.053,0.188-0.083c0.747-0.328,1.404-0.704,1.979-1.131
					c0.213-0.142,0.404-0.286,0.586-0.438c2.643-2.155,4.157-5.339,4.157-8.739C40.408,171.541,35.347,166.48,29.126,166.48z"/>
			</g>
		</g>
	</g>
	<g>
		<g>
			<rect x="51.046" y="281.357" style="fill:#C8CECA;" width="97.532" height="10.723"/>
			
				<text transform="matrix(1 0 0 1 50.7829 289.3674)" style="fill:#383533; font-family:'LeagueSpartan-Bold'; font-size:12px; letter-spacing:2;">EDUCATION</text>
		</g>
		
			<text transform="matrix(1 0 0 1 51.0457 309.4425)" style="fill:#5C5754; font-family:'Gilroy-ExtraBold'; font-size:8px; letter-spacing:1;">DEGREE TITLE HERE</text>
		
			<text transform="matrix(1 0 0 1 236.7478 310.9744)" style="fill:#5C5754; font-family:'Gilroy-ExtraBold'; font-size:8px; letter-spacing:1;">2011</text>
		<rect x="50.876" y="316.762" style="fill:none;" width="144.511" height="21.958"/>
		<text transform="matrix(1 0 0 1 50.8759 321.6612)"><tspan x="0" y="0" style="font-family:'Gilroy-Light'; font-size:7px; letter-spacing:1;">Lorem ipsum dolor sit amet, </tspan><tspan x="0" y="8.4" style="font-family:'Gilroy-Light'; font-size:7px; letter-spacing:1;">consectetuer adipiscing elit, sed.</tspan></text>
		
			<line style="fill:none;stroke:#383533;stroke-width:0.25;stroke-linecap:round;stroke-linejoin:round;stroke-miterlimit:10;" x1="52.918" y1="342.634" x2="246.45" y2="342.634"/>
		
			<text transform="matrix(1 0 0 1 51.3862 362.0383)" style="fill:#5C5754; font-family:'Gilroy-ExtraBold'; font-size:8px; letter-spacing:1;">DEGREE TITLE HERE</text>
		
			<text transform="matrix(1 0 0 1 235.1096 363.5702)" style="fill:#5C5754; font-family:'Gilroy-ExtraBold'; font-size:8px; letter-spacing:1;">2015</text>
		<rect x="50.876" y="369.698" style="fill:none;" width="144.511" height="21.957"/>
		<text transform="matrix(1 0 0 1 50.8759 374.5974)"><tspan x="0" y="0" style="font-family:'Gilroy-Light'; font-size:7px; letter-spacing:1;">Lorem ipsum dolor sit amet, </tspan><tspan x="0" y="8.4" style="font-family:'Gilroy-Light'; font-size:7px; letter-spacing:1;">consectetuer adipiscing elit, sed.</tspan></text>
		<g>
			<circle style="fill:#C8CECA;" cx="31.131" cy="285.319" r="11.745"/>
			<g>
				<path style="fill:#383533;" d="M30.025,295.681c-6.535,0-11.852-5.317-11.852-11.852c0-6.535,5.316-11.852,11.852-11.852
					c6.535,0,11.852,5.316,11.852,11.852C41.876,290.364,36.56,295.681,30.025,295.681z M30.025,272.555
					c-6.217,0-11.274,5.058-11.274,11.274s5.058,11.275,11.274,11.275s11.274-5.058,11.274-11.275S36.242,272.555,30.025,272.555z"
					/>
				<g>
					<path style="fill:#383533;" d="M29.662,283.956l-0.088-0.033l-8.836-3.361l8.927-3.243l8.848,3.318L29.662,283.956z
						 M22.172,280.572l7.491,2.849l7.425-2.785l-7.427-2.785L22.172,280.572z"/>
					<path style="fill:#383533;" d="M29.149,288.79c-3.518,0-4.986-1.814-5.05-1.896l-0.053-0.068v-5.15h0.5v4.97
						c0.298,0.319,1.846,1.774,5.07,1.633c3.197-0.148,4.813-1.354,5.164-1.651v-4.952h0.5v5.168l-0.073,0.073
						c-0.069,0.069-1.726,1.684-5.567,1.861C29.472,288.786,29.308,288.79,29.149,288.79z"/>
					<polygon style="fill:#383533;" points="38.029,287.566 37.529,287.566 37.529,280.83 29.661,277.852 21.54,280.802 
						21.369,280.332 29.665,277.319 38.029,280.484 					"/>
					<path style="fill:#383533;" d="M38.852,289.81h-2.089l-0.006-0.244c0-0.031-0.017-0.765,0.073-1.392
						c0.093-0.647,0.676-0.847,0.971-0.863l0.014-0.001l0.013,0.001c0.695,0.037,0.939,0.613,0.972,0.913L38.852,289.81z
						 M37.257,289.31h1.079l-0.035-1.051c-0.008-0.053-0.074-0.418-0.484-0.448c-0.083,0.009-0.439,0.066-0.492,0.434
						C37.272,288.619,37.259,289.048,37.257,289.31z"/>
					<path style="fill:#383533;" d="M38.063,289.685c-0.069,0-0.125-0.056-0.125-0.125v-1c0-0.069,0.056-0.125,0.125-0.125
						c0.069,0,0.125,0.056,0.125,0.125v1C38.188,289.629,38.132,289.685,38.063,289.685z"/>
					<path style="fill:#383533;" d="M37.517,289.685c-0.069,0-0.125-0.056-0.125-0.125v-1c0-0.069,0.056-0.125,0.125-0.125
						c0.069,0,0.125,0.056,0.125,0.125v1C37.642,289.629,37.586,289.685,37.517,289.685z"/>
				</g>
			</g>
		</g>
	</g>
	<g>
		<rect x="50.535" y="510.953" style="fill:none;" width="144.511" height="21.957"/>
		<text transform="matrix(1 0 0 1 50.5355 515.8527)"><tspan x="0" y="0" style="font-family:'Gilroy-Light'; font-size:7px; letter-spacing:1;">Lorem ipsum dolor sit amet, </tspan><tspan x="0" y="8.4" style="font-family:'Gilroy-Light'; font-size:7px; letter-spacing:1;">consectetuer adipiscing elit, sed.</tspan></text>
		<g>
			<g>
				<rect x="50.706" y="420.059" style="fill:#CBA47B;" width="142.979" height="10.723"/>
				
					<text transform="matrix(1 0 0 1 54.5276 427.559)" style="fill:#383533; font-family:'LeagueSpartan-Bold'; font-size:12px; letter-spacing:2;">JOB EXPERIENCE</text>
			</g>
			
				<text transform="matrix(1 0 0 1 51.0457 450.6978)" style="fill:#5C5754; font-family:'Gilroy-ExtraBold'; font-size:8px; letter-spacing:1;">JOB TITLE HERE</text>
			
				<text transform="matrix(1 0 0 1 201.0032 452.2297)" style="fill:#5C5754; font-family:'Gilroy-ExtraBold'; font-size:8px; letter-spacing:1;">2015 - 2018</text>
			
				<text transform="matrix(1 0 0 1 203.5564 502.2723)" style="fill:#5C5754; font-family:'Gilroy-ExtraBold'; font-size:8px; letter-spacing:1;">2018 - Now</text>
			<rect x="50.535" y="458.357" style="fill:none;" width="144.511" height="21.957"/>
			<text transform="matrix(1 0 0 1 50.5355 463.2569)"><tspan x="0" y="0" style="font-family:'Gilroy-Light'; font-size:7px; letter-spacing:1;">Lorem ipsum dolor sit amet, </tspan><tspan x="0" y="8.4" style="font-family:'Gilroy-Light'; font-size:7px; letter-spacing:1;">consectetuer adipiscing elit, sed.</tspan></text>
			
				<line style="fill:none;stroke:#383533;stroke-width:0.25;stroke-linecap:round;stroke-linejoin:round;stroke-miterlimit:10;" x1="52.918" y1="483.889" x2="246.45" y2="483.889"/>
			
				<text transform="matrix(1 0 0 1 51.0457 503.2936)" style="fill:#5C5754; font-family:'Gilroy-ExtraBold'; font-size:8px; letter-spacing:1;">JOB TITLE HERE</text>
			<g>
				<circle style="fill:#CBA47B;" cx="31.386" cy="428.849" r="11.745"/>
				<g>
					<path style="fill:#383533;" d="M25.778,427.965c-0.022,0-0.044-0.003-0.066-0.009l-3.087-0.849
						c-0.133-0.037-0.211-0.174-0.175-0.308c0.037-0.133,0.173-0.209,0.308-0.175l3.087,0.849c0.133,0.037,0.212,0.174,0.175,0.308
						C25.988,427.892,25.888,427.965,25.778,427.965z"/>
					<g>
						<path style="fill:#383533;" d="M37.37,435.024H24.188c-0.965,0-1.75-0.785-1.75-1.75v-8.364c0-0.965,0.785-1.75,1.75-1.75
							H37.37c0.965,0,1.75,0.785,1.75,1.75v8.364C39.12,434.239,38.335,435.024,37.37,435.024z M24.188,423.66
							c-0.689,0-1.25,0.56-1.25,1.25v8.364c0,0.689,0.561,1.25,1.25,1.25H37.37c0.689,0,1.25-0.561,1.25-1.25v-8.364
							c0-0.69-0.561-1.25-1.25-1.25H24.188z"/>
						<path style="fill:#383533;" d="M30.777,429.342c-0.022,0-0.044-0.003-0.066-0.009l-4.091-1.127
							c-0.133-0.037-0.211-0.174-0.175-0.308c0.037-0.133,0.171-0.21,0.308-0.175l4.025,1.109l4.046-1.114
							c0.135-0.035,0.271,0.042,0.308,0.175c0.037,0.133-0.042,0.271-0.175,0.308l-4.112,1.132
							C30.822,429.34,30.8,429.342,30.777,429.342z"/>
						<path style="fill:#383533;" d="M35.798,427.959c-0.11,0-0.21-0.073-0.241-0.184c-0.037-0.133,0.042-0.271,0.175-0.308
							l3.071-0.844c0.134-0.033,0.271,0.042,0.308,0.175c0.037,0.133-0.042,0.271-0.175,0.308l-3.071,0.844
							C35.842,427.956,35.82,427.959,35.798,427.959z"/>
						<path style="fill:#383533;" d="M26.686,429.423h-0.908c-0.138,0-0.25-0.112-0.25-0.25v-2.045c0-0.138,0.112-0.25,0.25-0.25
							h0.908c0.138,0,0.25,0.112,0.25,0.25v2.045C26.936,429.311,26.824,429.423,26.686,429.423z M26.028,428.923h0.408v-1.545
							h-0.408V428.923z"/>
						<path style="fill:#383533;" d="M35.798,429.423h-0.908c-0.138,0-0.25-0.112-0.25-0.25v-2.045c0-0.138,0.112-0.25,0.25-0.25
							h0.908c0.138,0,0.25,0.112,0.25,0.25v2.045C36.048,429.311,35.936,429.423,35.798,429.423z M35.139,428.923h0.408v-1.545
							h-0.408V428.923z"/>
						<path style="fill:#383533;" d="M35.597,423.66h-9.364c-0.138,0-0.25-0.112-0.25-0.25v-1.841c0-0.526,0.428-0.955,0.955-0.955
							h8.023c0.489,0,0.886,0.397,0.886,0.886v1.909C35.847,423.548,35.736,423.66,35.597,423.66z M26.484,423.16h8.864v-1.659
							c0-0.213-0.173-0.386-0.386-0.386h-8.023c-0.25,0-0.455,0.204-0.455,0.455V423.16z"/>
						<path style="fill:#383533;" d="M34.888,423.66h-7.943c-0.138,0-0.25-0.112-0.25-0.25v-1.463c0-0.396,0.322-0.719,0.718-0.719
							h7.054c0.37,0,0.671,0.301,0.671,0.671v1.51C35.138,423.548,35.026,423.66,34.888,423.66z M27.194,423.16h7.443v-1.26
							c0-0.095-0.077-0.171-0.171-0.171h-7.054c-0.12,0-0.218,0.098-0.218,0.219V423.16z"/>
					</g>
				</g>
				<g>
					<path style="fill:#383533;" d="M30.705,439.636c-6.535,0-11.851-5.316-11.851-11.851c0-6.535,5.316-11.852,11.851-11.852
						c6.535,0,11.852,5.316,11.852,11.852C42.557,434.32,37.241,439.636,30.705,439.636z M30.705,416.51
						c-6.217,0-11.274,5.058-11.274,11.275c0,6.217,5.058,11.274,11.274,11.274s11.275-5.058,11.275-11.274
						C41.98,421.568,36.922,416.51,30.705,416.51z"/>
				</g>
			</g>
		</g>
	</g>
</g>
<g>
	<g>
		<g>
			<text transform="matrix(1 0 0 1 121.396 114.0746)" style="fill:#383533; font-family:'Gilroy-Light'; font-size:9px;">Ui &amp; graphic designer</text>
		</g>
		
			<line style="fill:none;stroke:#383533;stroke-width:0.5;stroke-linecap:round;stroke-linejoin:round;stroke-miterlimit:10;" x1="123.386" y1="97.017" x2="201.003" y2="97.017"/>
	</g>
	<g>
		<circle style="fill:#EFEFEF;" cx="63.913" cy="71.418" r="46.125"/>
		<g>
			<rect x="35.257" y="53.97" style="fill:#E7CDC0;" width="57.309" height="34.895"/>
			<rect x="42.006" y="51.423" style="fill:#E7CDC0;" width="8.915" height="5.476"/>
			<g>
				<path d="M71.44,63.896c-0.18-0.172-0.367-0.337-0.561-0.494c-1.938-1.586-4.407-2.544-7.093-2.544s-5.162,0.958-7.1,2.544
					c-0.195,0.157-0.382,0.322-0.561,0.494c-2.177,2.043-3.539,4.946-3.539,8.155c0,6.173,5.028,11.201,11.201,11.201
					c6.173,0,11.193-5.028,11.193-11.201C74.979,68.842,73.617,65.939,71.44,63.896z M63.786,82.766
					c-5.903,0-10.714-4.811-10.714-10.714c0-3.27,1.474-6.195,3.793-8.155c0.202-0.172,0.404-0.337,0.621-0.494
					c1.773-1.294,3.95-2.057,6.3-2.057c2.349,0,4.527,0.763,6.292,2.057c0.217,0.157,0.419,0.314,0.621,0.494
					c2.319,1.953,3.793,4.886,3.793,8.155C74.493,77.955,69.689,82.766,63.786,82.766z"/>
				<path d="M63.786,64.547c-4.138,0-7.504,3.367-7.504,7.504s3.367,7.504,7.504,7.504s7.504-3.367,7.504-7.504
					S67.923,64.547,63.786,64.547z M63.786,79.07c-3.868,0-7.018-3.15-7.018-7.018c0-3.868,3.15-7.01,7.018-7.01
					s7.011,3.142,7.011,7.01C70.797,75.92,67.654,79.07,63.786,79.07z"/>
				<path d="M57.486,63.403c-0.217,0.157-0.419,0.322-0.621,0.494H35.13v-0.494H57.486z"/>
				<path d="M79.438,63.403v0.494h-8.739c-0.202-0.18-0.404-0.337-0.621-0.494H79.438z"/>
				<rect x="87.1" y="63.403" width="5.596" height="0.494"/>
				<path d="M78.952,61.113v5.073h8.634v-5.073H78.952z M87.1,65.7h-7.661v-4.1H87.1V65.7z"/>
				<rect x="41.752" y="53.598" width="9.424" height="0.488"/>
			</g>
		</g>
	</g>
	<g>
		<rect x="118.28" y="36.57" style="fill:#E7CDC0;" width="149.106" height="15.319"/>
		
			<text transform="matrix(1 0 0 1 122.2454 48.7384)" style="fill:#383533; font-family:'Gilroy-ExtraBold'; font-size:25.2159px; letter-spacing:5;">Andrew</text>
		
			<text transform="matrix(1 0 0 1 120.5706 84.9035)" style="fill:#383533; font-family:'LeagueSpartan-Bold'; font-size:35.6235px; letter-spacing:7;">Smith</text>
	</g>
</g>
<g>
	<g>
		<g>
			
				<text transform="matrix(1 0 0 1 288.7479 209.1446)" style="fill:#5C5754; font-family:'Gilroy-ExtraBold'; font-size:8px; letter-spacing:1;">GRAPHIC DESIGN</text>
			<rect x="288.578" y="216.464" style="fill:none;" width="112.511" height="20.574"/>
			<text transform="matrix(1 0 0 1 288.5775 222.064)"><tspan x="0" y="0" style="font-family:'Gilroy-Light'; font-size:7px; letter-spacing:1;">Lorem ipsum dolor sit.</tspan><tspan x="93.359" y="0" style="font-family:'Gilroy-Light'; font-size:8px; letter-spacing:1;"> </tspan><tspan x="0" y="9.6" style="font-family:'Gilroy-Light'; font-size:8px; letter-spacing:1;">adipiscing elit.</tspan></text>
			
				<line style="fill:none;stroke:#383533;stroke-width:0.25;stroke-linecap:round;stroke-linejoin:round;stroke-miterlimit:10;" x1="289.089" y1="240.804" x2="403.471" y2="240.804"/>
			
				<text transform="matrix(1 0 0 1 288.7479 257.485)" style="fill:#5C5754; font-family:'Gilroy-ExtraBold'; font-size:8px; letter-spacing:1;">UI DESIGN</text>
			<rect x="288.578" y="264.804" style="fill:none;" width="112.511" height="20.574"/>
			<text transform="matrix(1 0 0 1 288.5775 270.4044)"><tspan x="0" y="0" style="font-family:'Gilroy-Light'; font-size:7px; letter-spacing:1;">Lorem ipsum dolor sit.</tspan><tspan x="93.359" y="0" style="font-family:'Gilroy-Light'; font-size:8px; letter-spacing:1;"> </tspan><tspan x="0" y="9.6" style="font-family:'Gilroy-Light'; font-size:8px; letter-spacing:1;">adipiscing elit.</tspan></text>
			
				<line style="fill:none;stroke:#383533;stroke-width:0.25;stroke-linecap:round;stroke-linejoin:round;stroke-miterlimit:10;" x1="289.089" y1="344.974" x2="403.471" y2="344.974"/>
			
				<text transform="matrix(1 0 0 1 288.7479 361.6553)" style="fill:#5C5754; font-family:'Gilroy-ExtraBold'; font-size:8px; letter-spacing:1;">CONTENT CREATION</text>
			<rect x="288.578" y="368.974" style="fill:none;" width="112.511" height="20.574"/>
			<text transform="matrix(1 0 0 1 288.5775 374.5746)"><tspan x="0" y="0" style="font-family:'Gilroy-Light'; font-size:7px; letter-spacing:1;">Lorem ipsum dolor sit.</tspan><tspan x="93.359" y="0" style="font-family:'Gilroy-Light'; font-size:8px; letter-spacing:1;"> </tspan><tspan x="0" y="9.6" style="font-family:'Gilroy-Light'; font-size:8px; letter-spacing:1;">adipiscing elit.</tspan></text>
			
				<line style="fill:none;stroke:#383533;stroke-width:0.25;stroke-linecap:round;stroke-linejoin:round;stroke-miterlimit:10;" x1="289.089" y1="289.145" x2="403.471" y2="289.145"/>
			
				<text transform="matrix(1 0 0 1 288.7479 307.1872)" style="fill:#5C5754; font-family:'Gilroy-ExtraBold'; font-size:8px; letter-spacing:1;">UX DESIGN</text>
			<rect x="288.578" y="314.506" style="fill:none;" width="112.511" height="20.574"/>
			<text transform="matrix(1 0 0 1 288.5775 320.1065)"><tspan x="0" y="0" style="font-family:'Gilroy-Light'; font-size:7px; letter-spacing:1;">Lorem ipsum dolor sit.</tspan><tspan x="93.359" y="0" style="font-family:'Gilroy-Light'; font-size:8px; letter-spacing:1;"> </tspan><tspan x="0" y="9.6" style="font-family:'Gilroy-Light'; font-size:8px; letter-spacing:1;">adipiscing elit.</tspan></text>
		</g>
		<g>
			
				<ellipse transform="matrix(0.1596 -0.9872 0.9872 0.1596 74.7062 442.5239)" style="fill:#C8CECA;" cx="297.259" cy="177.385" rx="11.809" ry="11.808"/>
			<g>
				<g>
					<path style="fill:#383533;" d="M295.939,188.891c-7.016,0-12.724-5.708-12.724-12.724s5.708-12.724,12.724-12.724
						c7.016,0,12.724,5.708,12.724,12.724S302.955,188.891,295.939,188.891z M295.939,164.063c-6.674,0-12.104,5.43-12.104,12.104
						s5.43,12.104,12.104,12.104c6.674,0,12.104-5.43,12.104-12.104S302.614,164.063,295.939,164.063z"/>
				</g>
				<g>
					<g>
						<path style="fill:#383533;" d="M299.745,187.926h-0.537v-8.008l0.079-0.079c0.491-0.49,1.811-1.866,2.027-2.334
							c0.176-0.382,0.092-3.168-0.024-5.025c0,0.011-0.076-0.257-0.546-0.276c-0.532-0.023-0.696,0.06-0.698,0.061l-0.351,0.276
							l-0.056-0.455c-0.009-0.04-0.118-0.441-0.835-0.441c-0.696,0-0.816,0.413-0.817,0.417l-0.229,0.848l-0.284-0.832
							c-0.013-0.033-0.174-0.339-0.734-0.357c-0.636,0.011-0.785,0.391-0.792,0.407l-0.425,1.132l-0.095-1.201
							c-0.02-0.126-0.232-0.374-0.815-0.34c-0.51,0.01-0.581,0.333-0.59,0.398l0.199,4.792l-0.901,0.3l-0.17-0.51l0.518-0.172
							l-0.181-4.432c0.033-0.335,0.305-0.898,1.114-0.914c0.597-0.024,0.937,0.165,1.125,0.358c0.195-0.178,0.509-0.349,1.003-0.357
							c0.49-0.011,0.793,0.157,0.982,0.332c0.193-0.204,0.527-0.408,1.091-0.408c0.701,0,1.078,0.312,1.251,0.599
							c0.158-0.032,0.385-0.054,0.71-0.039c0.876,0.035,1.047,0.705,1.054,0.734c0.055,0.815,0.279,4.685-0.017,5.329
							c-0.27,0.585-1.674,2.024-2.056,2.409V187.926z"/>
					</g>
					<g>
						<rect x="295.426" y="172.04" style="fill:#383533;" width="0.537" height="2.712"/>
					</g>
					<g>
						<rect x="297.458" y="171.992" style="fill:#383533;" width="0.537" height="2.76"/>
					</g>
					<g>
						<rect x="299.633" y="172.04" style="fill:#383533;" width="0.537" height="2.712"/>
					</g>
					<g>
						<path style="fill:#383533;" d="M294.089,188.4h-0.537v-8.094l-1.897-1.532c-0.259-0.21-0.408-0.522-0.408-0.854v-1.607h0.537
							v1.607c0,0.17,0.076,0.33,0.209,0.437l2.096,1.693V188.4z"/>
					</g>
					<g>
						<polygon style="fill:#383533;" points="293.77,176.421 288.148,176.421 285.147,174.25 288.152,172.177 293.77,172.177 
							293.77,172.714 288.319,172.714 286.077,174.261 288.323,175.884 293.77,175.884 						"/>
					</g>
					<g>
						<path style="fill:#383533;" d="M305.697,176.421h-4.014v-0.537h4.014c0.167,0,0.302-0.135,0.302-0.302v-2.474
							c0-0.217-0.177-0.394-0.394-0.394h-3.922v-0.537h3.922c0.513,0,0.931,0.418,0.931,0.931v2.474
							C306.535,176.045,306.159,176.421,305.697,176.421z"/>
					</g>
					<g>
						<line style="fill:#383533;" x1="296.867" y1="171.468" x2="296.867" y2="171.468"/>
					</g>
					<g>
						<polygon style="fill:#383533;" points="288.461,176.179 288.009,175.89 288.54,175.063 288.132,174.298 288.616,173.417 
							288.019,172.605 288.452,172.287 289.251,173.375 288.742,174.301 289.162,175.088 						"/>
					</g>
					<g>
						<rect x="286.487" y="173.467" style="fill:#383533;" width="0.537" height="1.508"/>
					</g>
					<g>
						<rect x="288.933" y="173.127" style="fill:#383533;" width="4.837" height="0.537"/>
					</g>
					<g>
						<rect x="288.933" y="174.821" style="fill:#383533;" width="4.887" height="0.537"/>
					</g>
					<g>
						<rect x="303.865" y="172.446" style="fill:#383533;" width="0.537" height="3.707"/>
					</g>
					<g>
						<rect x="303.251" y="172.446" style="fill:#383533;" width="0.537" height="3.707"/>
					</g>
					<g>
						<rect x="301.61" y="173.199" style="fill:#383533;" width="1.79" height="0.537"/>
					</g>
					<g>
						<rect x="301.671" y="174.821" style="fill:#383533;" width="1.73" height="0.537"/>
					</g>
				</g>
			</g>
			<rect x="316.79" y="172.61" style="fill:#C8CECA;" width="65.49" height="10.723"/>
			
				<text transform="matrix(1 0 0 1 320.6124 180.6199)" style="fill:#383533; font-family:'LeagueSpartan-Bold'; font-size:12px; letter-spacing:2;">skills</text>
		</g>
	</g>
	<g>
		<rect x="288.28" y="455.017" style="fill:#E7CDC0;" width="100.511" height="5.561"/>
		<rect x="318.62" y="419.737" style="fill:#E7CDC0;" width="65.49" height="10.723"/>
		
			<text transform="matrix(1 0 0 1 322.4422 427.7475)" style="fill:#383533; font-family:'LeagueSpartan-Bold'; font-size:12px; letter-spacing:2;">TOOLS</text>
		
			<text transform="matrix(1 0 0 1 288.4846 449.9324)" style="fill:#5C5754; font-family:'Gilroy-ExtraBold'; font-size:8px; letter-spacing:1;">PHOTOSHOP</text>
		
			<rect x="288.535" y="455.017" style="fill:none;stroke:#383533;stroke-width:0.2031;stroke-linecap:round;stroke-linejoin:round;stroke-miterlimit:10;" width="110.979" height="5.617"/>
		<rect x="288.28" y="479.049" style="fill:#E7CDC0;" width="94.383" height="5.273"/>
		
			<text transform="matrix(1 0 0 1 288.4846 473.6771)" style="fill:#5C5754; font-family:'Gilroy-ExtraBold'; font-size:8px; letter-spacing:1;">ILLUSTRATOR</text>
		
			<rect x="288.535" y="478.762" style="fill:none;stroke:#383533;stroke-width:0.2031;stroke-linecap:round;stroke-linejoin:round;stroke-miterlimit:10;" width="110.979" height="5.617"/>
		<rect x="288.28" y="504.293" style="fill:#E7CDC0;" width="108.128" height="5.561"/>
		
			<text transform="matrix(1 0 0 1 288.4846 499.209)" style="fill:#5C5754; font-family:'Gilroy-ExtraBold'; font-size:8px; letter-spacing:1;">ADOBE XD</text>
		
			<rect x="288.535" y="504.293" style="fill:none;stroke:#383533;stroke-width:0.2031;stroke-linecap:round;stroke-linejoin:round;stroke-miterlimit:10;" width="110.979" height="5.617"/>
		<rect x="288.28" y="528.974" style="fill:#E7CDC0;" width="108.128" height="5.561"/>
		
			<text transform="matrix(1 0 0 1 288.4846 526.1877)" style="fill:#5C5754; font-family:'Gilroy-ExtraBold'; font-size:8px; letter-spacing:1;">SKETCH</text>
		
			<rect x="288.535" y="528.974" style="fill:none;stroke:#383533;stroke-width:0.2031;stroke-linecap:round;stroke-linejoin:round;stroke-miterlimit:10;" width="110.979" height="5.617"/>
		<g>
			
				<ellipse transform="matrix(0.7071 -0.7071 0.7071 0.7071 -211.0984 333.014)" style="fill:#E7CDC0;" cx="296.434" cy="421.325" rx="11.819" ry="11.819"/>
			<g>
				<path style="fill:#383533;" d="M299.005,427.503h-6.057l-1.557-6.957l0.051-0.111l4.426-9.588l4.747,9.547L299.005,427.503z
					 M293.525,426.783h4.905l1.425-6.298l-3.964-7.971l-3.745,8.113L293.525,426.783z"/>
				<rect x="295.519" y="411.68" style="fill:#383533;" width="0.72" height="7.732"/>
				<path style="fill:#383533;" d="M295.977,422.218c-0.873,0-1.584-0.71-1.584-1.583c0-0.873,0.71-1.584,1.584-1.584
					c0.874,0,1.584,0.71,1.584,1.584C297.56,421.508,296.85,422.218,295.977,422.218z M295.977,419.771
					c-0.476,0-0.864,0.388-0.864,0.864s0.388,0.863,0.864,0.863c0.476,0,0.864-0.387,0.864-0.863S296.453,419.771,295.977,419.771z"
					/>
				<path style="fill:#383533;" d="M298.968,429.852h-6.178c-0.438,0-0.794-0.356-0.794-0.794v-1.48
					c0-0.438,0.356-0.795,0.794-0.795h6.178c0.438,0,0.795,0.357,0.795,0.795v1.48C299.762,429.496,299.406,429.852,298.968,429.852
					z M292.79,427.503c-0.041,0-0.074,0.034-0.074,0.075v1.48c0,0.041,0.033,0.074,0.074,0.074h6.178
					c0.041,0,0.075-0.033,0.075-0.074v-1.48c0-0.041-0.034-0.075-0.075-0.075H292.79z"/>
				<rect x="292.356" y="427.957" style="fill:#383533;" width="7.047" height="0.72"/>
			</g>
			<g>
				<path style="fill:#383533;" d="M295.913,433.464c-7.016,0-12.724-5.708-12.724-12.724c0-7.016,5.708-12.724,12.724-12.724
					s12.724,5.708,12.724,12.724C308.637,427.756,302.929,433.464,295.913,433.464z M295.913,408.636
					c-6.674,0-12.104,5.43-12.104,12.104c0,6.674,5.43,12.104,12.104,12.104c6.674,0,12.104-5.43,12.104-12.104
					C308.017,414.066,302.587,408.636,295.913,408.636z"/>
			</g>
		</g>
	</g>
</g>
<g>
	<g>
		<path style="fill:#F5E3DA;" d="M433.684,99.896v0.68c-6.24-5.73-11.51-13.52-16.77-24.68c-1.56-3.32-3.03-6.8-4.45-10.16
			c-4.26-10.07-8.67-20.48-16.32-28.57c-9-9.52-21.46-13.34-36.03-11.05c-2.09,0.32-4.24,0.73-6.33,1.12
			c-7.06,1.32-14.36,2.69-21.51,1.64c-12.71-1.86-23.43-9.39-30.17-21.2c-3.81-6.66-6.02-14.21-6.56-21.83h0.49
			c0.55,7.53,2.74,14.99,6.5,21.58c6.67,11.68,17.26,19.12,29.81,20.96c7.07,1.03,14.33-0.33,21.35-1.64
			c2.09-0.39,4.24-0.8,6.34-1.13c14.75-2.31,27.36,1.56,36.48,11.21c7.71,8.15,12.13,18.61,16.41,28.72
			c1.42,3.35,2.88,6.82,4.44,10.14C422.484,86.586,427.634,94.246,433.684,99.896z"/>
		<path style="fill:#F5E3DA;" d="M433.684,70.636v0.6c-5.23-3.6-9.5-9.47-12.13-16.74c-3.68-10.16-4.13-20.73-4.3-32.51l-0.01-0.17
			c-0.1-6.89-0.2-14.02-4.58-19.75c-4.07-5.34-11.44-9.12-19.22-9.86c-8.14-0.79-17.38,1.46-27.49,6.68
			c-2.77,1.43-5.86,3.39-9.12,5.46c-12.47,7.9-27.98,17.73-40.05,6.84c-6.66-6.02-8.61-16.22-7.71-25.34h0.49
			c-0.89,8.99,1.01,19.06,7.55,24.96c11.8,10.64,27.13,0.92,39.45-6.89c3.27-2.07,6.37-4.03,9.16-5.48
			c10.19-5.26,19.54-7.53,27.77-6.73c8.03,0.77,15.35,4.53,19.56,10.05c4.48,5.87,4.59,13.08,4.69,20.06l0.01,0.16
			c0.17,11.73,0.62,22.27,4.27,32.35C424.574,61.366,428.664,67.066,433.684,70.636z"/>
	</g>
	<g>
		<path style="fill:#C8CECA;" d="M120.124,609.506h-0.51c-0.93-4.77-2.53-9.41-4.78-13.72c-6.23-11.91-16.54-19.74-29.02-22.03
			c-7.03-1.3-14.33-0.2-21.4,0.85c-2.09,0.32-4.26,0.64-6.37,0.9c-14.82,1.77-27.28-2.57-36.04-12.54
			c-7.41-8.43-11.44-19.04-15.35-29.3c-1.29-3.41-2.63-6.93-4.07-10.3c-5.16-12.1-10.48-20.35-17.07-26.38v-0.67
			c6.79,6.1,12.25,14.48,17.53,26.86c1.44,3.37,2.79,6.9,4.08,10.31c3.89,10.22,7.91,20.79,15.26,29.15
			c8.64,9.84,20.95,14.12,35.6,12.37c2.1-0.25,4.27-0.58,6.36-0.89c7.1-1.06,14.45-2.16,21.56-0.86
			c12.64,2.33,23.07,10.24,29.38,22.3C117.584,599.936,119.194,604.656,120.124,609.506z"/>
		<path style="fill:#C8CECA;" d="M107.864,609.506h-0.5c-0.33-6.66-2.4-13.18-6.97-17.63c-11.4-11.07-27.08-1.92-39.67,5.43
			c-3.35,1.96-6.52,3.81-9.36,5.15c-10.38,4.88-19.79,6.8-27.99,5.71c-8.01-1.07-15.18-5.09-19.19-10.76
			c-4.26-6.03-4.1-13.24-3.95-20.21v-0.17c0.25-11.73,0.2-22.27-3.08-32.48c-2.38-7.41-6.48-13.44-11.64-17.15v-0.63
			c5.38,3.78,9.66,9.97,12.11,17.62c3.31,10.29,3.36,20.87,3.11,32.65v0.17c-0.15,6.89-0.31,14.01,3.86,19.91
			c3.87,5.48,11.09,9.52,18.84,10.56c8.1,1.07,17.42-0.83,27.71-5.68c2.83-1.33,5.99-3.17,9.32-5.12
			c12.75-7.44,28.61-16.69,40.28-5.36C105.424,596.056,107.534,602.726,107.864,609.506z"/>
		<path style="fill:#C8CECA;" d="M255.954,609.506h-0.52c-1.93-7.5-4.68-14.81-8.65-21.52c-10.8-18.28-30.5-31.7-54.05-36.82
			c-19.89-4.32-42.27-2.94-66.54,4.12c-3.5,1.02-7.08,2.16-10.55,3.26c-15.65,4.97-31.84,10.11-47.86,6.82
			c-19.17-3.93-35.96-19.47-51.35-47.5c-1.73-3.16-3.47-6.42-5.14-9.58c-7.42-13.97-15.03-28.3-25.78-39.53v-0.72
			c10.99,11.33,18.71,25.86,26.22,40.02c1.68,3.15,3.41,6.42,5.14,9.57c15.31,27.89,32,43.35,51.01,47.25
			c15.9,3.26,32.02-1.86,47.61-6.81c3.47-1.1,7.06-2.24,10.57-3.26c24.34-7.08,46.81-8.47,66.78-4.13
			c23.68,5.15,43.5,18.66,54.37,37.05C251.234,594.526,254.004,601.916,255.954,609.506z"/>
	</g>
</g>
</svg>
