<?xml version="1.0" encoding="utf-8"?>
<!-- Generator: Adobe Illustrator 27.5.0, SVG Export Plug-In . SVG Version: 6.00 Build 0)  -->
<svg version="1.1" id="PRINT" xmlns="http://www.w3.org/2000/svg" xmlns:xlink="http://www.w3.org/1999/xlink" x="0px" y="0px"
	 viewBox="0 0 595.276 841.89" style="enable-background:new 0 0 595.276 841.89;" xml:space="preserve">
<rect id="CUSTOM-BACKGROUND_3_" x="-13.852" y="-13.688" style="fill:#FFFFFF;" width="622.98" height="869.267"/>
<rect x="141.525" y="826.962" style="fill:#F1CB28;" width="467.603" height="30.757"/>
<g>
	<rect x="141.525" y="68.06" style="fill:#F1CB28;" width="466.454" height="39.112"/>
	<text transform="matrix(1 0 0 1 59.3405 95.5011)"><tspan x="0" y="0" style="fill:#111214; font-family:'Poppins-Regular'; font-size:25.9969px;">Hi! I’m </tspan><tspan x="84.853" y="0" style="fill:#111214; font-family:'Poppins-Bold'; font-size:25.9969px;">Tom Lord</tspan></text>
	<g id="XMLID_5_">
		<g>
			<g id="XMLID_18_">
				
					<rect x="287.099" y="93.36" transform="matrix(0.7071 -0.7071 0.7071 0.7071 8.258 236.2588)" style="fill:#111214;" width="4.439" height="29.601"/>
			</g>
			<g id="XMLID_17_">
				
					<rect x="274.518" y="105.942" transform="matrix(0.7071 -0.7071 0.7071 0.7071 8.258 236.2588)" style="fill:#111214;" width="29.601" height="4.439"/>
			</g>
		</g>
	</g>
</g>
<rect x="35.873" y="-14.167" style="fill:#111214;" width="4.909" height="109.754"/>
<g>
	<g>
		
			<text transform="matrix(1 0 0 1 264.8595 147.5482)" style="fill:#111214; font-family:'Poppins-Medium'; font-size:9.9123px; letter-spacing:2;">123 St. Street</text>
		<path id="CUSTOM_27_" style="fill:#111214;" d="M249.15,136.406c-3.2,0-5.793,2.594-5.793,5.794c0,2.723,4.195,8.154,5.446,9.712
			c0.184,0.23,0.511,0.23,0.695,0c1.251-1.558,5.446-6.989,5.446-9.712C254.944,139,252.35,136.406,249.15,136.406z M249.15,144.825
			c-1.45,0-2.626-1.176-2.626-2.626c0-1.45,1.176-2.626,2.626-2.626c1.45,0,2.626,1.176,2.626,2.626
			C251.776,143.65,250.601,144.825,249.15,144.825z"/>
	</g>
	<g>
		
			<text transform="matrix(1 0 0 1 465.3185 147.5482)" style="fill:#111214; font-family:'Poppins-Medium'; font-size:9.9123px; letter-spacing:2;">email@name</text>
		<g id="CUSTOM-GROUP_3_">
			<path style="fill:#111214;" d="M448.706,146.439l-6.421-4.539v9.034c0,0.132,0.107,0.239,0.239,0.239h12.64
				c0.132,0,0.239-0.107,0.239-0.239V141.9l-6.421,4.539C448.899,146.497,448.789,146.497,448.706,146.439z"/>
			<path style="fill:#111214;" d="M448.982,137.361l6.421,4.539h-13.118l6.421-4.539
				C448.789,137.303,448.899,137.303,448.982,137.361z"/>
		</g>
	</g>
	<g>
		
			<text transform="matrix(1 0 0 1 81.3458 147.5482)" style="fill:#111214; font-family:'Poppins-Medium'; font-size:9.9123px; letter-spacing:2;">123.456.7890</text>
		<path id="CUSTOM_24_" style="fill:#111214;" d="M62.776,141.58l-2.773-3.668c0.473-0.358,0.946-0.717,1.42-1.076
			c0.219-0.166,0.531-0.126,0.697,0.091l2.16,2.859c0.165,0.218,0.121,0.534-0.1,0.7l-0.626,0.472l-0.582,0.441
			C62.901,141.453,62.835,141.513,62.776,141.58z M64.697,147.194c-0.464-0.527-0.903-1.079-1.326-1.637
			c-0.422-0.561-0.832-1.132-1.213-1.724c-0.312-0.481-0.299-1.113-0.032-1.61l-2.847-3.764c-0.879,0.684-1.052,2.658-0.448,4.498
			c0.259,0.795,0.635,1.533,1.031,2.24c0.396,0.702,0.844,1.375,1.325,2.016c0.483,0.641,1.006,1.257,1.575,1.829
			c0.572,0.576,1.182,1.135,1.872,1.599c1.608,1.081,3.557,1.446,4.454,0.785l-2.847-3.764
			C65.69,147.783,65.077,147.625,64.697,147.194z M71.333,149.109l-2.161-2.857c-0.166-0.217-0.482-0.261-0.701-0.095l-0.001,0
			l-0.628,0.474l-0.579,0.44c-0.071,0.054-0.148,0.1-0.228,0.141l2.773,3.667c0.474-0.359,0.947-0.716,1.422-1.074
			C71.452,149.639,71.499,149.328,71.333,149.109z"/>
	</g>
</g>
<g>
	<rect x="-12.447" y="195.871" style="fill:#F1CB28;" width="166.667" height="18.523"/>
	<rect x="55.63" y="241.672" style="fill:none;" width="226.983" height="158.103"/>
	<text transform="matrix(0.9069 0 0 1 55.6301 248.333)"><tspan x="0" y="0" style="fill:#111214; font-family:'Poppins-Regular'; font-size:9px;">Lorem ipsum dolor sit amet, consectetuer adipiscing </tspan><tspan x="0" y="13.116" style="fill:#111214; font-family:'Poppins-Regular'; font-size:9px;">elit, sed diam nonummy nibh euismod tincidunt ut </tspan><tspan x="0" y="26.232" style="fill:#111214; font-family:'Poppins-Regular'; font-size:9px;">laoreet dolore magna aliquam erat volutpat. Ut wisi </tspan><tspan x="0" y="39.348" style="fill:#111214; font-family:'Poppins-Regular'; font-size:9px;">enim ad minim veniam, quis nostrud exerci tation </tspan><tspan x="0" y="52.464" style="fill:#111214; font-family:'Poppins-Regular'; font-size:9px;">ullamcorper suscipit lobortis nisl ut aliquip ex ea </tspan><tspan x="0" y="65.58" style="fill:#111214; font-family:'Poppins-Regular'; font-size:9px;">commodo consequat. Duis autem vel eum iriure dolor </tspan><tspan x="0" y="78.696" style="fill:#111214; font-family:'Poppins-Regular'; font-size:9px;">in hendrerit in vulputate velit esse molestie consequat, </tspan><tspan x="0" y="91.812" style="fill:#111214; font-family:'Poppins-Regular'; font-size:9px;">vel illum dolore eu feugiat nulla facilisis at vero eros et </tspan><tspan x="0" y="104.928" style="fill:#111214; font-family:'Poppins-Regular'; font-size:9px;">accumsan et iusto odio dignissim qui blandit praesent </tspan><tspan x="0" y="118.044" style="fill:#111214; font-family:'Poppins-Regular'; font-size:9px;">luptatum zzril delenit augue duis dolore te feugait nulla </tspan><tspan x="0" y="131.16" style="fill:#111214; font-family:'Poppins-Regular'; font-size:9px;">facilisi.</tspan></text>
	<text transform="matrix(1 0 0 1 55.6299 210.3896)" style="fill:#111214; font-family:'Poppins-Bold'; font-size:14px;">Profile</text>
</g>
<g>
	<g>
		<path style="fill:#111214;" d="M562.116,408.813H43.396V170.201h518.721V408.813z M45.267,406.942h514.979v-234.87H45.267V406.942
			z"/>
	</g>
	<g>
		<rect x="296.702" y="171.302" style="fill:#111214;" width="1.871" height="236.576"/>
	</g>
</g>
<g>
	<text transform="matrix(1 0 0 1 314.9821 212.1977)" style="fill:#111214; font-family:'Poppins-Bold'; font-size:14px;">Languages</text>
	<g>
		<text transform="matrix(1 0 0 1 314.982 237.7683)" style="fill:#111214; font-family:'Poppins-Medium'; font-size:9.9123px;">language 01</text>
	</g>
	<g>
		<text transform="matrix(1 0 0 1 360.9781 251.6292)" style="fill:#111214; font-family:'Poppins-SemiBold'; font-size:10px;">90%</text>
	</g>
	<rect x="314.982" y="244.436" style="fill:#F1CB28;" width="43.803" height="7.229"/>
	<g>
		<text transform="matrix(1 0 0 1 395.8934 237.7683)" style="fill:#111214; font-family:'Poppins-Medium'; font-size:9.9123px;">language 02</text>
	</g>
	<g>
		<text transform="matrix(1 0 0 1 440.7665 251.6292)" style="fill:#111214; font-family:'Poppins-SemiBold'; font-size:10px;">75%</text>
	</g>
	<rect x="395.758" y="244.276" style="fill:#F1CB28;" width="36.15" height="7.389"/>
	<g>
		<text transform="matrix(1 0 0 1 475.6103 237.7683)" style="fill:#111214; font-family:'Poppins-Medium'; font-size:9.9123px;">language 03</text>
	</g>
	<g>
		<text transform="matrix(1 0 0 1 519.5434 251.6292)" style="fill:#111214; font-family:'Poppins-SemiBold'; font-size:10px;">60%</text>
	</g>
	<rect x="475.474" y="244.276" style="fill:#F1CB28;" width="26.625" height="7.389"/>
</g>
<g>
	<text transform="matrix(1 0 0 1 314.9829 298.28)" style="fill:#111214; font-family:'Poppins-Bold'; font-size:14px;">Skills</text>
	<g>
		<rect x="374.722" y="324.326" style="fill:#F1CB28;" width="36.628" height="6.842"/>
		<g>
			<text transform="matrix(1 0 0 1 314.9826 331.1366)" style="fill:#111214; font-family:'Poppins-Medium'; font-size:9.9123px;">EUISMOD </text>
		</g>
	</g>
	<g>
		<rect x="374.722" y="348.582" style="fill:#F1CB28;" width="60.343" height="6.842"/>
		<g>
			<text transform="matrix(1 0 0 1 314.9821 355.644)" style="fill:#111214; font-family:'Poppins-Medium'; font-size:9.9123px;">TINCIDUNt</text>
		</g>
	</g>
	<g>
		<rect x="374.722" y="372.837" style="fill:#F1CB28;" width="45.384" height="6.842"/>
		<g>
			<text transform="matrix(1 0 0 1 314.9826 380.1509)" style="fill:#111214; font-family:'Poppins-Medium'; font-size:9.9123px;">LAOREET</text>
		</g>
	</g>
	<g>
		<rect x="491.742" y="324.326" style="fill:#F1CB28;" width="41.1" height="6.842"/>
		<g>
			<text transform="matrix(1 0 0 1 446.1111 331.1365)" style="fill:#111214; font-family:'Poppins-Medium'; font-size:9.9123px;">DOLORE</text>
		</g>
	</g>
	<g>
		<rect x="491.742" y="348.582" style="fill:#F1CB28;" width="50.866" height="6.842"/>
		<g>
			<text transform="matrix(1 0 0 1 446.1109 355.6437)" style="fill:#111214; font-family:'Poppins-Medium'; font-size:9.9123px;">MAGNA</text>
		</g>
	</g>
	<g>
		<rect x="491.742" y="372.837" style="fill:#F1CB28;" width="57.7" height="6.842"/>
		<g>
			<text transform="matrix(1 0 0 1 446.1106 380.1512)" style="fill:#111214; font-family:'Poppins-Medium'; font-size:9.9123px;">Lorem</text>
		</g>
	</g>
</g>
<g>
	<rect x="-12.447" y="435.185" style="fill:#F1CB28;" width="166.667" height="18.523"/>
	<rect x="55.63" y="476.866" style="fill:none;" width="175.878" height="49.836"/>
	<text transform="matrix(1 0 0 1 55.6303 485.7455)"><tspan x="0" y="0" style="fill:#111214; font-family:'Poppins-Bold'; font-size:12px; letter-spacing:1;">name school</tspan><tspan x="0" y="12.886" style="fill:#111214; font-family:'Poppins-Regular'; font-size:10px;">BARCHELOR</tspan><tspan x="0" y="25.772" style="fill:#111214; font-family:'Poppins-Regular'; font-size:9px; letter-spacing:1;">2002 - 2004</tspan></text>
	<rect x="213.741" y="476.866" style="fill:none;" width="175.878" height="49.836"/>
	<text transform="matrix(1 0 0 1 213.741 485.7455)"><tspan x="0" y="0" style="fill:#111214; font-family:'Poppins-Bold'; font-size:12px; letter-spacing:1;">NAME UNIVERSITY</tspan><tspan x="0" y="12.886" style="fill:#111214; font-family:'Poppins-Regular'; font-size:10px;">CAREER</tspan><tspan x="0" y="25.772" style="fill:#111214; font-family:'Poppins-Regular'; font-size:9px; letter-spacing:1;">2005 - 2009</tspan></text>
	<rect x="406.082" y="476.866" style="fill:none;" width="175.878" height="49.836"/>
	<text transform="matrix(1 0 0 1 406.0818 485.7455)"><tspan x="0" y="0" style="fill:#111214; font-family:'Poppins-Bold'; font-size:12px; letter-spacing:1;">NAME UNIVERSITY</tspan><tspan x="0" y="12.886" style="fill:#111214; font-family:'Poppins-Regular'; font-size:10px;">MASTER</tspan><tspan x="0" y="25.772" style="fill:#111214; font-family:'Poppins-Regular'; font-size:9px; letter-spacing:1;">2010 - 2011</tspan></text>
	<g>
		<text transform="matrix(1 0 0 1 55.63 449.7818)" style="fill:#111214; font-family:'Poppins-Bold'; font-size:14px;">Education</text>
	</g>
</g>
<g>
	<rect x="-12.447" y="547.952" style="fill:#F1CB28;" width="166.667" height="18.523"/>
	<g>
		<text transform="matrix(1 0 0 1 55.63 561.7962)" style="fill:#111214; font-family:'Poppins-Bold'; font-size:14px;">Experience</text>
	</g>
	<g>
		<rect x="55.63" y="588.506" style="fill:none;" width="153.836" height="38.827"/>
		<text transform="matrix(1 0 0 1 55.6301 595.1657)"><tspan x="0" y="0" style="fill:#111214; font-family:'Poppins-Regular'; font-size:9px; letter-spacing:1;">2016 - actuality</tspan><tspan x="0" y="15" style="fill:#111214; font-family:'Poppins-Bold'; font-size:12px; letter-spacing:1;">NAME COMPANY</tspan><tspan x="0" y="30" style="fill:#111214; font-family:'Poppins-Regular'; font-size:12px;">JOB POSITION</tspan></text>
		<g>
			<rect x="230.633" y="580.354" style="fill:none;" width="334.392" height="13.386"/>
			<text transform="matrix(0.9069 0 0 1 230.6327 587.0136)" style="fill:#111214; font-family:'Poppins-Regular'; font-size:9px;">Lorem ipsum dolor sit amet, consectetuer adipiscing elit, sed diam nonummy </text>
		</g>
		<rect x="218.284" y="579.749" style="fill:#F1CB28;" width="8.284" height="8.284"/>
		<g>
			<rect x="230.633" y="596.135" style="fill:none;" width="334.392" height="13.386"/>
			<text transform="matrix(0.9069 0 0 1 230.6327 602.7953)" style="fill:#111214; font-family:'Poppins-Regular'; font-size:9px;">Lorem ipsum dolor sit amet, consectetuer adipiscing elit, sed diam nonummy </text>
		</g>
		<rect x="218.284" y="595.529" style="fill:#F1CB28;" width="8.284" height="8.284"/>
		<g>
			<rect x="230.633" y="611.915" style="fill:none;" width="334.392" height="13.386"/>
			<text transform="matrix(0.9069 0 0 1 230.6327 618.5751)" style="fill:#111214; font-family:'Poppins-Regular'; font-size:9px;">Lorem ipsum dolor sit amet, consectetuer adipiscing elit, sed diam nonummy </text>
		</g>
		<rect x="218.284" y="611.31" style="fill:#F1CB28;" width="8.284" height="8.284"/>
	</g>
	<g>
		<rect x="55.63" y="746.66" style="fill:none;" width="153.836" height="38.827"/>
		<text transform="matrix(1 0 0 1 55.6301 753.3198)"><tspan x="0" y="0" style="fill:#111214; font-family:'Poppins-Regular'; font-size:9px; letter-spacing:1;">2011 - 2014</tspan><tspan x="0" y="15" style="fill:#111214; font-family:'Poppins-Bold'; font-size:12px; letter-spacing:1;">NAME COMPANY</tspan><tspan x="0" y="30" style="fill:#111214; font-family:'Poppins-Regular'; font-size:12px;">JOB POSITION</tspan></text>
		<g>
			<rect x="230.633" y="749.578" style="fill:none;" width="334.392" height="13.386"/>
			<text transform="matrix(0.9069 0 0 1 230.6327 756.2383)" style="fill:#111214; font-family:'Poppins-Regular'; font-size:9px;">Lorem ipsum dolor sit amet, consectetuer adipiscing elit, sed diam nonummy </text>
		</g>
		<rect x="218.284" y="748.973" style="fill:#F1CB28;" width="8.284" height="8.284"/>
		<g>
			<rect x="230.633" y="765.359" style="fill:none;" width="334.392" height="13.386"/>
			<text transform="matrix(0.9069 0 0 1 230.6327 772.019)" style="fill:#111214; font-family:'Poppins-Regular'; font-size:9px;">Lorem ipsum dolor sit amet, consectetuer adipiscing elit, sed diam nonummy </text>
		</g>
		<rect x="218.284" y="764.754" style="fill:#F1CB28;" width="8.284" height="8.284"/>
		<g>
			<rect x="230.633" y="781.14" style="fill:none;" width="334.392" height="13.386"/>
			<text transform="matrix(0.9069 0 0 1 230.6327 787.7998)" style="fill:#111214; font-family:'Poppins-Regular'; font-size:9px;">Lorem ipsum dolor sit amet, consectetuer adipiscing elit, sed diam nonummy </text>
		</g>
		<rect x="218.284" y="780.535" style="fill:#F1CB28;" width="8.284" height="8.284"/>
	</g>
	<g>
		<rect x="55.63" y="667.583" style="fill:none;" width="153.836" height="38.827"/>
		<text transform="matrix(1 0 0 1 55.6301 674.2427)"><tspan x="0" y="0" style="fill:#111214; font-family:'Poppins-Regular'; font-size:9px; letter-spacing:1;">2014 - 2016</tspan><tspan x="0" y="15" style="fill:#111214; font-family:'Poppins-Bold'; font-size:12px; letter-spacing:1;">NAME COMPANY</tspan><tspan x="0" y="30" style="fill:#111214; font-family:'Poppins-Regular'; font-size:12px;">JOB POSITION</tspan></text>
		<g>
			<rect x="230.633" y="652.082" style="fill:none;" width="334.392" height="13.386"/>
			<text transform="matrix(0.9069 0 0 1 230.6327 658.7421)" style="fill:#111214; font-family:'Poppins-Regular'; font-size:9px;">Lorem ipsum dolor sit amet, consectetuer adipiscing elit, sed diam nonummy </text>
		</g>
		<rect x="218.284" y="651.477" style="fill:#F1CB28;" width="8.284" height="8.284"/>
		<g>
			<rect x="230.633" y="667.863" style="fill:none;" width="334.392" height="13.386"/>
			<text transform="matrix(0.9069 0 0 1 230.6327 674.5238)" style="fill:#111214; font-family:'Poppins-Regular'; font-size:9px;">Lorem ipsum dolor sit amet, consectetuer adipiscing elit, sed diam nonummy </text>
		</g>
		<rect x="218.284" y="667.258" style="fill:#F1CB28;" width="8.284" height="8.284"/>
		<g>
			<rect x="230.633" y="683.644" style="fill:none;" width="334.392" height="13.386"/>
			<text transform="matrix(0.9069 0 0 1 230.6327 690.3036)" style="fill:#111214; font-family:'Poppins-Regular'; font-size:9px;">Lorem ipsum dolor sit amet, consectetuer adipiscing elit, sed diam nonummy </text>
		</g>
		<rect x="218.284" y="683.039" style="fill:#F1CB28;" width="8.284" height="8.284"/>
		<g>
			<rect x="230.633" y="697.72" style="fill:none;" width="334.392" height="13.386"/>
			<text transform="matrix(0.9069 0 0 1 230.6327 704.3812)" style="fill:#111214; font-family:'Poppins-Regular'; font-size:9px;">Lorem ipsum dolor sit amet, consectetuer adipiscing elit, sed diam nonummy </text>
		</g>
		<rect x="218.284" y="697.115" style="fill:#F1CB28;" width="8.284" height="8.284"/>
	</g>
</g>
</svg>
