<?xml version="1.0" encoding="utf-8"?>
<!-- Generator: Adobe Illustrator 27.5.0, SVG Export Plug-In . SVG Version: 6.00 Build 0)  -->
<svg version="1.1" id="PRINT" xmlns="http://www.w3.org/2000/svg" xmlns:xlink="http://www.w3.org/1999/xlink" x="0px" y="0px"
	 viewBox="0 0 595.28 841.89" style="enable-background:new 0 0 595.28 841.89;" xml:space="preserve">
<g>
	<rect x="-14.171" y="-14.173" style="fill:#FFFFFF;" width="623.622" height="870.236"/>
	<rect x="-14.171" y="-14.173" style="fill:#E4E4E3;" width="256.451" height="870.236"/>
	<g>
		<rect x="41.839" y="244.431" style="fill:none;" width="165.449" height="78.924"/>
		<text transform="matrix(1 0 0 1 41.8386 249.4003)"><tspan x="0" y="0" style="fill:#707475; font-family:'Montserrat-ExtraLight'; font-size:6.6974px;">Lorem ipsum dolor sit amet, consectetur </tspan><tspan x="0" y="7.873" style="fill:#707475; font-family:'Montserrat-ExtraLight'; font-size:6.6974px;">adipiscing elit. Suspendisse porttitor eget lorem </tspan><tspan x="0" y="15.745" style="fill:#707475; font-family:'Montserrat-ExtraLight'; font-size:6.6974px;">eu luctus. Fusce id massa fringilla, tincidunt nibh </tspan><tspan x="0" y="23.618" style="fill:#707475; font-family:'Montserrat-ExtraLight'; font-size:6.6974px;">eget, dignissim ligula. In blandit erat lectus, non </tspan><tspan x="0" y="31.49" style="fill:#707475; font-family:'Montserrat-ExtraLight'; font-size:6.6974px;">blandit mauris lobortis non. Lorem ipsum dolor sit </tspan><tspan x="0" y="39.362" style="fill:#707475; font-family:'Montserrat-ExtraLight'; font-size:6.6974px;">amet, consectetur adipiscing elit. Suspendisse </tspan><tspan x="0" y="47.235" style="fill:#707475; font-family:'Montserrat-ExtraLight'; font-size:6.6974px;">porttitor eget lorem eu luctus. Lorem ipsum dolor </tspan><tspan x="0" y="55.107" style="fill:#707475; font-family:'Montserrat-ExtraLight'; font-size:6.6974px;">sit amet, consectetuer adipiscing elit, sed diam </tspan><tspan x="0" y="62.979" style="fill:#707475; font-family:'Montserrat-ExtraLight'; font-size:6.6974px;">nonummy nibh euismod tincidunt ut laoreet </tspan><tspan x="0" y="70.852" style="fill:#707475; font-family:'Montserrat-ExtraLight'; font-size:6.6974px;">dolore magna aliquam erat.</tspan></text>
	</g>
	<g>
		<text transform="matrix(1 0 0 1 41.839 223.9778)" style="font-family:'AngleciaProDisplay-Regular'; font-size:18.4951px;">ABOUT ME</text>
	</g>
	<g>
		<text transform="matrix(1 0 0 1 274.3742 223.9683)" style="font-family:'AngleciaProDisplay-Regular'; font-size:18.4951px;">EDUCATION</text>
	</g>
	<g>
		<g>
			<rect x="275.374" y="269.022" style="fill:none;" width="273.599" height="23.064"/>
			<text transform="matrix(1 0 0 1 275.3742 273.9917)"><tspan x="0" y="0" style="fill:#707475; font-family:'Montserrat-ExtraLight'; font-size:6.6974px;">Lorem ipsum dolor sit amet, consectetur adipiscing elit. Suspendisse porttitor eget </tspan><tspan x="0" y="7.873" style="fill:#707475; font-family:'Montserrat-ExtraLight'; font-size:6.6974px;">lorem eu luctus.Lorem ipsum dolor sit amet, consectetuer adipiscing elit, sed diam </tspan><tspan x="0" y="15.745" style="fill:#707475; font-family:'Montserrat-ExtraLight'; font-size:6.6974px;">nonummy nibh euismod tincidunt ut laoreet </tspan></text>
		</g>
		<g>
			
				<text transform="matrix(1 0 0 1 275.3742 265.6187)" style="fill:#303335; font-family:'AngleciaProDisplay-Regular'; font-size:7.2892px;">Lorem ipsum</text>
		</g>
		<g>
			<text transform="matrix(1 0 0 1 275.3742 252.585)" style="font-family:'AngleciaProDisplay-Regular'; font-size:9.5929px;">LOREM IPSUM</text>
		</g>
		<g>
			<rect x="275.374" y="325.184" style="fill:none;" width="279.58" height="23.064"/>
			<text transform="matrix(1 0 0 1 275.3742 330.1533)"><tspan x="0" y="0" style="fill:#707475; font-family:'Montserrat-ExtraLight'; font-size:6.6974px;">Lorem ipsum dolor sit amet, consectetur adipiscing elit. Suspendisse porttitor eget </tspan><tspan x="0" y="7.872" style="fill:#707475; font-family:'Montserrat-ExtraLight'; font-size:6.6974px;">lorem eu luctus.Lorem ipsum dolor sit amet, consectetuer adipiscing elit, sed diam </tspan><tspan x="0" y="15.744" style="fill:#707475; font-family:'Montserrat-ExtraLight'; font-size:6.6974px;">nonummy nibh euismod </tspan></text>
		</g>
		<g>
			
				<text transform="matrix(1 0 0 1 275.3742 321.7803)" style="fill:#303335; font-family:'AngleciaProDisplay-Regular'; font-size:7.2892px;">Lorem ipsum</text>
		</g>
		<g>
			<text transform="matrix(1 0 0 1 275.3742 308.7466)" style="font-family:'AngleciaProDisplay-Regular'; font-size:9.5929px;">LOREM IPSUM</text>
		</g>
		<g>
			<rect x="275.374" y="381.345" style="fill:none;" width="282.848" height="23.064"/>
			<text transform="matrix(1 0 0 1 275.3742 386.3145)"><tspan x="0" y="0" style="fill:#707475; font-family:'Montserrat-ExtraLight'; font-size:6.6974px;">Lorem ipsum dolor sit amet, consectetur adipiscing elit. Suspendisse porttitor eget </tspan><tspan x="0" y="7.872" style="fill:#707475; font-family:'Montserrat-ExtraLight'; font-size:6.6974px;">lorem eu luctus.Lorem ipsum dolor sit amet, consectetuer adipiscing elit, sed diam </tspan><tspan x="0" y="15.744" style="fill:#707475; font-family:'Montserrat-ExtraLight'; font-size:6.6974px;">nonummy nibh euismod </tspan></text>
		</g>
		<g>
			
				<text transform="matrix(1 0 0 1 275.3742 377.9414)" style="fill:#303335; font-family:'AngleciaProDisplay-Regular'; font-size:7.2892px;">Lorem ipsum</text>
		</g>
		<g>
			<text transform="matrix(1 0 0 1 275.3742 364.9082)" style="font-family:'AngleciaProDisplay-Regular'; font-size:9.5929px;">LOREM IPSUM</text>
		</g>
	</g>
	<g>
		<g>
			<text transform="matrix(1 0 0 1 274.3742 482.3888)" style="font-family:'AngleciaProDisplay-Regular'; font-size:18.4951px;">EXPERIENCE</text>
		</g>
		<g>
			<g>
				<rect x="275.374" y="531.814" style="fill:none;" width="267.174" height="23.064"/>
				<text transform="matrix(1 0 0 1 275.3742 536.7826)"><tspan x="0" y="0" style="fill:#707475; font-family:'Montserrat-ExtraLight'; font-size:6.6974px;">Lorem ipsum dolor sit amet, consectetur adipiscing elit. Suspendisse porttitor </tspan><tspan x="0" y="7.873" style="fill:#707475; font-family:'Montserrat-ExtraLight'; font-size:6.6974px;">eget lorem eu luctus.Lorem ipsum dolor sit amet, consectetuer adipiscing elit, </tspan><tspan x="0" y="15.745" style="fill:#707475; font-family:'Montserrat-ExtraLight'; font-size:6.6974px;">sed diam nonummy nibh euismod tincidunt ut laoreet </tspan></text>
			</g>
			<g>
				
					<text transform="matrix(1 0 0 1 275.3742 528.41)" style="fill:#303335; font-family:'AngleciaProDisplay-Regular'; font-size:7.2892px;">Lorem ipsum</text>
			</g>
			<g>
				<text transform="matrix(1 0 0 1 275.3742 515.3763)" style="font-family:'AngleciaProDisplay-Regular'; font-size:9.5929px;">LOREM IPSUM</text>
			</g>
		</g>
		<g>
			<g>
				<rect x="275.374" y="587.975" style="fill:none;" width="279.58" height="23.064"/>
				<text transform="matrix(1 0 0 1 275.3742 592.9447)"><tspan x="0" y="0" style="fill:#707475; font-family:'Montserrat-ExtraLight'; font-size:6.6974px;">Lorem ipsum dolor sit amet, consectetur adipiscing elit. Suspendisse porttitor eget </tspan><tspan x="0" y="7.872" style="fill:#707475; font-family:'Montserrat-ExtraLight'; font-size:6.6974px;">lorem eu luctus.Lorem ipsum dolor sit amet, consectetuer adipiscing elit, sed diam </tspan><tspan x="0" y="15.744" style="fill:#707475; font-family:'Montserrat-ExtraLight'; font-size:6.6974px;">nonummy nibh euismod </tspan></text>
			</g>
			<g>
				
					<text transform="matrix(1 0 0 1 275.3742 584.5717)" style="fill:#303335; font-family:'AngleciaProDisplay-Regular'; font-size:7.2892px;">Lorem ipsum</text>
			</g>
			<g>
				<text transform="matrix(1 0 0 1 275.3742 571.538)" style="font-family:'AngleciaProDisplay-Regular'; font-size:9.5929px;">LOREM IPSUM</text>
			</g>
		</g>
		<g>
			<g>
				<rect x="275.374" y="644.136" style="fill:none;" width="282.848" height="23.064"/>
				<text transform="matrix(1 0 0 1 275.3742 649.1058)"><tspan x="0" y="0" style="fill:#707475; font-family:'Montserrat-ExtraLight'; font-size:6.6974px;">Lorem ipsum dolor sit amet, consectetur adipiscing elit. Suspendisse porttitor eget </tspan><tspan x="0" y="7.872" style="fill:#707475; font-family:'Montserrat-ExtraLight'; font-size:6.6974px;">lorem eu luctus.Lorem ipsum dolor sit amet, consectetuer adipiscing elit, sed diam </tspan><tspan x="0" y="15.744" style="fill:#707475; font-family:'Montserrat-ExtraLight'; font-size:6.6974px;">nonummy nibh euismod </tspan></text>
			</g>
			<g>
				
					<text transform="matrix(1 0 0 1 275.3742 640.7328)" style="fill:#303335; font-family:'AngleciaProDisplay-Regular'; font-size:7.2892px;">Lorem ipsum</text>
			</g>
			<g>
				<text transform="matrix(1 0 0 1 275.3742 627.6996)" style="font-family:'AngleciaProDisplay-Regular'; font-size:9.5929px;">LOREM IPSUM</text>
			</g>
		</g>
		<g>
			<g>
				<rect x="275.374" y="700.297" style="fill:none;" width="279.58" height="23.064"/>
				<text transform="matrix(1 0 0 1 275.3742 705.2673)"><tspan x="0" y="0" style="fill:#707475; font-family:'Montserrat-ExtraLight'; font-size:6.6974px;">Lorem ipsum dolor sit amet, consectetur adipiscing elit. Suspendisse porttitor eget </tspan><tspan x="0" y="7.872" style="fill:#707475; font-family:'Montserrat-ExtraLight'; font-size:6.6974px;">lorem eu luctus.Lorem ipsum dolor sit amet, consectetuer adipiscing elit, sed diam </tspan><tspan x="0" y="15.744" style="fill:#707475; font-family:'Montserrat-ExtraLight'; font-size:6.6974px;">nonummy nibh euismod </tspan></text>
			</g>
			<g>
				
					<text transform="matrix(1 0 0 1 275.3742 696.8943)" style="fill:#303335; font-family:'AngleciaProDisplay-Regular'; font-size:7.2892px;">Lorem ipsum</text>
			</g>
			<g>
				<text transform="matrix(1 0 0 1 275.3742 683.8606)" style="font-family:'AngleciaProDisplay-Regular'; font-size:9.5929px;">LOREM IPSUM</text>
			</g>
		</g>
		<g>
			<g>
				<rect x="275.374" y="756.459" style="fill:none;" width="282.848" height="23.064"/>
				<text transform="matrix(1 0 0 1 275.3742 761.4285)"><tspan x="0" y="0" style="fill:#707475; font-family:'Montserrat-ExtraLight'; font-size:6.6974px;">Lorem ipsum dolor sit amet, consectetur adipiscing elit. Suspendisse porttitor eget </tspan><tspan x="0" y="7.872" style="fill:#707475; font-family:'Montserrat-ExtraLight'; font-size:6.6974px;">lorem eu luctus.Lorem ipsum dolor sit amet, consectetuer adipiscing elit, sed diam </tspan><tspan x="0" y="15.744" style="fill:#707475; font-family:'Montserrat-ExtraLight'; font-size:6.6974px;">nonummy nibh euismod </tspan></text>
			</g>
			<g>
				
					<text transform="matrix(1 0 0 1 275.3742 753.0554)" style="fill:#303335; font-family:'AngleciaProDisplay-Regular'; font-size:7.2892px;">Lorem ipsum</text>
			</g>
			<g>
				<text transform="matrix(1 0 0 1 275.3742 740.0222)" style="font-family:'AngleciaProDisplay-Regular'; font-size:9.5929px;">LOREM IPSUM</text>
			</g>
		</g>
	</g>
	<g>
		<g>
			<text transform="matrix(1 0 0 1 40.8391 367.7904)" style="font-family:'AngleciaProDisplay-Regular'; font-size:18.4951px;">GET CONTACT</text>
		</g>
		<g>
			<path style="fill:#303335;" d="M54.552,387.411c-2.529-0.588-8.429-0.588-10.958,0c-2.528,0.588-1.58,4.125-1.58,4.125
				c2.476,0.72,3.947-0.921,3.947-0.921l-0.065-0.363c-0.12-0.675,0.341-1.303,0.947-1.288l2.23,0.055l2.23-0.055
				c0.605-0.015,1.067,0.613,0.947,1.288l-0.065,0.363c0,0,1.471,1.641,3.948,0.921C56.132,391.536,57.08,387.999,54.552,387.411z"
				/>
			<g>
				
					<text transform="matrix(1 0 0 1 62.1679 391.453)" style="fill:#707475; font-family:'AngleciaProDisplay-Italic'; font-size:7.1952px;">+1234567890</text>
			</g>
			<g>
				<g>
					<g>
						<polygon style="fill:#303335;" points="49.073,409.502 54.399,405.692 43.746,405.692 						"/>
					</g>
					<g>
						<polygon style="fill:#303335;" points="55.075,406.176 50.919,409.147 55.075,412.339 						"/>
					</g>
					<g>
						<polygon style="fill:#303335;" points="54.429,412.835 50.25,409.626 49.073,410.468 47.895,409.626 43.716,412.835 						"/>
					</g>
					<g>
						<polygon style="fill:#303335;" points="43.071,412.835 43.071,412.835 43.071,412.835 						"/>
					</g>
					<g>
						<polygon style="fill:#303335;" points="43.071,412.339 47.226,409.147 43.071,406.176 						"/>
					</g>
				</g>
			</g>
			<g>
				
					<text transform="matrix(1 0 0 1 62.2031 411.4232)" style="fill:#707475; font-family:'AngleciaProDisplay-Italic'; font-size:7.1952px;">your-name@email.com</text>
			</g>
			<path style="fill:#303335;" d="M49.073,423.235c-2.568,0-4.65,2.082-4.65,4.65s4.65,8.807,4.65,8.807s4.65-6.24,4.65-8.807
				S51.64,423.235,49.073,423.235z M49.073,430.099c-1.223,0-2.215-0.991-2.215-2.214c0-1.223,0.991-2.215,2.215-2.215
				c1.223,0,2.214,0.991,2.214,2.215C51.287,429.108,50.296,430.099,49.073,430.099z"/>
			<g>
				
					<text transform="matrix(1 0 0 1 62.1679 432.0726)" style="fill:#707475; font-family:'AngleciaProDisplay-Italic'; font-size:7.1952px;">lorem ipsum street 58517</text>
			</g>
		</g>
	</g>
	<g>
		<text transform="matrix(1 0 0 1 277.6106 81.25)" style="font-family:'AngleciaProDisplay-Regular'; font-size:49.0446px;">Jane</text>
		<text transform="matrix(1 0 0 1 269.6575 123.5645)" style="font-family:'AngleciaProDisplay-Regular'; font-size:49.0446px;">Amanda</text>
	</g>
	<g>
		
			<text transform="matrix(1 0 0 1 273.6575 146.5858)" style="fill:#707475; font-family:'Montserrat-Light'; font-size:10.9787px;">GRAPHIC DESIGNER</text>
	</g>
	<g>
		<text transform="matrix(1 0 0 1 83.039 114.4891)" style="font-family:'AngleciaProDisplay-Regular'; font-size:59.0513px;">JA</text>
		<circle style="fill:none;stroke:#000000;stroke-width:4;stroke-miterlimit:10;" cx="109.947" cy="96.775" r="51.873"/>
	</g>
	
		<line style="fill:none;stroke:#000000;stroke-width:0.5;stroke-miterlimit:10;" x1="273.657" y1="182.545" x2="555.463" y2="182.545"/>
	<g>
		<g>
			<text transform="matrix(1 0 0 1 40.8396 482.3892)" style="font-family:'AngleciaProDisplay-Regular'; font-size:18.4951px;">SKILLS</text>
		</g>
		<g>
			<text transform="matrix(1 0 0 1 41.8543 515.4913)" style="font-family:'AngleciaProDisplay-Regular'; font-size:7.2892px;">Illustration</text>
		</g>
		<g>
			<text transform="matrix(1 0 0 1 41.8543 535.0494)" style="font-family:'AngleciaProDisplay-Regular'; font-size:7.2892px;">Layout</text>
		</g>
		<g>
			<text transform="matrix(1 0 0 1 41.8543 554.6075)" style="font-family:'AngleciaProDisplay-Regular'; font-size:7.2892px;">Web Design</text>
		</g>
		<g>
			<text transform="matrix(1 0 0 1 41.8543 574.1656)" style="font-family:'AngleciaProDisplay-Regular'; font-size:7.2892px;">Editorial</text>
		</g>
		<g>
			<text transform="matrix(1 0 0 1 41.8543 593.7238)" style="font-family:'AngleciaProDisplay-Regular'; font-size:7.2892px;">Print Design</text>
		</g>
		<g>
			<text transform="matrix(1 0 0 1 41.8543 613.2818)" style="font-family:'AngleciaProDisplay-Regular'; font-size:7.2892px;">English</text>
		</g>
		<g>
			<text transform="matrix(1 0 0 1 41.8543 633.3093)" style="font-family:'AngleciaProDisplay-Regular'; font-size:7.2892px;">Spanish</text>
		</g>
		<g>
			<g>
				<circle style="fill:#FFFFFF;" cx="110.079" cy="513.218" r="6.136"/>
				<g>
					<path d="M110.079,516.354c-1.729,0-3.136-1.406-3.136-3.136c0-1.729,1.406-3.136,3.136-3.136s3.137,1.406,3.137,3.136
						C113.216,514.947,111.809,516.354,110.079,516.354z"/>
				</g>
				<path style="fill:#FFFFFF;" d="M138.091,513.218c0,3.389-2.747,6.136-6.136,6.136c-3.389,0-6.136-2.747-6.136-6.136
					c0-3.389,2.747-6.136,6.136-6.136C135.344,507.082,138.091,509.829,138.091,513.218z"/>
				<g>
					<path d="M131.955,516.354c-1.73,0-3.136-1.406-3.136-3.136c0-1.729,1.406-3.136,3.136-3.136c1.729,0,3.136,1.406,3.136,3.136
						C135.091,514.947,133.684,516.354,131.955,516.354z"/>
				</g>
				<circle style="fill:#FFFFFF;" cx="153.831" cy="513.218" r="6.136"/>
				<g>
					<path d="M153.831,516.354c-1.729,0-3.137-1.406-3.137-3.136c0-1.729,1.407-3.136,3.137-3.136c1.73,0,3.136,1.406,3.136,3.136
						C156.967,514.947,155.561,516.354,153.831,516.354z"/>
				</g>
				<path style="fill:#FFFFFF;" d="M181.842,513.218c0,3.389-2.747,6.136-6.136,6.136c-3.389,0-6.136-2.747-6.136-6.136
					c0-3.389,2.747-6.136,6.136-6.136C179.095,507.082,181.842,509.829,181.842,513.218z"/>
				<g>
					<path d="M175.706,516.354c-1.729,0-3.136-1.406-3.136-3.136c0-1.729,1.406-3.136,3.136-3.136c1.73,0,3.136,1.406,3.136,3.136
						C178.842,514.947,177.436,516.354,175.706,516.354z"/>
				</g>
				<circle style="fill:#FFFFFF;" cx="197.582" cy="513.218" r="6.136"/>
				<g>
					<path d="M197.582,516.354c-1.73,0-3.136-1.406-3.136-3.136c0-1.729,1.406-3.136,3.136-3.136c1.729,0,3.136,1.406,3.136,3.136
						C200.718,514.947,199.311,516.354,197.582,516.354z"/>
				</g>
			</g>
		</g>
		<g>
			<g>
				<circle style="fill:#FFFFFF;" cx="110.079" cy="532.332" r="6.136"/>
				<g>
					<path d="M110.079,535.468c-1.729,0-3.136-1.406-3.136-3.136c0-1.729,1.406-3.136,3.136-3.136s3.137,1.406,3.137,3.136
						C113.216,534.062,111.809,535.468,110.079,535.468z"/>
				</g>
				<path style="fill:#FFFFFF;" d="M138.091,532.332c0,3.389-2.747,6.136-6.136,6.136c-3.389,0-6.136-2.747-6.136-6.136
					c0-3.389,2.747-6.136,6.136-6.136C135.344,526.196,138.091,528.943,138.091,532.332z"/>
				<g>
					<path d="M131.955,535.468c-1.73,0-3.136-1.406-3.136-3.136c0-1.729,1.406-3.136,3.136-3.136c1.729,0,3.136,1.406,3.136,3.136
						C135.091,534.062,133.684,535.468,131.955,535.468z"/>
				</g>
				<circle style="fill:#FFFFFF;" cx="153.831" cy="532.332" r="6.136"/>
				<g>
					<path d="M153.831,535.468c-1.729,0-3.137-1.406-3.137-3.136c0-1.729,1.407-3.136,3.137-3.136c1.73,0,3.136,1.406,3.136,3.136
						C156.967,534.062,155.561,535.468,153.831,535.468z"/>
				</g>
				<path style="fill:#FFFFFF;" d="M181.842,532.332c0,3.389-2.747,6.136-6.136,6.136c-3.389,0-6.136-2.747-6.136-6.136
					c0-3.389,2.747-6.136,6.136-6.136C179.095,526.196,181.842,528.943,181.842,532.332z"/>
				<g>
					<path d="M175.706,535.468c-1.729,0-3.136-1.406-3.136-3.136c0-1.729,1.406-3.136,3.136-3.136c1.73,0,3.136,1.406,3.136,3.136
						C178.842,534.062,177.436,535.468,175.706,535.468z"/>
				</g>
				<circle style="fill:#FFFFFF;" cx="197.582" cy="532.332" r="6.136"/>
			</g>
		</g>
		<g>
			<g>
				<circle style="fill:#FFFFFF;" cx="110.079" cy="551.89" r="6.136"/>
				<g>
					<path d="M110.079,555.026c-1.729,0-3.136-1.406-3.136-3.136c0-1.73,1.406-3.137,3.136-3.137s3.137,1.407,3.137,3.137
						C113.216,553.62,111.809,555.026,110.079,555.026z"/>
				</g>
				<path style="fill:#FFFFFF;" d="M138.091,551.89c0,3.389-2.747,6.136-6.136,6.136c-3.389,0-6.136-2.747-6.136-6.136
					s2.747-6.136,6.136-6.136C135.344,545.754,138.091,548.502,138.091,551.89z"/>
				<g>
					<path d="M131.955,555.026c-1.73,0-3.136-1.406-3.136-3.136c0-1.73,1.406-3.137,3.136-3.137c1.729,0,3.136,1.407,3.136,3.137
						C135.091,553.62,133.684,555.026,131.955,555.026z"/>
				</g>
				<circle style="fill:#FFFFFF;" cx="153.831" cy="551.89" r="6.136"/>
				<g>
					<path d="M153.831,555.026c-1.729,0-3.137-1.406-3.137-3.136c0-1.73,1.407-3.137,3.137-3.137c1.73,0,3.136,1.407,3.136,3.137
						C156.967,553.62,155.561,555.026,153.831,555.026z"/>
				</g>
				<path style="fill:#FFFFFF;" d="M181.842,551.89c0,3.389-2.747,6.136-6.136,6.136c-3.389,0-6.136-2.747-6.136-6.136
					s2.747-6.136,6.136-6.136C179.095,545.754,181.842,548.502,181.842,551.89z"/>
				<circle style="fill:#FFFFFF;" cx="197.582" cy="551.89" r="6.136"/>
			</g>
		</g>
		<g>
			<g>
				<circle style="fill:#FFFFFF;" cx="110.079" cy="571.448" r="6.136"/>
				<g>
					<path d="M110.079,574.584c-1.729,0-3.136-1.406-3.136-3.136c0-1.729,1.406-3.136,3.136-3.136s3.137,1.406,3.137,3.136
						C113.216,573.178,111.809,574.584,110.079,574.584z"/>
				</g>
				<path style="fill:#FFFFFF;" d="M138.091,571.448c0,3.389-2.747,6.136-6.136,6.136c-3.389,0-6.136-2.747-6.136-6.136
					c0-3.389,2.747-6.136,6.136-6.136C135.344,565.313,138.091,568.06,138.091,571.448z"/>
				<g>
					<path d="M131.955,574.584c-1.73,0-3.136-1.406-3.136-3.136c0-1.729,1.406-3.136,3.136-3.136c1.729,0,3.136,1.406,3.136,3.136
						C135.091,573.178,133.684,574.584,131.955,574.584z"/>
				</g>
				<circle style="fill:#FFFFFF;" cx="153.831" cy="571.448" r="6.136"/>
				<g>
					<path d="M153.831,574.584c-1.729,0-3.137-1.406-3.137-3.136c0-1.729,1.407-3.136,3.137-3.136c1.73,0,3.136,1.406,3.136,3.136
						C156.967,573.178,155.561,574.584,153.831,574.584z"/>
				</g>
				<path style="fill:#FFFFFF;" d="M181.842,571.448c0,3.389-2.747,6.136-6.136,6.136c-3.389,0-6.136-2.747-6.136-6.136
					c0-3.389,2.747-6.136,6.136-6.136C179.095,565.313,181.842,568.06,181.842,571.448z"/>
				<g>
					<path d="M175.706,574.584c-1.729,0-3.136-1.406-3.136-3.136c0-1.729,1.406-3.136,3.136-3.136c1.73,0,3.136,1.406,3.136,3.136
						C178.842,573.178,177.436,574.584,175.706,574.584z"/>
				</g>
				<circle style="fill:#FFFFFF;" cx="197.582" cy="571.448" r="6.136"/>
			</g>
		</g>
		<g>
			<g>
				<path style="fill:#FFFFFF;" d="M116.215,591.006c0,3.389-2.747,6.136-6.136,6.136s-6.136-2.747-6.136-6.136
					c0-3.389,2.747-6.136,6.136-6.136S116.215,587.618,116.215,591.006z"/>
				<g>
					<path d="M110.079,594.143c-1.729,0-3.136-1.406-3.136-3.136c0-1.729,1.406-3.137,3.136-3.137s3.137,1.407,3.137,3.137
						C113.216,592.736,111.809,594.143,110.079,594.143z"/>
				</g>
				<path style="fill:#FFFFFF;" d="M138.091,591.006c0,3.389-2.747,6.136-6.136,6.136c-3.389,0-6.136-2.747-6.136-6.136
					c0-3.389,2.747-6.136,6.136-6.136C135.344,584.87,138.091,587.618,138.091,591.006z"/>
				<g>
					<path d="M131.955,594.143c-1.73,0-3.136-1.406-3.136-3.136c0-1.729,1.406-3.137,3.136-3.137c1.729,0,3.136,1.407,3.136,3.137
						C135.091,592.736,133.684,594.143,131.955,594.143z"/>
				</g>
				<path style="fill:#FFFFFF;" d="M159.966,591.006c0,3.389-2.747,6.136-6.136,6.136s-6.136-2.747-6.136-6.136
					c0-3.389,2.747-6.136,6.136-6.136S159.966,587.618,159.966,591.006z"/>
				<path style="fill:#FFFFFF;" d="M181.842,591.006c0,3.389-2.747,6.136-6.136,6.136c-3.389,0-6.136-2.747-6.136-6.136
					c0-3.389,2.747-6.136,6.136-6.136C179.095,584.87,181.842,587.618,181.842,591.006z"/>
				<path style="fill:#FFFFFF;" d="M203.717,591.006c0,3.389-2.747,6.136-6.136,6.136c-3.389,0-6.136-2.747-6.136-6.136
					c0-3.389,2.747-6.136,6.136-6.136C200.97,584.87,203.717,587.618,203.717,591.006z"/>
			</g>
		</g>
		<g>
			<g>
				<path style="fill:#FFFFFF;" d="M116.215,610.565c0,3.389-2.747,6.136-6.136,6.136s-6.136-2.747-6.136-6.136
					c0-3.389,2.747-6.136,6.136-6.136S116.215,607.176,116.215,610.565z"/>
				<g>
					<path d="M110.079,613.7c-1.729,0-3.136-1.406-3.136-3.136c0-1.729,1.406-3.136,3.136-3.136s3.137,1.406,3.137,3.136
						C113.216,612.294,111.809,613.7,110.079,613.7z"/>
				</g>
				<path style="fill:#FFFFFF;" d="M138.091,610.565c0,3.389-2.747,6.136-6.136,6.136c-3.389,0-6.136-2.747-6.136-6.136
					c0-3.389,2.747-6.136,6.136-6.136C135.344,604.429,138.091,607.176,138.091,610.565z"/>
				<g>
					<path d="M131.955,613.7c-1.73,0-3.136-1.406-3.136-3.136c0-1.729,1.406-3.136,3.136-3.136c1.729,0,3.136,1.406,3.136,3.136
						C135.091,612.294,133.684,613.7,131.955,613.7z"/>
				</g>
				<path style="fill:#FFFFFF;" d="M159.966,610.565c0,3.389-2.747,6.136-6.136,6.136s-6.136-2.747-6.136-6.136
					c0-3.389,2.747-6.136,6.136-6.136S159.966,607.176,159.966,610.565z"/>
				<g>
					<path d="M153.831,613.7c-1.729,0-3.137-1.406-3.137-3.136c0-1.729,1.407-3.136,3.137-3.136c1.73,0,3.136,1.406,3.136,3.136
						C156.967,612.294,155.561,613.7,153.831,613.7z"/>
				</g>
				<path style="fill:#FFFFFF;" d="M181.842,610.565c0,3.389-2.747,6.136-6.136,6.136c-3.389,0-6.136-2.747-6.136-6.136
					c0-3.389,2.747-6.136,6.136-6.136C179.095,604.429,181.842,607.176,181.842,610.565z"/>
				<g>
					<path d="M175.706,613.7c-1.729,0-3.136-1.406-3.136-3.136c0-1.729,1.406-3.136,3.136-3.136c1.73,0,3.136,1.406,3.136,3.136
						C178.842,612.294,177.436,613.7,175.706,613.7z"/>
				</g>
				<path style="fill:#FFFFFF;" d="M203.717,610.565c0,3.389-2.747,6.136-6.136,6.136c-3.389,0-6.136-2.747-6.136-6.136
					c0-3.389,2.747-6.136,6.136-6.136C200.97,604.429,203.717,607.176,203.717,610.565z"/>
				<g>
					<path d="M197.582,613.7c-1.73,0-3.136-1.406-3.136-3.136c0-1.729,1.406-3.136,3.136-3.136c1.729,0,3.136,1.406,3.136,3.136
						C200.718,612.294,199.311,613.7,197.582,613.7z"/>
				</g>
			</g>
		</g>
		<g>
			<g>
				<path style="fill:#FFFFFF;" d="M116.215,631.122c0,3.389-2.747,6.136-6.136,6.136s-6.136-2.747-6.136-6.136
					c0-3.389,2.747-6.136,6.136-6.136S116.215,627.734,116.215,631.122z"/>
				<g>
					<path d="M110.079,634.259c-1.729,0-3.136-1.407-3.136-3.137c0-1.729,1.406-3.136,3.136-3.136s3.137,1.406,3.137,3.136
						C113.216,632.852,111.809,634.259,110.079,634.259z"/>
				</g>
				<path style="fill:#FFFFFF;" d="M138.091,631.122c0,3.389-2.747,6.136-6.136,6.136c-3.389,0-6.136-2.747-6.136-6.136
					c0-3.389,2.747-6.136,6.136-6.136C135.344,624.987,138.091,627.734,138.091,631.122z"/>
				<g>
					<path d="M131.955,634.259c-1.73,0-3.136-1.407-3.136-3.137c0-1.729,1.406-3.136,3.136-3.136c1.729,0,3.136,1.406,3.136,3.136
						C135.091,632.852,133.684,634.259,131.955,634.259z"/>
				</g>
				<path style="fill:#FFFFFF;" d="M159.966,631.122c0,3.389-2.747,6.136-6.136,6.136s-6.136-2.747-6.136-6.136
					c0-3.389,2.747-6.136,6.136-6.136S159.966,627.734,159.966,631.122z"/>
				<g>
					<path d="M153.831,634.259c-1.729,0-3.137-1.407-3.137-3.137c0-1.729,1.407-3.136,3.137-3.136c1.73,0,3.136,1.406,3.136,3.136
						C156.967,632.852,155.561,634.259,153.831,634.259z"/>
				</g>
				<path style="fill:#FFFFFF;" d="M181.842,631.122c0,3.389-2.747,6.136-6.136,6.136c-3.389,0-6.136-2.747-6.136-6.136
					c0-3.389,2.747-6.136,6.136-6.136C179.095,624.987,181.842,627.734,181.842,631.122z"/>
				<path style="fill:#FFFFFF;" d="M203.717,631.122c0,3.389-2.747,6.136-6.136,6.136c-3.389,0-6.136-2.747-6.136-6.136
					c0-3.389,2.747-6.136,6.136-6.136C200.97,624.987,203.717,627.734,203.717,631.122z"/>
			</g>
		</g>
	</g>
	<g>
		<g>
			<path d="M45.328,778.064c0.794,0.509,1.738,0.807,2.751,0.807c3.332,0,5.214-2.815,5.101-5.339
				c0.351-0.253,0.655-0.569,0.895-0.929c-0.322,0.143-0.668,0.239-1.03,0.282c0.37-0.221,0.655-0.573,0.789-0.993
				c-0.347,0.206-0.731,0.355-1.139,0.436c-0.328-0.349-0.794-0.567-1.31-0.567c-1.158,0-2.01,1.081-1.748,2.204
				c-1.492-0.075-2.814-0.789-3.699-1.875c-0.47,0.807-0.244,1.862,0.555,2.396c-0.294-0.009-0.571-0.09-0.813-0.224
				c-0.019,0.831,0.576,1.609,1.439,1.782c-0.253,0.069-0.529,0.084-0.81,0.031c0.228,0.713,0.891,1.232,1.676,1.246
				C47.231,777.912,46.28,778.176,45.328,778.064z"/>
			<path d="M48.451,758.471h1.998v-5.004h1.394l0.148-1.676H50.45c0,0,0-0.626,0-0.954c0-0.395,0.079-0.551,0.461-0.551
				c0.307,0,1.081,0,1.081,0v-1.739c0,0-1.14,0-1.383,0c-1.487,0-2.157,0.655-2.157,1.908c0,1.092,0,1.336,0,1.336h-1.039v1.696
				h1.039V758.471z"/>
			<g>
				<g>
					<path d="M49.702,727.52c1.202,0,1.344,0.005,1.819,0.026c0.439,0.02,0.677,0.093,0.836,0.155
						c0.21,0.082,0.36,0.179,0.518,0.336c0.158,0.158,0.255,0.308,0.337,0.518c0.062,0.159,0.135,0.397,0.155,0.836
						c0.021,0.475,0.026,0.617,0.026,1.819c0,1.202-0.005,1.344-0.026,1.819c-0.02,0.439-0.093,0.677-0.155,0.836
						c-0.082,0.21-0.179,0.36-0.337,0.518c-0.157,0.157-0.307,0.255-0.518,0.337c-0.158,0.062-0.397,0.135-0.836,0.155
						c-0.475,0.021-0.617,0.026-1.819,0.026c-1.202,0-1.344-0.005-1.819-0.026c-0.439-0.02-0.677-0.094-0.836-0.155
						c-0.21-0.082-0.36-0.179-0.518-0.337c-0.158-0.158-0.255-0.308-0.337-0.518c-0.062-0.159-0.135-0.397-0.155-0.836
						c-0.022-0.474-0.026-0.617-0.026-1.819c0-1.201,0.005-1.344,0.026-1.819c0.02-0.439,0.093-0.677,0.155-0.836
						c0.082-0.21,0.179-0.36,0.337-0.518c0.157-0.158,0.307-0.255,0.518-0.336c0.159-0.062,0.397-0.135,0.836-0.155
						C48.358,727.525,48.5,727.52,49.702,727.52 M49.702,726.709c-1.222,0-1.376,0.005-1.856,0.027
						c-0.479,0.022-0.806,0.098-1.093,0.209c-0.296,0.115-0.547,0.269-0.797,0.519c-0.25,0.25-0.404,0.501-0.519,0.797
						c-0.111,0.286-0.188,0.614-0.209,1.093c-0.022,0.48-0.027,0.633-0.027,1.856c0,1.222,0.005,1.376,0.027,1.856
						c0.022,0.479,0.098,0.806,0.209,1.093c0.115,0.296,0.269,0.547,0.519,0.797c0.25,0.25,0.501,0.404,0.797,0.519
						c0.286,0.111,0.614,0.187,1.093,0.209c0.48,0.022,0.633,0.027,1.856,0.027c1.222,0,1.376-0.005,1.856-0.027
						c0.479-0.022,0.806-0.098,1.093-0.209c0.296-0.115,0.547-0.269,0.797-0.519c0.25-0.25,0.404-0.501,0.519-0.797
						c0.111-0.286,0.187-0.614,0.209-1.093c0.022-0.48,0.027-0.633,0.027-1.856c0-1.222-0.005-1.376-0.027-1.856
						c-0.022-0.479-0.098-0.806-0.209-1.093c-0.115-0.296-0.269-0.547-0.519-0.797c-0.25-0.25-0.501-0.404-0.797-0.519
						c-0.286-0.111-0.613-0.187-1.093-0.209C51.078,726.715,50.924,726.709,49.702,726.709"/>
					<path d="M49.702,728.899c-1.277,0-2.311,1.035-2.311,2.311c0,1.277,1.035,2.312,2.311,2.312s2.311-1.035,2.311-2.312
						C52.013,729.934,50.979,728.899,49.702,728.899 M49.702,732.711c-0.829,0-1.5-0.672-1.5-1.5c0-0.828,0.672-1.5,1.5-1.5
						c0.828,0,1.5,0.672,1.5,1.5C51.202,732.039,50.53,732.711,49.702,732.711"/>
					<path d="M52.645,728.808c0,0.298-0.242,0.54-0.54,0.54c-0.298,0-0.54-0.242-0.54-0.54c0-0.298,0.242-0.54,0.54-0.54
						C52.403,728.268,52.645,728.509,52.645,728.808"/>
				</g>
			</g>
			<g>
				
					<text transform="matrix(1 0 0 1 62.6719 733.618)" style="fill:#707475; font-family:'AngleciaProDisplay-Italic'; font-size:7.1952px;">@JaneAmanda</text>
			</g>
			<g>
				
					<text transform="matrix(1 0 0 1 62.6719 755.9169)" style="fill:#707475; font-family:'AngleciaProDisplay-Italic'; font-size:7.1952px;">Jane Amanda</text>
			</g>
			<g>
				
					<text transform="matrix(1 0 0 1 62.6719 777.7235)" style="fill:#707475; font-family:'AngleciaProDisplay-Italic'; font-size:7.1952px;">@JaneAmanda</text>
			</g>
		</g>
		<g>
			<text transform="matrix(1 0 0 1 41.8391 705.2101)" style="font-family:'AngleciaProDisplay-Regular'; font-size:18.4951px;">SOCIAL MEDIA</text>
		</g>
	</g>
</g>
</svg>
