<?xml version="1.0" encoding="utf-8"?>
<!-- Generator: Adobe Illustrator 27.5.0, SVG Export Plug-In . SVG Version: 6.00 Build 0)  -->
<svg version="1.1" id="PRINT_1" xmlns="http://www.w3.org/2000/svg" xmlns:xlink="http://www.w3.org/1999/xlink" x="0px" y="0px"
	 viewBox="0 0 595.276 841.89" style="enable-background:new 0 0 595.276 841.89;" xml:space="preserve">
<g>
	<rect x="-8.504" y="-8.504" style="fill:#FFFFFF;" width="612.283" height="858.898"/>
	<g>
		
			<ellipse transform="matrix(0.7071 -0.7071 0.7071 0.7071 -141.7556 102.7152)" style="fill:#E1E8EF;" cx="53.11" cy="222.472" rx="27.122" ry="27.122"/>
		<path style="fill:#E1E8EF;" d="M157.002,35.162c0,45.09,36.552,81.642,81.642,81.642c45.09,0,81.642-36.552,81.642-81.642
			c0-16.062-4.641-31.038-12.651-43.666H169.653C161.643,4.125,157.002,19.101,157.002,35.162z"/>
		<path style="fill:#E1E8EF;" d="M603.779,630.066c-11.528-13.108-28.412-21.391-47.24-21.391c-34.74,0-62.903,28.163-62.903,62.903
			s28.163,62.903,62.903,62.903c18.828,0,35.712-8.283,47.24-21.391V630.066z"/>
		<g>
			<path style="fill:#EFF4F9;" d="M445.842,418.044c-49.566,0-89.892-40.326-89.892-89.892s40.326-89.891,89.892-89.891
				s89.891,40.325,89.891,89.891S495.408,418.044,445.842,418.044z M445.842,268.1c-33.114,0-60.054,26.94-60.054,60.053
				c0,33.114,26.94,60.054,60.054,60.054c33.113,0,60.053-26.94,60.053-60.054C505.895,295.04,478.955,268.1,445.842,268.1z"/>
		</g>
		<path style="fill:#EFF4F9;" d="M222.926,748.671c-41.34,0-74.972,33.632-74.972,74.972c0,9.422,1.764,18.436,4.951,26.751h27.708
			c-4.914-7.746-7.774-16.918-7.774-26.751c0-27.617,22.469-50.086,50.087-50.086c27.617,0,50.086,22.469,50.086,50.086
			c0,9.833-2.859,19.005-7.774,26.751h27.708c3.188-8.315,4.951-17.328,4.951-26.751
			C297.898,782.303,264.266,748.671,222.926,748.671z"/>
		
			<ellipse transform="matrix(0.2298 -0.9732 0.9732 0.2298 -370.8135 377.5335)" style="fill:#E1E8EF;" cx="53.11" cy="423.038" rx="27.122" ry="27.122"/>
		
			<ellipse transform="matrix(0.2298 -0.9732 0.9732 0.2298 -639.2145 589.9509)" style="fill:#E1E8EF;" cx="53.11" cy="698.817" rx="27.122" ry="27.122"/>
	</g>
</g>
<g>
	<g>
		
			<line style="fill:none;stroke:#46494C;stroke-width:0.75;stroke-miterlimit:10;" x1="100.83" y1="163.92" x2="552.09" y2="163.92"/>
		<g>
			<g>
				<g>
					
						<text transform="matrix(0 -1 1 0 79.4603 185.5547)" style="fill:#46494C; font-family:'Poppins-Medium'; font-size:10px; letter-spacing:1;"> JOB POSITION</text>
					
						<text transform="matrix(0 -1 1 0 63.5293 129.2852)" style="fill:#46494C; font-family:'Poppins-Medium'; font-size:10px; letter-spacing:1;">YOUR</text>
				</g>
				<g>
					<g>
						
							<text transform="matrix(1 0 0 1 38.8054 84.3147)" style="fill:#46494C; font-family:'BebasNeueBold'; font-size:61px; letter-spacing:8;">robert</text>
						
							<text transform="matrix(1 0 0 1 100.2197 144.3953)" style="fill:#46494C; font-family:'BebasNeueBold'; font-size:61px; letter-spacing:8;">johnson</text>
					</g>
					<rect x="106.99" y="79.576" style="fill:#46494C;" width="6.708" height="25.356"/>
				</g>
			</g>
			<g>
				<rect x="453.206" y="87.888" style="fill:none;" width="98.224" height="65.276"/>
				<text transform="matrix(1 0 0 1 453.2297 93.0686)"><tspan x="0" y="0" style="fill:#46494C; font-family:'Poppins-Medium'; font-size:7px;">Lorem ipsum dolor sit amet, </tspan><tspan x="12.83" y="11" style="fill:#46494C; font-family:'Poppins-Medium'; font-size:7px;">consectetuer adipiscing </tspan><tspan x="12.418" y="22" style="fill:#46494C; font-family:'Poppins-Medium'; font-size:7px;">elit, sed diam nonummy </tspan><tspan x="7.504" y="33" style="fill:#46494C; font-family:'Poppins-Medium'; font-size:7px;">nibh euismod tincidunt ut </tspan><tspan x="20.985" y="44" style="fill:#46494C; font-family:'Poppins-Medium'; font-size:7px;">laoreet dolore magna </tspan><tspan x="19.18" y="55" style="fill:#46494C; font-family:'Poppins-Medium'; font-size:7px;">aliquam erat volutpat. </tspan></text>
				<g>
					<rect x="465.151" y="174.675" style="fill:none;" width="86.28" height="18.6"/>
					<text transform="matrix(1 0 0 1 468.4609 179.8542)"><tspan x="0" y="0" style="fill:#46494C; font-family:'Poppins-Medium'; font-size:7px;">St Name 000 City, State</tspan><tspan x="24.527" y="12" style="fill:#46494C; font-family:'Poppins-Medium'; font-size:7px;">+00 222 456 888</tspan></text>
					<rect x="343.691" y="174.675" style="fill:none;" width="86.28" height="18.6"/>
					<text transform="matrix(1 0 0 1 351.6418 179.8542)"><tspan x="0" y="0" style="fill:#46494C; font-family:'Poppins-Bold'; font-size:7px;">www.mywebsite.com</tspan><tspan x="-1.196" y="12" style="fill:#46494C; font-family:'Poppins-Medium'; font-size:7px;">contact@contact.com</tspan></text>
				</g>
			</g>
		</g>
	</g>
	<g>
		<g>
			<polyline style="fill:none;stroke:#46494C;stroke-width:0.75;stroke-miterlimit:10;" points="47.009,850.394 47.009,223.809 
				75.4,223.809 			"/>
			
				<line style="fill:none;stroke:#46494C;stroke-width:0.75;stroke-miterlimit:10;" x1="75.4" y1="424.365" x2="47.009" y2="424.365"/>
			
				<line style="fill:none;stroke:#46494C;stroke-width:0.75;stroke-miterlimit:10;" x1="75.4" y1="700.104" x2="47.009" y2="700.104"/>
		</g>
		<g>
			<g>
				
					<line style="fill:none;stroke:#46494C;stroke-width:0.75;stroke-miterlimit:10;" x1="158.18" y1="272.552" x2="158.18" y2="355.946"/>
				<g>
					
						<text transform="matrix(1 0 0 1 56.4889 250.7625)" style="fill:#46494C; font-family:'BebasNeueBold'; font-size:23px; letter-spacing:3;">EDUCATION</text>
					<g>
						<g>
							<text transform="matrix(1 0 0 1 85.9906 280.7581)" style="fill:#46494C; font-family:'Poppins-Bold'; font-size:11px;">2012 - 2016</text>
							<g>
								<text transform="matrix(1 0 0 1 167.7151 280.7581)"><tspan x="0" y="0" style="fill:#46494C; font-family:'Poppins-SemiBold'; font-size:11px;">Univeristy of Lorem Ipsum  </tspan><tspan x="149.829" y="0" style="fill:#46494C; font-family:'Poppins-Italic'; font-size:11px;">Bachelor Degree</tspan></text>
								<rect x="168.405" y="291.817" style="fill:none;" width="370.967" height="29.014"/>
								<text transform="matrix(1 0 0 1 168.4051 296.9971)"><tspan x="0" y="0" style="fill:#46494C; font-family:'Poppins-Medium'; font-size:7px;">Lorem ipsum dolor sit amet, consectetuer adipiscing elit, sed diam nonummy nibh euismod tincidunt ut </tspan><tspan x="0" y="11" style="fill:#46494C; font-family:'Poppins-Medium'; font-size:7px;">laoreet dolore magna aliquam erat volutpat. Ut wisi enim ad minim veniam, quis nostrud exerci tation </tspan><tspan x="0" y="22" style="fill:#46494C; font-family:'Poppins-Medium'; font-size:7px;">ullamcorper suscipit lobortis nisl ut aliquip ex ea commodo consequat. </tspan></text>
							</g>
						</g>
						<g>
							<text transform="matrix(1 0 0 1 85.9906 355.7924)" style="fill:#46494C; font-family:'Poppins-Bold'; font-size:11px;">2016 - 2018</text>
							<g>
								<text transform="matrix(1 0 0 1 167.7151 355.7924)"><tspan x="0" y="0" style="fill:#46494C; font-family:'Poppins-SemiBold'; font-size:11px;">Univeristy of Lorem Ipsum  </tspan><tspan x="149.829" y="0" style="fill:#46494C; font-family:'Poppins-Italic'; font-size:11px;">Master Degree</tspan></text>
								<rect x="168.405" y="366.851" style="fill:none;" width="363.907" height="29.838"/>
								<text transform="matrix(1 0 0 1 168.4051 372.0314)"><tspan x="0" y="0" style="fill:#46494C; font-family:'Poppins-Medium'; font-size:7px;">Lorem ipsum dolor sit amet, consectetuer adipiscing elit, sed diam nonummy nibh euismod tincidunt </tspan><tspan x="0" y="11" style="fill:#46494C; font-family:'Poppins-Medium'; font-size:7px;">ut laoreet dolore magna aliquam erat volutpat. Ut wisi enim ad minim veniam, quis nostrud exerci </tspan><tspan x="0" y="22" style="fill:#46494C; font-family:'Poppins-Medium'; font-size:7px;">tation ullamcorper suscipit lobortis nisl ut aliquip ex ea commodo consequat. </tspan></text>
							</g>
						</g>
					</g>
				</g>
			</g>
			<g>
				
					<line style="fill:none;stroke:#46494C;stroke-width:0.75;stroke-miterlimit:10;" x1="158.18" y1="473.111" x2="158.18" y2="631.506"/>
				<g>
					
						<text transform="matrix(1 0 0 1 56.4889 451.3192)" style="fill:#46494C; font-family:'BebasNeueBold'; font-size:23px; letter-spacing:3;">work experience</text>
					<g>
						<g>
							<text transform="matrix(1 0 0 1 85.9945 481.3281)" style="fill:#46494C; font-family:'Poppins-Bold'; font-size:11px;">2018 - 2019</text>
							<g>
								<text transform="matrix(1 0 0 1 167.719 481.3281)"><tspan x="0" y="0" style="fill:#46494C; font-family:'Poppins-SemiBold'; font-size:11px;">Job Position  </tspan><tspan x="72.973" y="0" style="fill:#46494C; font-family:'Poppins-Italic'; font-size:11px;">Company Name</tspan></text>
								<rect x="168.409" y="492.387" style="fill:none;" width="370.967" height="29.014"/>
								<text transform="matrix(1 0 0 1 168.4089 497.5662)"><tspan x="0" y="0" style="fill:#46494C; font-family:'Poppins-Medium'; font-size:7px;">Lorem ipsum dolor sit amet, consectetuer adipiscing elit, sed diam nonummy nibh euismod tincidunt ut </tspan><tspan x="0" y="11" style="fill:#46494C; font-family:'Poppins-Medium'; font-size:7px;">laoreet dolore magna aliquam erat volutpat. Ut wisi enim ad minim veniam, quis nostrud exerci tation </tspan><tspan x="0" y="22" style="fill:#46494C; font-family:'Poppins-Medium'; font-size:7px;">ullamcorper suscipit lobortis nisl ut aliquip ex ea commodo consequat. </tspan></text>
							</g>
						</g>
						<g>
							<text transform="matrix(1 0 0 1 85.9945 556.3624)" style="fill:#46494C; font-family:'Poppins-Bold'; font-size:11px;">2019 - 2020</text>
							<g>
								<text transform="matrix(1 0 0 1 167.719 556.3624)"><tspan x="0" y="0" style="fill:#46494C; font-family:'Poppins-SemiBold'; font-size:11px;">Job Position  </tspan><tspan x="72.973" y="0" style="fill:#46494C; font-family:'Poppins-Italic'; font-size:11px;">Company Name</tspan></text>
								<rect x="168.409" y="567.421" style="fill:none;" width="370.967" height="29.838"/>
								<text transform="matrix(1 0 0 1 168.4089 572.6005)"><tspan x="0" y="0" style="fill:#46494C; font-family:'Poppins-Medium'; font-size:7px;">Lorem ipsum dolor sit amet, consectetuer adipiscing elit, sed diam nonummy nibh euismod tincidunt ut </tspan><tspan x="0" y="11" style="fill:#46494C; font-family:'Poppins-Medium'; font-size:7px;">laoreet dolore magna aliquam erat volutpat. Ut wisi enim ad minim veniam, quis nostrud exerci tation </tspan><tspan x="0" y="22" style="fill:#46494C; font-family:'Poppins-Medium'; font-size:7px;">ullamcorper suscipit lobortis nisl ut aliquip ex ea commodo consequat. </tspan></text>
							</g>
						</g>
						<g>
							<text transform="matrix(1 0 0 1 85.9945 631.506)" style="fill:#46494C; font-family:'Poppins-Bold'; font-size:11px;">2020 - 2021</text>
							<g>
								<text transform="matrix(1 0 0 1 167.719 631.506)"><tspan x="0" y="0" style="fill:#46494C; font-family:'Poppins-SemiBold'; font-size:11px;">Job Position  </tspan><tspan x="72.973" y="0" style="fill:#46494C; font-family:'Poppins-Italic'; font-size:11px;">Company Name</tspan></text>
								<rect x="168.409" y="642.565" style="fill:none;" width="370.967" height="29.838"/>
								<text transform="matrix(1 0 0 1 168.4089 647.744)"><tspan x="0" y="0" style="fill:#46494C; font-family:'Poppins-Medium'; font-size:7px;">Lorem ipsum dolor sit amet, consectetuer adipiscing elit, sed diam nonummy nibh euismod tincidunt ut </tspan><tspan x="0" y="11" style="fill:#46494C; font-family:'Poppins-Medium'; font-size:7px;">laoreet dolore magna aliquam erat volutpat. Ut wisi enim ad minim veniam, quis nostrud exerci tation </tspan><tspan x="0" y="22" style="fill:#46494C; font-family:'Poppins-Medium'; font-size:7px;">ullamcorper suscipit lobortis nisl ut aliquip ex ea commodo consequat. </tspan></text>
							</g>
						</g>
					</g>
				</g>
			</g>
			<g>
				
					<text transform="matrix(1 0 0 1 56.4889 727.0579)" style="fill:#46494C; font-family:'BebasNeueBold'; font-size:23px; letter-spacing:3;">Skills</text>
				<g>
					<g>
						<rect x="85.991" y="748.208" style="fill:none;" width="57.539" height="49.243"/>
						<text transform="matrix(1 0 0 1 85.9898 753.3875)"><tspan x="0" y="0" style="fill:#46494C; font-family:'Poppins-Medium'; font-size:7px;">• Lorem Ipsum </tspan><tspan x="0" y="11" style="fill:#46494C; font-family:'Poppins-Medium'; font-size:7px;">• Dolor Sit</tspan><tspan x="0" y="22" style="fill:#46494C; font-family:'Poppins-Medium'; font-size:7px;">• Amet Elit</tspan><tspan x="0" y="33" style="fill:#46494C; font-family:'Poppins-Medium'; font-size:7px;">• Sed Diam</tspan><tspan x="0" y="44" style="fill:#46494C; font-family:'Poppins-Medium'; font-size:7px;">• Laoreet Dolore</tspan></text>
						<rect x="176.141" y="748.208" style="fill:none;" width="57.636" height="49.243"/>
						<text transform="matrix(1 0 0 1 176.1417 753.3875)"><tspan x="0" y="0" style="fill:#46494C; font-family:'Poppins-Medium'; font-size:7px;">• Lorem Ipsum </tspan><tspan x="0" y="11" style="fill:#46494C; font-family:'Poppins-Medium'; font-size:7px;">• Dolor Sit</tspan><tspan x="0" y="22" style="fill:#46494C; font-family:'Poppins-Medium'; font-size:7px;">• Amet Elit</tspan><tspan x="0" y="33" style="fill:#46494C; font-family:'Poppins-Medium'; font-size:7px;">• Sed Diam</tspan><tspan x="0" y="44" style="fill:#46494C; font-family:'Poppins-Medium'; font-size:7px;">• Laoreet Dolore</tspan></text>
						<rect x="266.39" y="748.208" style="fill:none;" width="57.636" height="49.243"/>
						<text transform="matrix(1 0 0 1 266.3904 753.3875)"><tspan x="0" y="0" style="fill:#46494C; font-family:'Poppins-Medium'; font-size:7px;">• Lorem Ipsum </tspan><tspan x="0" y="11" style="fill:#46494C; font-family:'Poppins-Medium'; font-size:7px;">• Dolor Sit</tspan><tspan x="0" y="22" style="fill:#46494C; font-family:'Poppins-Medium'; font-size:7px;">• Amet Elit</tspan><tspan x="0" y="33" style="fill:#46494C; font-family:'Poppins-Medium'; font-size:7px;">• Sed Diam</tspan><tspan x="0" y="44" style="fill:#46494C; font-family:'Poppins-Medium'; font-size:7px;">• Laoreet Dolore</tspan></text>
					</g>
					<g>
						
							<line style="fill:none;stroke:#46494C;stroke-width:0.75;stroke-miterlimit:10;" x1="357.339" y1="748.208" x2="357.339" y2="797.343"/>
						<g>
							<text transform="matrix(1 0 0 1 370.4521 758.1237)" style="fill:#46494C; font-family:'Poppins-Bold'; font-size:9px;">Languages</text>
							<rect x="370.452" y="766.6" style="fill:none;" width="71.244" height="27.243"/>
							<text transform="matrix(1 0 0 1 370.4521 771.7799)"><tspan x="0" y="0" style="fill:#46494C; font-family:'Poppins-Medium'; font-size:7px;">English  </tspan><tspan x="28.574" y="0" style="fill:#46494C; font-family:'Poppins-Italic'; font-size:7px;">Native</tspan><tspan x="0" y="11" style="fill:#46494C; font-family:'Poppins-Medium'; font-size:7px;">Spanish  </tspan><tspan x="32.032" y="11" style="fill:#46494C; font-family:'Poppins-Italic'; font-size:7px;">Fluent</tspan><tspan x="0" y="22" style="fill:#46494C; font-family:'Poppins-Medium'; font-size:7px;">French   </tspan><tspan x="29.359" y="22" style="fill:#46494C; font-family:'Poppins-Italic'; font-size:7px;">Advanced</tspan></text>
						</g>
					</g>
				</g>
			</g>
		</g>
	</g>
</g>
</svg>
