<?xml version="1.0" encoding="utf-8"?>
<!-- Generator: Adobe Illustrator 27.5.0, SVG Export Plug-In . SVG Version: 6.00 Build 0)  -->
<svg version="1.1" id="PRINT" xmlns="http://www.w3.org/2000/svg" xmlns:xlink="http://www.w3.org/1999/xlink" x="0px" y="0px"
	 viewBox="0 0 595.276 841.89" style="enable-background:new 0 0 595.276 841.89;" xml:space="preserve">
<g>
	<g>
		<rect x="-14.173" y="-14.173" style="fill:#FFFFFF;" width="623.622" height="870.236"/>
	</g>
</g>
<g>
	<rect x="104.914" y="182.671" style="fill:none;" width="385.749" height="123.417"/>
	<text transform="matrix(1 0 0 1 198.2007 205.603)"><tspan x="0" y="0" style="fill:#3D3D3D; font-family:'Poppins-Bold'; font-size:30.9911px;">Hi, I’m </tspan><tspan x="105.522" y="0" style="fill:#5FDE5B; font-family:'Poppins-Bold'; font-size:30.9911px;">Brian</tspan><tspan x="190.282" y="0" style="fill:#3D3D3D; font-family:'Poppins-Bold'; font-size:30.9911px;">, </tspan><tspan x="-28.915" y="37.189" style="fill:#3D3D3D; font-family:'Poppins-Bold'; font-size:30.9911px;">I’m a Developer.</tspan></text>
</g>
<path style="fill:none;stroke:#636363;stroke-miterlimit:10;" d="M182.826,615.985"/>
<g>
	<g>
		<rect x="109.977" y="271.133" style="fill:none;" width="380.686" height="61.623"/>
		<text transform="matrix(1 0 0 1 112.1553 280.9961)"><tspan x="0" y="0" style="fill:#9E9E9E; font-family:'Karla-Regular'; font-size:14.4625px;">Lorem ipsum dolor sit amet, consectetuer adipiscing elit, </tspan><tspan x="8.308" y="18.595" style="fill:#9E9E9E; font-family:'Karla-Regular'; font-size:14.4625px;">sed diam nonummy nibh euismod tincidunt ut laoreet </tspan><tspan x="13.909" y="37.189" style="fill:#9E9E9E; font-family:'Karla-Regular'; font-size:14.4625px;">dolore magna aliquam erat volutpat. Ut wisi enim ad.</tspan></text>
	</g>
</g>
<g>
	<defs>
		
			<ellipse id="SVGID_1_" transform="matrix(0.1628 -0.9867 0.9867 0.1628 154.3522 374.1482)" cx="297.638" cy="96.124" rx="50.873" ry="50.873"/>
	</defs>
	<use xlink:href="#SVGID_1_"  style="overflow:visible;fill:#E0E0E0;"/>
	<clipPath id="SVGID_00000062871745679833409820000016227498449044246662_">
		<use xlink:href="#SVGID_1_"  style="overflow:visible;"/>
	</clipPath>
</g>
<rect x="-14.173" y="780.87" style="fill:#3D3D3D;" width="623.622" height="75.193"/>
<rect x="30.935" y="23.008" style="fill:#5FDE5B;" width="9.2" height="9.2"/>
<rect x="44.122" y="23.008" style="fill:#5FDE5B;" width="9.2" height="9.2"/>
<rect x="30.935" y="36.11" style="fill:#5FDE5B;" width="9.2" height="9.2"/>
<rect x="44.122" y="36.11" style="fill:#E0E0E0;" width="9.2" height="9.2"/>
<g>
	<g>
		<text transform="matrix(1 0 0 1 331.2867 816.3578)" style="fill:#9E9E9E; font-family:'Karla-Regular'; font-size:10.3304px;">+1 234 234 44</text>
	</g>
	<g>
		<text transform="matrix(1 0 0 1 425.4087 816.3559)" style="fill:#9E9E9E; font-family:'Karla-Regular'; font-size:10.3304px;">123 Some Random St, NY.</text>
	</g>
	<g>
		<text transform="matrix(1 0 0 1 191.6831 816.3559)" style="fill:#9E9E9E; font-family:'Karla-Regular'; font-size:10.3304px;">brianemail@email.com</text>
	</g>
	<g>
		<text transform="matrix(1 0 0 1 51.6397 816.3578)" style="fill:#9E9E9E; font-family:'Karla-Regular'; font-size:10.3304px;">www.brianwebsite.com</text>
	</g>
</g>
<g>
	<g>
		<g>
			<path style="fill:none;stroke:#636363;stroke-miterlimit:10;" d="M321.036,460.844"/>
			<g>
				
					<text transform="matrix(1 0 0 1 321.0347 431.1977)" style="fill:#5FDE5B; font-family:'Poppins-SemiBold'; font-size:10.3304px;">Full Stack Developer</text>
			</g>
			<g>
				<text transform="matrix(1 0 0 1 321.0347 444.8501)" style="fill:#9E9E9E; font-family:'Karla-Italic'; font-size:10.3304px;">Company Name</text>
			</g>
			<g>
				<text transform="matrix(1 0 0 1 475.187 430.7075)" style="fill:#9E9E9E; font-family:'Karla-Regular'; font-size:10.3304px;">2000-2000</text>
			</g>
			<g>
				<g>
					<rect x="321.035" y="460.844" style="fill:none;" width="202.658" height="41.631"/>
					<text transform="matrix(1 0 0 1 321.0347 467.8891)"><tspan x="0" y="0" style="fill:#9E9E9E; font-family:'Karla-Regular'; font-size:10.3304px;">Lorem ipsum dolor sit amet, consectetuer </tspan><tspan x="0" y="14.463" style="fill:#9E9E9E; font-family:'Karla-Regular'; font-size:10.3304px;">adipiscing elit, sed diam nonummy nibh </tspan><tspan x="0" y="28.926" style="fill:#9E9E9E; font-family:'Karla-Regular'; font-size:10.3304px;">euismod tincidunt ut laoreet dolore.</tspan></text>
				</g>
			</g>
		</g>
		<rect x="321.036" y="512.957" style="fill:#E0E0E0;" width="202.657" height="2.066"/>
	</g>
	<g>
		<g>
			<path style="fill:none;stroke:#636363;stroke-miterlimit:10;" d="M321.036,572.606"/>
			<g>
				
					<text transform="matrix(1 0 0 1 321.0347 542.9575)" style="fill:#5FDE5B; font-family:'Poppins-SemiBold'; font-size:10.3304px;">Sr. Developer</text>
			</g>
			<g>
				<text transform="matrix(1 0 0 1 321.0347 556.6118)" style="fill:#9E9E9E; font-family:'Karla-Italic'; font-size:10.3304px;">Company Name</text>
			</g>
			<g>
				<text transform="matrix(1 0 0 1 475.187 542.4692)" style="fill:#9E9E9E; font-family:'Karla-Regular'; font-size:10.3304px;">2000-2000</text>
			</g>
			<g>
				<g>
					<rect x="321.035" y="572.606" style="fill:none;" width="202.658" height="41.631"/>
					<text transform="matrix(1 0 0 1 321.0347 579.6489)"><tspan x="0" y="0" style="fill:#9E9E9E; font-family:'Karla-Regular'; font-size:10.3304px;">Lorem ipsum dolor sit amet, consectetuer </tspan><tspan x="0" y="14.463" style="fill:#9E9E9E; font-family:'Karla-Regular'; font-size:10.3304px;">adipiscing elit, sed diam nonummy nibh </tspan><tspan x="0" y="28.926" style="fill:#9E9E9E; font-family:'Karla-Regular'; font-size:10.3304px;">euismod tincidunt ut laoreet dolore.</tspan></text>
				</g>
			</g>
		</g>
		<rect x="321.036" y="624.719" style="fill:#E0E0E0;" width="202.657" height="2.066"/>
	</g>
	<g>
		<g>
			<path style="fill:none;stroke:#636363;stroke-miterlimit:10;" d="M321.036,684.367"/>
			<g>
				
					<text transform="matrix(1 0 0 1 321.0347 654.7192)" style="fill:#5FDE5B; font-family:'Poppins-SemiBold'; font-size:10.3304px;">Jr. Developer</text>
			</g>
			<g>
				<text transform="matrix(1 0 0 1 321.0347 668.3735)" style="fill:#9E9E9E; font-family:'Karla-Italic'; font-size:10.3304px;">Company Name</text>
			</g>
			<g>
				<text transform="matrix(1 0 0 1 475.187 654.2309)" style="fill:#9E9E9E; font-family:'Karla-Regular'; font-size:10.3304px;">2000-2000</text>
			</g>
			<g>
				<g>
					<rect x="321.035" y="684.367" style="fill:none;" width="202.658" height="41.631"/>
					<text transform="matrix(1 0 0 1 321.0347 691.4106)"><tspan x="0" y="0" style="fill:#9E9E9E; font-family:'Karla-Regular'; font-size:10.3304px;">Lorem ipsum dolor sit amet, consectetuer </tspan><tspan x="0" y="14.463" style="fill:#9E9E9E; font-family:'Karla-Regular'; font-size:10.3304px;">adipiscing elit, sed diam nonummy nibh </tspan><tspan x="0" y="28.926" style="fill:#9E9E9E; font-family:'Karla-Regular'; font-size:10.3304px;">euismod tincidunt ut laoreet dolore.</tspan></text>
				</g>
			</g>
		</g>
		<rect x="321.036" y="736.481" style="fill:#E0E0E0;" width="202.657" height="2.066"/>
	</g>
	<g>
		<g>
			<text transform="matrix(1 0 0 1 321.0347 392.0146)" style="fill:#3D3D3D; font-family:'Poppins-Bold'; font-size:18.5947px;">Work Experience</text>
		</g>
		<g>
			<g>
				<g>
					<path style="fill:#5FDE5B;" d="M516.113,381.693h-1.55v-0.581c0-1.864,1.517-3.382,3.382-3.382h0.716
						c1.362,0,2.585,0.811,3.115,2.066l-1.428,0.601c-0.287-0.678-0.948-1.118-1.687-1.118h-0.716c-1.011,0-1.832,0.821-1.832,1.832
						V381.693z"/>
					<path style="fill:#5FDE5B;" d="M522.043,381.693h-1.55v-0.581c0-1.011-0.821-1.832-1.832-1.832h-0.716
						c-0.738,0-1.4,0.44-1.687,1.118l-1.429-0.601c0.531-1.255,1.753-2.066,3.115-2.066h0.716c1.864,0,3.382,1.517,3.382,3.382
						V381.693z"/>
				</g>
				<g>
					<path style="fill:#5FDE5B;" d="M524.012,393.896h-11.418c-1.279,0-2.318-1.039-2.318-2.318v-8.341
						c0-1.279,1.039-2.318,2.318-2.318h11.418c1.279,0,2.318,1.039,2.318,2.318v8.341
						C526.33,392.857,525.291,393.896,524.012,393.896z M512.594,382.468c-0.424,0-0.769,0.345-0.769,0.769v8.341
						c0,0.424,0.345,0.769,0.769,0.769h11.418c0.424,0,0.769-0.345,0.769-0.769v-8.341c0-0.424-0.345-0.769-0.769-0.769H512.594z"/>
					<rect x="511.27" y="386.192" style="fill:#5FDE5B;" width="14.065" height="1.55"/>
					<path style="fill:#5FDE5B;" d="M518.302,389.614c-0.428,0-0.775-0.347-0.775-0.775v-1.872c0-0.428,0.347-0.775,0.775-0.775
						c0.428,0,0.775,0.347,0.775,0.775v1.872C519.077,389.267,518.73,389.614,518.302,389.614z"/>
				</g>
			</g>
		</g>
	</g>
</g>
<g>
	<g>
		<g>
			<g>
				<g>
					
						<text transform="matrix(1 0 0 1 61.1304 430.7075)" style="fill:#9E9E9E; font-family:'Poppins-SemiBold'; font-size:10.3304px;">Front End Development</text>
				</g>
			</g>
		</g>
		<g>
			<g>
				<g>
					
						<text transform="matrix(1 0 0 1 61.1304 454.7329)" style="fill:#9E9E9E; font-family:'Poppins-SemiBold'; font-size:10.3304px;">Back End Development </text>
				</g>
			</g>
		</g>
		<g>
			<g>
				<g>
					
						<text transform="matrix(1 0 0 1 61.1304 478.7602)" style="fill:#9E9E9E; font-family:'Poppins-SemiBold'; font-size:10.3304px;">Database Management</text>
				</g>
			</g>
		</g>
		<g>
			<g>
				<g>
					
						<text transform="matrix(1 0 0 1 61.1304 502.7856)" style="fill:#9E9E9E; font-family:'Poppins-SemiBold'; font-size:10.3304px;">Technical SEO</text>
				</g>
			</g>
		</g>
		<g>
			<rect x="197.544" y="426.987" style="fill:#E0E0E0;" width="71.403" height="2.066"/>
			<rect x="197.544" y="426.987" style="fill:#5FDE5B;" width="27.377" height="2.066"/>
		</g>
		<g>
			<rect x="197.544" y="450.23" style="fill:#E0E0E0;" width="71.403" height="2.066"/>
			<rect x="197.544" y="450.23" style="fill:#5FDE5B;" width="27.377" height="2.066"/>
		</g>
		<g>
			<rect x="197.544" y="473.474" style="fill:#E0E0E0;" width="71.403" height="2.066"/>
			<rect x="197.544" y="473.474" style="fill:#5FDE5B;" width="27.377" height="2.066"/>
		</g>
		<g>
			<rect x="197.544" y="496.717" style="fill:#E0E0E0;" width="71.403" height="2.066"/>
			<rect x="197.544" y="496.717" style="fill:#5FDE5B;" width="27.377" height="2.066"/>
		</g>
	</g>
	<g>
		<g>
			<text transform="matrix(1 0 0 1 61.6753 398.1338)" style="fill:#3D3D3D; font-family:'Poppins-Bold'; font-size:18.5947px;">Skills</text>
		</g>
		<path style="fill:#5FDE5B;" d="M263.523,394.253h-2.318c-0.825,0-1.497-0.672-1.497-1.497v-0.246
			c-0.408-0.151-0.797-0.343-1.166-0.573l-0.351,0.202c-0.343,0.2-0.749,0.256-1.136,0.151c-0.387-0.105-0.712-0.353-0.912-0.7
			l-1.158-2.007c-0.2-0.347-0.252-0.751-0.149-1.138c0.105-0.387,0.353-0.71,0.698-0.91l0.081-0.046
			c-0.05-0.323-0.075-0.642-0.075-0.956c0-0.159,0.008-0.317,0.02-0.474l-0.25-0.145c-0.347-0.198-0.595-0.521-0.698-0.908
			c-0.103-0.385-0.05-0.791,0.151-1.136l1.156-2.008c0.2-0.347,0.522-0.595,0.91-0.698c0.383-0.107,0.787-0.055,1.138,0.147
			l0.163,0.095c0.349-0.258,0.728-0.482,1.13-0.668v-0.43c0-0.827,0.672-1.499,1.497-1.499h2.318c0.827,0,1.499,0.672,1.499,1.499
			v0.432c0.329,0.149,0.64,0.323,0.932,0.523l0.583-0.339c0.716-0.412,1.634-0.167,2.046,0.549l1.16,2.008
			c0.414,0.716,0.167,1.634-0.547,2.046l-0.494,0.286c0.026,0.236,0.04,0.476,0.04,0.72c0,0.075-0.002,0.149-0.004,0.224
			l0.682,0.393c0.714,0.412,0.96,1.33,0.549,2.046l-1.162,2.008c-0.412,0.716-1.334,0.964-2.044,0.547l-0.418-0.24
			c-0.276,0.22-0.567,0.416-0.876,0.587v0.66C265.022,393.581,264.35,394.253,263.523,394.253z M258.511,390.163l0.591,0.282
			c0.456,0.329,0.944,0.565,1.469,0.716c0.412,0.123,0.686,0.488,0.686,0.912v0.682l2.266-0.052l-0.05-1.467l0.547-0.363
			c0.422-0.204,0.817-0.472,1.166-0.795c0.305-0.282,0.755-0.331,1.118-0.125l0.787,0.454l1.063-1.943l-1.406-0.811l-0.024-0.676
			c0.012-0.133,0.022-0.289,0.022-0.446c0-0.297-0.028-0.587-0.079-0.868c-0.067-0.404,0.121-0.799,0.468-0.995l0.839-0.484
			l-1.178-1.939l-0.853,0.553c-0.335,0.194-0.753,0.165-1.059-0.077c-0.373-0.291-0.793-0.527-1.247-0.698
			c-0.359-0.127-0.611-0.484-0.611-0.886v-0.831l-2.268,0.051l0.052,0.781c0,0.4-0.254,0.759-0.632,0.892
			c-0.494,0.192-0.964,0.47-1.378,0.821c-0.319,0.266-0.757,0.303-1.1,0.095l-0.508-0.294l-1.087,1.991l0.569,0.27
			c0.339,0.196,0.521,0.571,0.466,0.956c-0.03,0.218-0.05,0.438-0.05,0.662c0,0.349,0.04,0.694,0.121,1.055
			c0.095,0.393-0.089,0.821-0.45,1.031l-0.452,0.26l1.178,1.937L258.511,390.163z M266.237,391.216c0,0.002-0.002,0.004-0.004,0.004
			C266.235,391.22,266.237,391.218,266.237,391.216z M255.694,387.917c0.002,0.006,0.004,0.014,0.006,0.022
			C255.698,387.931,255.696,387.923,255.694,387.917z M267.913,386.009l-0.012,0.006
			C267.905,386.013,267.909,386.011,267.913,386.009z M258.473,381.602l0.01,0.008C258.479,381.606,258.475,381.604,258.473,381.602
			z M265.831,381.497c0.002,0.002,0.004,0.002,0.006,0.004C265.835,381.499,265.833,381.499,265.831,381.497z M265.167,381.455
			c0,0,0,0.002-0.002,0.002L265.167,381.455z M259.641,380.577c-0.01,0.002-0.02,0.006-0.03,0.01
			C259.621,380.585,259.631,380.581,259.641,380.577z M264.171,380.569c0.01,0.004,0.02,0.008,0.03,0.012
			C264.191,380.577,264.181,380.573,264.171,380.569z M262.141,390.052c-1.941,0-3.521-1.58-3.521-3.521
			c0-1.941,1.58-3.521,3.521-3.521s3.521,1.58,3.521,3.521C265.662,388.472,264.082,390.052,262.141,390.052z M262.141,384.56
			c-1.087,0-1.971,0.884-1.971,1.971s0.884,1.971,1.971,1.971s1.971-0.884,1.971-1.971S263.228,384.56,262.141,384.56z"/>
	</g>
</g>
<g>
	<g>
		<path style="fill:none;stroke:#636363;stroke-miterlimit:10;" d="M61.676,609.787"/>
		<g>
			
				<text transform="matrix(1 0 0 1 61.6753 580.1391)" style="fill:#5FDE5B; font-family:'Poppins-SemiBold'; font-size:10.3304px;">Full Stack Developer</text>
		</g>
		<g>
			<text transform="matrix(1 0 0 1 61.6753 595.4047)" style="fill:#9E9E9E; font-family:'Karla-Italic'; font-size:10.3304px;">University/Institution</text>
		</g>
	</g>
	<g>
		<g>
			
				<text transform="matrix(1 0 0 1 182.8247 580.1391)" style="fill:#5FDE5B; font-family:'Poppins-SemiBold'; font-size:10.3304px;">Data Manager</text>
		</g>
		<g>
			<text transform="matrix(1 0 0 1 182.8247 595.4047)" style="fill:#9E9E9E; font-family:'Karla-Italic'; font-size:10.3304px;">University/Institution</text>
		</g>
	</g>
	<g>
		<g>
			<text transform="matrix(1 0 0 1 61.6753 552.4789)" style="fill:#3D3D3D; font-family:'Poppins-Bold'; font-size:18.5947px;">Education</text>
		</g>
		<g>
			<path style="fill:#5FDE5B;" d="M262.143,553.702c-5.105,0-6.757-2.312-6.824-2.411l-0.137-0.2V546.2
				c0-0.428,0.347-0.775,0.775-0.775c0.428,0,0.775,0.347,0.775,0.775v4.358c0.432,0.422,1.947,1.594,5.411,1.594
				c3.454,0,4.969-1.166,5.411-1.596V546.2c0-0.428,0.347-0.775,0.775-0.775c0.428,0,0.775,0.347,0.775,0.775v4.891l-0.137,0.2
				C268.9,551.389,267.248,553.702,262.143,553.702z"/>
			<path style="fill:#5FDE5B;" d="M262.145,549.35c-0.155,0-0.313-0.032-0.46-0.095l-9.348-3.975
				c-0.442-0.186-0.718-0.617-0.708-1.096c0.012-0.48,0.309-0.898,0.759-1.065l9.35-3.468c0.262-0.097,0.549-0.097,0.811,0
				l9.35,3.468c0.45,0.167,0.747,0.585,0.759,1.065c0.01,0.478-0.266,0.91-0.708,1.096l-9.352,3.975
				C262.456,549.317,262.3,549.35,262.145,549.35z M261.992,547.83c-0.002,0-0.006,0.002-0.008,0.002L261.992,547.83z
				 M262.294,547.83h0.02H262.294z M253.836,544.235l8.307,3.531l8.307-3.531l-8.307-3.081L253.836,544.235z"/>
			<path style="fill:#5FDE5B;" d="M262.706,544.679h-1.126c-0.428,0-0.775-0.347-0.775-0.775c0-0.428,0.347-0.775,0.775-0.775h1.126
				c0.428,0,0.775,0.347,0.775,0.775C263.481,544.332,263.134,544.679,262.706,544.679z"/>
		</g>
	</g>
</g>
<g>
	<g>
		<g>
			<path style="fill:none;stroke:#636363;stroke-miterlimit:10;" d="M61.676,699.675"/>
			<g>
				
					<text transform="matrix(1 0 0 1 61.6753 670.0278)" style="fill:#5FDE5B; font-family:'Poppins-SemiBold'; font-size:10.3304px;">English</text>
			</g>
			<g>
				<text transform="matrix(1 0 0 1 61.6753 685.2934)" style="fill:#9E9E9E; font-family:'Karla-Italic'; font-size:10.3304px;">Fluent/Mother Tongue</text>
			</g>
		</g>
		<g>
			<path style="fill:none;stroke:#636363;stroke-miterlimit:10;" d="M174.396,699.675"/>
			<g>
				
					<text transform="matrix(1 0 0 1 174.396 670.0278)" style="fill:#5FDE5B; font-family:'Poppins-SemiBold'; font-size:10.3304px;">Spanish</text>
			</g>
			<g>
				<text transform="matrix(1 0 0 1 174.396 685.2934)" style="fill:#9E9E9E; font-family:'Karla-Italic'; font-size:10.3304px;">Advanced</text>
			</g>
		</g>
		<g>
			<path style="fill:none;stroke:#636363;stroke-miterlimit:10;" d="M238.296,699.675"/>
			<g>
				
					<text transform="matrix(1 0 0 1 238.2945 670.0278)" style="fill:#5FDE5B; font-family:'Poppins-SemiBold'; font-size:10.3304px;">French</text>
			</g>
			<g>
				<text transform="matrix(1 0 0 1 238.2945 685.2934)" style="fill:#9E9E9E; font-family:'Karla-Italic'; font-size:10.3304px;">Basic</text>
			</g>
		</g>
	</g>
	<g>
		<g>
			<text transform="matrix(1 0 0 1 61.6753 642.3696)" style="fill:#3D3D3D; font-family:'Poppins-Bold'; font-size:18.5947px;">Languages</text>
		</g>
		<path style="fill:#5FDE5B;" d="M256.99,643.576c-0.25,0-0.472-0.077-0.664-0.216c-0.353-0.252-0.541-0.662-0.504-1.092
			l0.048-1.108c-1.071-0.323-1.812-1.275-1.812-2.397v-6.368c0-1.384,1.128-2.51,2.512-2.51h12.271c1.384,0,2.51,1.126,2.51,2.51
			v6.368c0,1.384-1.126,2.512-2.51,2.512h-8.111l-3.079,2.137C257.413,643.523,257.192,643.576,256.99,643.576z M257.369,642.351
			v0.016C257.369,642.361,257.369,642.357,257.369,642.351z M256.57,631.436c-0.531,0-0.962,0.432-0.962,0.96v6.368
			c0,0.531,0.432,0.962,0.962,0.962h0.809l0.071,0.809l-0.052,1.184l2.849-1.993h8.595c0.529,0,0.96-0.432,0.96-0.962v-6.368
			c0-0.529-0.432-0.96-0.96-0.96H256.57z"/>
	</g>
</g>
<g>
	<g>
		<g>
			<text transform="matrix(1 0 0 1 61.6753 737.5141)" style="fill:#3D3D3D; font-family:'Poppins-Bold'; font-size:18.5947px;">Portfolio</text>
		</g>
		<g>
			<text transform="matrix(1 0 0 1 149.107 736.6996)" style="fill:#9E9E9E; font-family:'Karla-Italic'; font-size:10.3304px;">www.portfolio.com</text>
		</g>
	</g>
	<g>
		<path style="fill:#5FDE5B;" d="M264.491,741.214c-3.68,0-5.708-2.129-5.708-5.994v-5.44c0-0.428,0.347-0.775,0.775-0.775
			s0.775,0.347,0.775,0.775v5.44c0,3.032,1.322,4.445,4.158,4.445c2.716,0,4.092-1.495,4.092-4.445v-5.083
			c0-0.428,0.347-0.775,0.775-0.775c0.428,0,0.775,0.347,0.775,0.775v5.083C270.133,739.029,268.077,741.214,264.491,741.214z"/>
		<path style="fill:#5FDE5B;" d="M269.358,732.895c-0.428,0-0.775-0.347-0.775-0.775v-5.038c0-1.067-0.797-2.57-2.57-2.57
			c-1.872,0-2.57,1.576-2.57,2.57v4.735c0,0.428-0.347,0.775-0.775,0.775c-0.428,0-0.775-0.347-0.775-0.775v-4.735
			c0-2.026,1.542-4.12,4.12-4.12c2.578,0,4.12,2.094,4.12,4.12v5.038C270.133,732.548,269.786,732.895,269.358,732.895z"/>
		<path style="fill:#5FDE5B;" d="M264.397,737.475c-0.716,0-1.299-0.222-1.731-0.658c-0.793-0.799-0.781-2.018-0.775-2.746
			l0.002-4.673c0-0.428,0.347-0.775,0.775-0.775c0.428,0,0.775,0.347,0.775,0.775v4.518c-0.006,0.656-0.014,1.471,0.323,1.812
			c0.05,0.048,0.198,0.198,0.632,0.198c0.383,0,0.652-0.083,0.817-0.25c0.343-0.345,0.333-1.12,0.329-1.582l-0.002-6.023
			c0-0.428,0.347-0.775,0.775-0.775c0.428,0,0.775,0.347,0.775,0.775v5.845c0.008,0.817,0.022,2.044-0.775,2.849
			C265.849,737.237,265.204,737.475,264.397,737.475z"/>
	</g>
</g>
</svg>
