<?xml version="1.0" encoding="utf-8"?>
<!-- Generator: Adobe Illustrator 27.5.0, SVG Export Plug-In . SVG Version: 6.00 Build 0)  -->
<svg version="1.1" id="PRINT" xmlns="http://www.w3.org/2000/svg" xmlns:xlink="http://www.w3.org/1999/xlink" x="0px" y="0px"
	 viewBox="0 0 595.28 841.89" style="enable-background:new 0 0 595.28 841.89;" xml:space="preserve">
<g>
	<rect x="-8.504" y="-8.504" style="fill:#FFFFFF;" width="612.289" height="858.897"/>
	<g>
		<text transform="matrix(1 0 0 1 123.924 90.7729)"><tspan x="0" y="0" style="fill:#21211F; font-family:'LeagueGothic-Regular'; font-size:37.6579px; letter-spacing:7;">RICHARD</tspan><tspan x="0" y="36.475" style="fill:#21211F; font-family:'LeagueGothic-Regular'; font-size:37.6579px; letter-spacing:7;">MORRISON</tspan></text>
	</g>
	<g>
		<rect x="45.284" y="61.982" style="fill:#21211F;" width="65.16" height="65.161"/>
		<g>
			<g>
				
					<path style="fill:none;stroke:#FFFFFF;stroke-width:2.1277;stroke-linecap:round;stroke-linejoin:round;stroke-miterlimit:10;" d="
					M61.759,114.572L61.759,114.572c0-8.612,6.982-15.594,15.594-15.594h1.023c8.612,0,15.594,6.982,15.594,15.594l0,0"/>
				
					<path style="fill:none;stroke:#FFFFFF;stroke-width:2.1277;stroke-linecap:round;stroke-linejoin:round;stroke-miterlimit:10;" d="
					M86.255,82.944c0,4.635-3.757,8.391-8.391,8.391c-4.634,0-8.391-3.757-8.391-8.391c0-4.634,3.757-8.391,8.391-8.391
					C82.498,74.553,86.255,78.31,86.255,82.944z"/>
			</g>
		</g>
	</g>
	<g>
		<text transform="matrix(1 0 0 1 45.2853 147.3452)" style="fill:#59595B; font-family:'DroidSans'; font-size:9.616px;">GRAPHIC DESIGNER, ART DIRECTOR</text>
	</g>
	<g>
		<rect x="48.878" y="242.958" style="fill:none;" width="279.64" height="93.415"/>
		<text transform="matrix(1 0 0 1 70.2755 249.4316)"><tspan x="0" y="0" style="fill:#59595C; font-family:'DroidSans'; font-size:9.1188px;">Lorem ipsum dolor sit amet, consectetur adipiscing elit. Curabitur sit </tspan><tspan x="0" y="18.238" style="fill:#59595C; font-family:'DroidSans'; font-size:9.1188px;">amet quam ut tortor pellentesque semper at dapibus metus. Pellenn</tspan><tspan x="0" y="36.475" style="fill:#59595C; font-family:'DroidSans'; font-size:9.1188px;">tesque fnibus bibendum tellus ac imperdiet. Quisque semper </tspan><tspan x="0" y="54.713" style="fill:#59595C; font-family:'DroidSans'; font-size:9.1188px;">pulvinar est, ac pretium justo pharetra a. </tspan></text>
	</g>
	<g>
		
			<text transform="matrix(1 0 0 1 69.6163 222.8305)" style="fill:#21211F; font-family:'Montserrat-SemiBold'; font-size:15.198px;">PROFILE</text>
	</g>
	<g>
		
			<text transform="matrix(1 0 0 1 69.6163 373.4633)" style="fill:#21211F; font-family:'Montserrat-SemiBold'; font-size:15.198px;">WORK EXPERIENCE</text>
	</g>
	<g>
		<rect x="48.374" y="425.26" style="fill:none;" width="280.144" height="53.407"/>
		<text transform="matrix(1 0 0 1 69.7716 431.7358)"><tspan x="0" y="0" style="fill:#59595C; font-family:'DroidSans'; font-size:9.1188px;">Lorem ipsum dolor sit amet, consectetur adipiscing elit. Curabitur sit </tspan><tspan x="0" y="18.237" style="fill:#59595C; font-family:'DroidSans'; font-size:9.1188px;">amet quam ut tortor pellentesque semper at dapibus metus.</tspan></text>
	</g>
	<g>
		<text transform="matrix(1 0 0 1 70.2745 399.9106)" style="fill:#21211F; font-family:'Montserrat-Bold'; font-size:9.616px;">GRAPHIC  DESIGNER</text>
	</g>
	<g>
		<text transform="matrix(1 0 0 1 70.2745 415.2505)" style="fill:#59595B; font-family:'Montserrat-Medium'; font-size:9.616px;">Lorem Ipsum Digital Agency (2017-2019)</text>
	</g>
	<g>
		<rect x="48.374" y="523.894" style="fill:none;" width="280.144" height="53.986"/>
		<text transform="matrix(1 0 0 1 69.7716 530.3687)"><tspan x="0" y="0" style="fill:#59595C; font-family:'DroidSans'; font-size:9.1188px;">Vestibulum convallis quam vel lorem commodo lacinia. Morbi </tspan><tspan x="0" y="18.237" style="fill:#59595C; font-family:'DroidSans'; font-size:9.1188px;">ultricies, elit sed gravida euismod, sem elit fermentum libero, sed </tspan><tspan x="0" y="36.475" style="fill:#59595C; font-family:'DroidSans'; font-size:9.1188px;">ornare velit mi et mi. Pellentesque non tempor sem. </tspan></text>
	</g>
	<g>
		<text transform="matrix(1 0 0 1 70.2745 496.3999)" style="fill:#21211F; font-family:'Montserrat-Bold'; font-size:9.616px;">ART DIRECTOR</text>
	</g>
	<g>
		<text transform="matrix(1 0 0 1 70.2745 511.7397)" style="fill:#59595B; font-family:'Montserrat-Medium'; font-size:9.616px;">Lorem Ipsum Digital Agency (2019-2021)</text>
	</g>
	<g>
		
			<text transform="matrix(1 0 0 1 70.2736 612.3403)" style="fill:#21211F; font-family:'Montserrat-SemiBold'; font-size:15.198px;">EDUCATION</text>
	</g>
	<g>
		<rect x="48.374" y="722.7" style="fill:none;" width="280.144" height="37.131"/>
		<text transform="matrix(1 0 0 1 69.7716 729.1743)"><tspan x="0" y="0" style="fill:#59595C; font-family:'DroidSans'; font-size:9.1188px;">Lorem ipsum dolor sit amet, consectetur adipiscing elit. Curabitur sit </tspan><tspan x="0" y="18.237" style="fill:#59595C; font-family:'DroidSans'; font-size:9.1188px;">amet quam ut tortor pellentesque.</tspan></text>
	</g>
	<g>
		<text transform="matrix(1 0 0 1 70.2745 697.3511)" style="fill:#21211F; font-family:'Montserrat-Bold'; font-size:9.616px;">UNIVERSITY NAME</text>
	</g>
	<g>
		<text transform="matrix(1 0 0 1 70.2745 712.6909)" style="fill:#59595B; font-family:'Montserrat-Medium'; font-size:9.616px;">Bachelor Of Art  (2013-2017)</text>
	</g>
	<g>
		<rect x="48.374" y="663.416" style="fill:none;" width="280.144" height="19.351"/>
		<text transform="matrix(1 0 0 1 69.7716 669.8921)" style="fill:#59595C; font-family:'DroidSans'; font-size:9.1188px;">Lorem ipsum dolor sit amet, consectetur adipiscing.</text>
	</g>
	<g>
		<text transform="matrix(1 0 0 1 70.2745 638.0679)" style="fill:#21211F; font-family:'Montserrat-Bold'; font-size:9.616px;">HIGH SCHOOL NAME</text>
	</g>
	<g>
		<text transform="matrix(1 0 0 1 70.2745 653.4067)" style="fill:#59595B; font-family:'Montserrat-Medium'; font-size:9.616px;">Senior High School  (2010-2013)</text>
	</g>
	
		<line style="fill:none;stroke:#21211F;stroke-width:0.6079;stroke-miterlimit:10;" x1="48.99" y1="243.557" x2="48.99" y2="324.855"/>
	<rect x="397.434" y="206.91" style="fill:#21211F;" width="144.306" height="552.245"/>
	
		<text transform="matrix(1 0 0 1 433.9786 296.893)" style="fill:#FFFFFF; font-family:'Montserrat-SemiBold'; font-size:15.198px;">SKILLS</text>
	
		<text transform="matrix(1 0 0 1 424.9806 449.2885)" style="fill:#FFFFFF; font-family:'Montserrat-SemiBold'; font-size:12.1584px;">EXPERTISE</text>
	<text transform="matrix(1 0 0 1 432.2823 318.1821)"><tspan x="0" y="0" style="fill:#FFFFFF; font-family:'DroidSans'; font-size:9.1188px;">Graphic Designer</tspan><tspan x="11.904" y="18.238" style="fill:#FFFFFF; font-family:'DroidSans'; font-size:9.1188px;">Leadership</tspan><tspan x="-2.918" y="36.476" style="fill:#FFFFFF; font-family:'DroidSans'; font-size:9.1188px;">Web Development</tspan><tspan x="1.071" y="54.713" style="fill:#FFFFFF; font-family:'DroidSans'; font-size:9.1188px;">Brand Campaign</tspan><tspan x="14.604" y="72.95" style="fill:#FFFFFF; font-family:'DroidSans'; font-size:9.1188px;">UI Design</tspan></text>
	<text transform="matrix(1 0 0 1 433.1935 474.6889)"><tspan x="0" y="0" style="fill:#FFFFFF; font-family:'DroidSans'; font-size:9.1188px;">Adobe Illustrator</tspan><tspan x="14.111" y="18.237" style="fill:#FFFFFF; font-family:'DroidSans'; font-size:9.1188px;">In Design</tspan><tspan x="-2.645" y="36.476" style="fill:#FFFFFF; font-family:'DroidSans'; font-size:9.1188px;">Adobe Photoshop</tspan><tspan x="2.663" y="54.713" style="fill:#FFFFFF; font-family:'DroidSans'; font-size:9.1188px;">Microsoft Word</tspan></text>
	
		<text transform="matrix(1 0 0 1 425.2736 584.6812)" style="fill:#FFFFFF; font-family:'Montserrat-SemiBold'; font-size:12.1584px;">INTERESTS</text>
	<text transform="matrix(1 0 0 1 440.1847 610.0815)"><tspan x="0" y="0" style="fill:#FFFFFF; font-family:'DroidSans'; font-size:9.1188px;">Photography</tspan><tspan x="4.559" y="18.237" style="fill:#FFFFFF; font-family:'DroidSans'; font-size:9.1188px;">Swimming</tspan><tspan x="12.743" y="36.476" style="fill:#FFFFFF; font-family:'DroidSans'; font-size:9.1188px;">Riding</tspan><tspan x="13.473" y="54.713" style="fill:#FFFFFF; font-family:'DroidSans'; font-size:9.1188px;">Travel</tspan></text>
	<g>
		<g>
			<path style="fill:#21211F;" d="M417.635,88.854h-9.54c-0.557,0-1.008,0.451-1.008,1.008v14.01c0,0.557,0.452,1.008,1.008,1.008
				h9.54c0.557,0,1.008-0.452,1.008-1.008v-14.01C418.644,89.305,418.192,88.854,417.635,88.854z M417.674,101.834
				c0,0.205-0.166,0.372-0.372,0.372h-8.874c-0.205,0-0.372-0.166-0.372-0.372v-11.69c0-0.205,0.166-0.372,0.372-0.372h8.874
				c0.205,0,0.372,0.166,0.372,0.372V101.834z"/>
			<g>
				<text transform="matrix(1 0 0 1 437.7531 99.6753)" style="fill:#59595B; font-family:'DroidSans'; font-size:8.5108px;">+0 123 456 789 0</text>
			</g>
		</g>
		<g>
			<text transform="matrix(1 0 0 1 405.9122 126.1636)"><tspan x="0" y="0" style="fill:#59595B; font-family:'DroidSans-Bold'; font-size:10.3342px;">STREET LOCATION, CITY, </tspan><tspan x="0" y="14.763" style="fill:#59595B; font-family:'DroidSans-Bold'; font-size:10.3342px;">COUNTRY NAME</tspan></text>
		</g>
		<g>
			<g>
				<text transform="matrix(1 0 0 1 437.7531 75.8149)" style="fill:#59595B; font-family:'DroidSans'; font-size:8.5108px;">richard@company.com</text>
			</g>
			<g>
				
					<polygon style="fill:none;stroke:#21211F;stroke-width:0.9119;stroke-linecap:round;stroke-linejoin:round;stroke-miterlimit:10;" points="
					408.972,73.408 415.097,77.33 420.456,66.739 				"/>
				
					<polygon style="fill:none;stroke:#21211F;stroke-width:0.9119;stroke-linecap:round;stroke-linejoin:round;stroke-miterlimit:10;" points="
					403.74,69.877 408.972,73.408 420.456,66.739 				"/>
				
					<polyline style="fill:none;stroke:#21211F;stroke-width:0.9119;stroke-linecap:round;stroke-linejoin:round;stroke-miterlimit:10;" points="
					408.972,73.408 409.354,77.861 411.524,75.173 				"/>
			</g>
		</g>
	</g>
	<rect x="43.586" y="362.837" style="fill:#21211F;" width="10.633" height="10.633"/>
	<rect x="43.586" y="213.07" style="fill:#21211F;" width="10.633" height="10.633"/>
	<rect x="43.586" y="602.657" style="fill:#21211F;" width="10.633" height="10.633"/>
	<g>
		
			<line style="fill:none;stroke:#21211F;stroke-width:0.6079;stroke-miterlimit:10;" x1="48.99" y1="398.773" x2="48.99" y2="491.044"/>
		
			<line style="fill:none;stroke:#21211F;stroke-width:0.6079;stroke-miterlimit:10;" x1="48.99" y1="494.669" x2="48.99" y2="571.446"/>
		
			<rect x="47.177" y="395.147" style="fill:none;stroke:#21211F;stroke-width:0.6079;stroke-miterlimit:10;" width="3.626" height="3.626"/>
		
			<rect x="47.177" y="491.044" style="fill:none;stroke:#21211F;stroke-width:0.6079;stroke-miterlimit:10;" width="3.626" height="3.625"/>
	</g>
	<g>
		
			<line style="fill:none;stroke:#21211F;stroke-width:0.6079;stroke-miterlimit:10;" x1="48.99" y1="637.404" x2="48.99" y2="693.949"/>
		
			<line style="fill:none;stroke:#21211F;stroke-width:0.6079;stroke-miterlimit:10;" x1="48.99" y1="697.575" x2="48.99" y2="749.488"/>
		
			<rect x="47.177" y="633.779" style="fill:none;stroke:#21211F;stroke-width:0.6079;stroke-miterlimit:10;" width="3.626" height="3.626"/>
		
			<rect x="47.177" y="693.949" style="fill:none;stroke:#21211F;stroke-width:0.6079;stroke-miterlimit:10;" width="3.626" height="3.626"/>
	</g>
</g>
</svg>
