<?xml version="1.0" encoding="utf-8"?>
<!-- Generator: Adobe Illustrator 27.5.0, SVG Export Plug-In . SVG Version: 6.00 Build 0)  -->
<svg version="1.1" id="PRINT" xmlns="http://www.w3.org/2000/svg" xmlns:xlink="http://www.w3.org/1999/xlink" x="0px" y="0px"
	 viewBox="0 0 595.276 841.89" style="enable-background:new 0 0 595.276 841.89;" xml:space="preserve">
<rect x="-8.28" y="-8.504" style="fill:#FFFFFF;" width="612.059" height="858.898"/>
<rect x="48" y="-8.504" style="fill:#FFDF5A;" width="56" height="94.504"/>
<text transform="matrix(1 0 0 1 66.9629 120.1504)" style="font-family:'Montserrat-SemiBold'; font-size:31.9068px; letter-spacing:6;">ALBERT</text>
<text transform="matrix(1 0 0 1 63.6425 158.3467)" style="font-family:'Montserrat-SemiBold'; font-size:31.9068px; letter-spacing:6;">MICHAELS</text>
<text transform="matrix(1 0 0 1 67.002 191.1621)" style="font-family:'Montserrat-Thin'; font-size:12.3252px; letter-spacing:2;">MARKETING MANAGER</text>
<text transform="matrix(1 0 0 1 407.6577 41.957)" style="font-family:'Montserrat-Thin'; font-size:8.2484px; letter-spacing:1;">WWW.ALBERT.COM</text>
<line style="fill:none;stroke:#000000;stroke-miterlimit:10;" x1="48" y1="40.193" x2="272" y2="40.193"/>
<line style="fill:none;stroke:#000000;stroke-miterlimit:10;" x1="371.297" y1="769.559" x2="603.779" y2="769.559"/>
<rect x="67" y="203" style="fill:#FFDF5A;" width="474" height="3"/>
<line style="fill:none;stroke:#000000;stroke-miterlimit:10;" x1="523.5" y1="257" x2="523.5" y2="33"/>
<rect x="582.5" y="294.5" style="fill:#FFDF5A;" width="21.279" height="253"/>
<rect x="-8.28" y="698.426" style="fill:#FFDF5A;" width="21.28" height="151.968"/>
<g>
	<g>
		
			<text transform="matrix(1 0 0 1 66.9521 266.7539)" style="font-family:'Montserrat-Bold'; font-size:12.9071px; letter-spacing:2;">EDUCATION</text>
	</g>
	<g>
		<rect x="84.7" y="287.059" style="fill:none;" width="371.3" height="123.941"/>
		<text transform="matrix(1 0 0 1 84.6992 294.2412)"><tspan x="0" y="0" style="font-family:'Montserrat-SemiBold'; font-size:9.6803px;">LOREM IPSUM</tspan><tspan x="8.067" y="26" style="font-family:'Montserrat-Bold'; font-size:9.6803px;">School Name.</tspan><tspan x="77.581" y="26" style="font-family:'Montserrat-Regular'; font-size:9.6803px;"> Lorem ipsum dolor sit amet, consectetur adipiscing elit. </tspan><tspan x="8.067" y="39" style="font-family:'Montserrat-Regular'; font-size:9.6803px;">Phasellus at lacinia lacus. In hac habitasse platea dictumst.</tspan><tspan x="0" y="65" style="font-family:'Montserrat-SemiBold'; font-size:9.6803px;">LOREM IPSUM</tspan><tspan x="8.067" y="91" style="font-family:'Montserrat-Bold'; font-size:9.6803px;">School Name.</tspan><tspan x="77.581" y="91" style="font-family:'Montserrat-Regular'; font-size:9.6803px;"> Lorem ipsum dolor sit amet, consectetur adipiscing elit. </tspan><tspan x="8.067" y="104" style="font-family:'Montserrat-Regular'; font-size:9.6803px;">Phasellus at lacinia lacus. In hac habitasse platea dictumst.</tspan></text>
	</g>
	<rect x="119.881" y="269.893" style="fill:#FFDF5A;" width="48.479" height="1.288"/>
</g>
<g>
	<g>
		
			<text transform="matrix(1 0 0 1 66.9521 450.2632)" style="font-family:'Montserrat-Bold'; font-size:12.9071px; letter-spacing:2;">WORK EXPERIENCE</text>
	</g>
	<g>
		<rect x="84.7" y="470.569" style="fill:none;" width="366.3" height="185.225"/>
		<text transform="matrix(1 0 0 1 84.6992 477.7515)"><tspan x="0" y="0" style="font-family:'Montserrat-SemiBold'; font-size:9.6803px;">LOREM IPSUM</tspan><tspan x="8.067" y="26" style="font-family:'Montserrat-Bold'; font-size:9.6803px;">Position. Company Name.</tspan><tspan x="139.033" y="26" style="font-family:'Montserrat-Regular'; font-size:9.6803px;"> Lorem ipsum dolor sit amet, consectetur </tspan><tspan x="8.067" y="39" style="font-family:'Montserrat-Regular'; font-size:9.6803px;">adipiscing elit. Phasellus at lacinia lacus. In hac habitasse platea dictums</tspan><tspan x="8.067" y="65" style="font-family:'Montserrat-SemiBold'; font-size:9.6803px;">LOREM IPSUM</tspan><tspan x="8.067" y="91" style="font-family:'Montserrat-Bold'; font-size:9.6803px;">Position. Company Name.</tspan><tspan x="139.033" y="91" style="font-family:'Montserrat-Regular'; font-size:9.6803px;"> Lorem ipsum dolor sit amet, consectetur </tspan><tspan x="8.067" y="104" style="font-family:'Montserrat-Regular'; font-size:9.6803px;">adipiscing elit. Phasellus at lacinia lacus. In hac habitasse platea dictumst.</tspan><tspan x="0" y="130" style="font-family:'Montserrat-SemiBold'; font-size:9.6803px;">LOREM IPSUM</tspan><tspan x="8.067" y="156" style="font-family:'Montserrat-Bold'; font-size:9.6803px;">Position. Company Name.</tspan><tspan x="139.033" y="156" style="font-family:'Montserrat-Regular'; font-size:9.6803px;"> Lorem ipsum dolor sit amet, consectetur </tspan><tspan x="8.067" y="169" style="font-family:'Montserrat-Regular'; font-size:9.6803px;">adipiscing elit. Phasellus at lacinia lacus. In hac habitasse platea dictumst.</tspan></text>
	</g>
	<rect x="190.898" y="454.109" style="fill:#FFDF5A;" width="48.479" height="1.288"/>
</g>
<g>
	<g>
		
			<text transform="matrix(1 0 0 1 66.9521 704.2121)" style="font-family:'Montserrat-Bold'; font-size:12.9071px; letter-spacing:2;">CONTACT</text>
	</g>
	<g>
		<g>
			<g id="XMLID_00000118384579805581611790000000411706491094010024_">
				<text transform="matrix(1 0 0 1 74.6274 737.9351)" style="font-family:'Montserrat-Regular'; font-size:9.6803px;">Year, Month/Date</text>
			</g>
			<g id="XMLID_00000128465511811117599480000006143689273429336978_">
				<text transform="matrix(1 0 0 1 75.5098 759.3032)" style="font-family:'Montserrat-Regular'; font-size:9.6803px;">Your City, Country</text>
			</g>
			<g id="XMLID_00000047019837053467930490000012161666682513731718_">
				<text transform="matrix(1 0 0 1 74.6279 783.1899)" style="font-family:'Montserrat-Regular'; font-size:9.6803px;">123 - 456 -78</text>
			</g>
			<g id="XMLID_00000152227765495336869330000016758726455845876640_">
				<text transform="matrix(1 0 0 1 74.6274 805.1616)" style="font-family:'Montserrat-Regular'; font-size:9.6803px;">youremail@domain.com</text>
			</g>
		</g>
	</g>
	<rect x="97.225" y="708.191" style="fill:#FFDF5A;" width="48.479" height="1.288"/>
</g>
</svg>
